{"glyphs":{"0":{"ha":697,"x_min":54,"x_max":643,"o":"m 643 432 q 558 83 643 181 q 350 -15 472 -15 q 141 84 228 -15 q 54 432 54 183 q 141 779 54 681 q 350 878 228 878 q 558 781 472 878 q 643 432 643 683 m 350 94 q 444 122 397 94 q 522 224 490 150 q 554 439 554 299 q 522 648 554 576 q 444 745 490 719 q 350 771 397 771 q 253 744 301 771 q 174 644 206 718 q 143 428 143 569 q 174 219 143 290 q 253 121 206 147 q 350 94 301 94 z "},"1":{"ha":697,"x_min":94,"x_max":639,"o":"m 639 46 l 639 0 l 94 0 l 94 46 l 321 83 l 321 751 l 101 751 l 101 803 l 439 853 l 439 83 l 639 46 z "},"2":{"ha":697,"x_min":44,"x_max":649,"o":"m 65 0 l 44 69 l 331 350 q 444 488 407 425 q 481 636 481 551 q 438 747 481 704 q 318 790 394 790 q 207 778 258 790 q 103 740 156 765 l 78 800 q 193 849 125 828 q 335 871 261 871 q 523 819 444 871 q 601 639 601 767 q 543 461 601 544 q 401 301 485 378 l 167 88 l 543 88 l 597 200 l 649 200 l 629 0 l 65 0 z "},"3":{"ha":697,"x_min":60,"x_max":611,"o":"m 343 871 q 502 826 436 871 q 568 686 568 781 q 515 547 568 599 q 390 467 461 494 q 551 394 490 454 q 611 239 611 333 q 304 -12 611 -12 q 172 -1 235 -12 q 60 31 108 11 l 75 99 q 177 71 132 78 q 261 64 222 64 q 422 106 358 64 q 485 239 485 147 q 446 360 485 322 q 348 409 407 399 q 228 419 289 419 l 224 481 q 396 544 346 493 q 446 667 446 594 q 408 756 446 722 q 292 790 369 790 q 207 778 253 790 q 111 740 161 765 l 85 797 q 201 849 133 826 q 343 871 269 871 z "},"4":{"ha":697,"x_min":1,"x_max":639,"o":"m 415 0 l 415 194 l 21 194 l 1 251 l 438 861 l 524 851 l 524 275 l 639 275 l 639 194 l 524 194 l 524 0 l 415 0 m 107 275 l 415 275 l 415 711 l 107 275 z "},"5":{"ha":697,"x_min":65,"x_max":621,"o":"m 575 849 l 575 756 l 213 756 l 194 536 q 474 491 383 536 q 593 380 565 446 q 621 251 621 314 q 542 60 621 132 q 314 -12 464 -12 q 174 1 235 -12 q 65 33 114 14 l 86 97 q 188 71 142 78 q 272 64 233 64 q 433 114 369 64 q 496 251 496 164 q 406 413 496 369 q 142 456 315 456 l 117 482 l 150 849 l 575 849 z "},"6":{"ha":697,"x_min":56,"x_max":653,"o":"m 179 426 q 282 497 222 472 q 413 522 342 522 q 600 448 547 522 q 653 281 653 374 q 631 158 653 228 q 540 35 608 88 q 331 -17 471 -17 q 160 31 219 -17 q 78 160 101 79 q 56 339 56 242 q 127 665 56 550 q 297 826 199 781 q 474 871 394 871 q 533 867 504 871 q 586 858 561 864 l 578 794 q 534 799 554 797 q 496 801 514 801 q 286 709 386 801 q 179 426 186 617 m 175 322 q 213 132 175 210 q 338 54 250 54 q 486 109 439 54 q 533 249 533 164 q 503 388 533 331 q 385 446 474 446 q 265 409 324 446 q 175 322 206 372 z "},"7":{"ha":697,"x_min":58,"x_max":638,"o":"m 69 657 l 58 849 l 617 849 l 638 778 l 314 -12 l 189 0 l 542 765 l 144 765 l 115 657 l 69 657 z "},"8":{"ha":697,"x_min":61,"x_max":614,"o":"m 328 -18 q 117 47 172 -18 q 61 189 61 111 q 106 325 61 258 q 249 436 151 392 q 134 527 181 476 q 88 658 88 578 q 152 808 88 746 q 351 871 217 871 q 543 818 481 871 q 606 689 606 765 q 569 576 606 635 q 411 468 533 517 q 553 373 492 425 q 614 228 614 321 q 540 50 614 118 q 328 -18 465 -18 m 322 50 q 452 85 399 50 q 506 194 506 121 q 469 298 506 261 q 340 385 432 335 l 299 407 q 208 326 250 375 q 167 204 167 276 q 211 86 167 122 q 322 50 256 50 m 354 497 q 460 570 422 533 q 497 667 497 607 q 461 765 497 726 q 351 804 425 804 q 241 774 288 804 q 194 675 194 743 q 238 576 194 618 q 354 497 281 535 z "},"9":{"ha":697,"x_min":57,"x_max":644,"o":"m 96 86 q 178 67 138 74 q 256 60 219 60 q 444 136 369 60 q 522 393 519 213 q 296 325 399 325 q 119 401 181 325 q 57 585 57 478 q 78 705 57 638 q 163 822 99 772 q 356 871 228 871 q 535 810 472 871 q 621 655 597 749 q 644 464 644 561 q 589 160 644 264 q 451 20 533 57 q 289 -17 369 -17 q 174 -8 225 -17 q 78 18 122 1 l 96 86 m 525 482 q 489 717 525 638 q 350 797 453 797 q 224 744 271 797 q 178 606 178 690 q 224 451 178 497 q 335 404 269 404 q 431 426 382 404 q 525 482 481 447 z "},"A":{"ha":825,"x_min":0,"x_max":814,"o":"m 182 72 l 282 46 l 282 0 l 0 0 l 0 46 l 100 72 l 360 849 l 440 867 l 714 72 l 814 46 l 814 0 l 513 0 l 513 46 l 596 69 l 546 211 l 228 211 l 182 72 m 383 683 l 247 275 l 525 275 l 383 683 z "},"Á":{"ha":825,"x_min":0,"x_max":814,"o":"m 182 72 l 282 46 l 282 0 l 0 0 l 0 46 l 100 72 l 360 849 l 440 867 l 714 72 l 814 46 l 814 0 l 513 0 l 513 46 l 596 69 l 546 211 l 228 211 l 182 72 m 383 683 l 247 275 l 525 275 l 383 683 m 297 903 l 275 929 l 489 1110 l 594 1071 l 594 1046 l 297 903 z "},"Ă":{"ha":825,"x_min":0,"x_max":814,"o":"m 182 72 l 282 46 l 282 0 l 0 0 l 0 46 l 100 72 l 360 849 l 440 867 l 714 72 l 814 46 l 814 0 l 513 0 l 513 46 l 596 69 l 546 211 l 228 211 l 182 72 m 383 683 l 247 275 l 525 275 l 383 683 m 410 924 q 279 972 313 924 q 246 1082 246 1021 l 293 1085 q 315 1025 293 1051 q 407 999 336 999 q 503 1025 481 999 q 525 1085 525 1051 l 571 1082 q 538 972 571 1021 q 410 924 506 924 z "},"Ắ":{"ha":825,"x_min":0,"x_max":814,"o":"m 182 72 l 282 46 l 282 0 l 0 0 l 0 46 l 100 72 l 360 849 l 440 867 l 714 72 l 814 46 l 814 0 l 513 0 l 513 46 l 596 69 l 546 211 l 228 211 l 182 72 m 383 683 l 247 275 l 525 275 l 383 683 z "},"Ặ":{"ha":825,"x_min":0,"x_max":814,"o":"m 182 72 l 282 46 l 282 0 l 0 0 l 0 46 l 100 72 l 360 849 l 440 867 l 714 72 l 814 46 l 814 0 l 513 0 l 513 46 l 596 69 l 546 211 l 228 211 l 182 72 m 383 683 l 247 275 l 525 275 l 383 683 m 496 -140 q 470 -197 496 -175 q 413 -219 444 -219 q 354 -197 379 -219 q 329 -140 329 -175 q 354 -81 329 -106 q 413 -57 379 -57 q 470 -81 444 -57 q 496 -140 496 -106 z "},"Ằ":{"ha":825,"x_min":0,"x_max":814,"o":"m 182 72 l 282 46 l 282 0 l 0 0 l 0 46 l 100 72 l 360 849 l 440 867 l 714 72 l 814 46 l 814 0 l 513 0 l 513 46 l 596 69 l 546 211 l 228 211 l 182 72 m 383 683 l 247 275 l 525 275 l 383 683 z "},"Ẳ":{"ha":825,"x_min":0,"x_max":814,"o":"m 182 72 l 282 46 l 282 0 l 0 0 l 0 46 l 100 72 l 360 849 l 440 867 l 714 72 l 814 46 l 814 0 l 513 0 l 513 46 l 596 69 l 546 211 l 228 211 l 182 72 m 383 683 l 247 275 l 525 275 l 383 683 m 550 1224 q 528 1178 550 1200 q 439 1150 506 1156 l 471 1178 l 456 1118 l 403 1118 l 397 1174 q 458 1186 442 1174 q 475 1218 475 1199 q 426 1256 475 1256 q 392 1253 414 1256 q 346 1246 371 1250 l 338 1283 q 432 1292 389 1292 q 550 1224 550 1292 m 346 1210 l 338 1283 l 386 1285 l 400 1260 l 388 1210 l 346 1210 z "},"Ẵ":{"ha":825,"x_min":0,"x_max":814,"o":"m 182 72 l 282 46 l 282 0 l 0 0 l 0 46 l 100 72 l 360 849 l 440 867 l 714 72 l 814 46 l 814 0 l 513 0 l 513 46 l 596 69 l 546 211 l 228 211 l 182 72 m 383 683 l 247 275 l 525 275 l 383 683 z "},"Ǎ":{"ha":825,"x_min":0,"x_max":814,"o":"m 182 72 l 282 46 l 282 0 l 0 0 l 0 46 l 100 72 l 360 849 l 440 867 l 714 72 l 814 46 l 814 0 l 513 0 l 513 46 l 596 69 l 546 211 l 228 211 l 182 72 m 383 683 l 247 275 l 525 275 l 383 683 z "},"Â":{"ha":825,"x_min":0,"x_max":814,"o":"m 182 72 l 282 46 l 282 0 l 0 0 l 0 46 l 100 72 l 360 849 l 440 867 l 714 72 l 814 46 l 814 0 l 513 0 l 513 46 l 596 69 l 546 211 l 228 211 l 182 72 m 383 683 l 247 275 l 525 275 l 383 683 m 553 904 l 392 1018 l 238 904 l 214 929 l 353 1111 l 436 1111 l 578 929 l 553 904 z "},"Ấ":{"ha":825,"x_min":0,"x_max":814,"o":"m 182 72 l 282 46 l 282 0 l 0 0 l 0 46 l 100 72 l 360 849 l 440 867 l 714 72 l 814 46 l 814 0 l 513 0 l 513 46 l 596 69 l 546 211 l 228 211 l 182 72 m 383 683 l 247 275 l 525 275 l 383 683 m 574 968 l 546 986 l 683 1229 l 797 1229 l 806 1206 l 574 968 m 542 904 l 381 1018 l 226 904 l 203 929 l 342 1111 l 425 1111 l 567 929 l 542 904 z "},"Ậ":{"ha":825,"x_min":0,"x_max":814,"o":"m 182 72 l 282 46 l 282 0 l 0 0 l 0 46 l 100 72 l 360 849 l 440 867 l 714 72 l 814 46 l 814 0 l 513 0 l 513 46 l 596 69 l 546 211 l 228 211 l 182 72 m 383 683 l 247 275 l 525 275 l 383 683 m 496 -140 q 470 -197 496 -175 q 413 -219 444 -219 q 354 -197 379 -219 q 329 -140 329 -175 q 354 -81 329 -106 q 413 -57 379 -57 q 470 -81 444 -57 q 496 -140 496 -106 z "},"Ầ":{"ha":825,"x_min":0,"x_max":814,"o":"m 182 72 l 282 46 l 282 0 l 0 0 l 0 46 l 100 72 l 360 849 l 440 867 l 714 72 l 814 46 l 814 0 l 513 0 l 513 46 l 596 69 l 546 211 l 228 211 l 182 72 m 383 683 l 247 275 l 525 275 l 383 683 m 629 968 l 397 1206 l 406 1229 l 519 1229 l 657 986 l 629 968 m 542 904 l 381 1018 l 226 904 l 203 929 l 342 1111 l 425 1111 l 567 929 l 542 904 z "},"Ẩ":{"ha":825,"x_min":0,"x_max":814,"o":"m 182 72 l 282 46 l 282 0 l 0 0 l 0 46 l 100 72 l 360 849 l 440 867 l 714 72 l 814 46 l 814 0 l 513 0 l 513 46 l 596 69 l 546 211 l 228 211 l 182 72 m 383 683 l 247 275 l 525 275 l 383 683 m 569 904 l 408 1018 l 254 904 l 231 929 l 369 1111 l 453 1111 l 594 929 l 569 904 m 686 1161 q 664 1115 686 1138 q 575 1088 642 1093 l 607 1115 l 592 1056 l 539 1056 l 533 1111 q 594 1124 578 1111 q 611 1156 611 1136 q 563 1193 611 1193 q 528 1190 550 1193 q 482 1183 507 1188 l 474 1221 q 568 1229 525 1229 q 686 1161 686 1229 m 482 1147 l 474 1221 l 522 1222 l 536 1197 l 524 1147 l 482 1147 z "},"Ẫ":{"ha":825,"x_min":0,"x_max":814,"o":"m 182 72 l 282 46 l 282 0 l 0 0 l 0 46 l 100 72 l 360 849 l 440 867 l 714 72 l 814 46 l 814 0 l 513 0 l 513 46 l 596 69 l 546 211 l 228 211 l 182 72 m 383 683 l 247 275 l 525 275 l 383 683 z "},"Ȁ":{"ha":825,"x_min":0,"x_max":814,"o":"m 182 72 l 282 46 l 282 0 l 0 0 l 0 46 l 100 72 l 360 849 l 440 867 l 714 72 l 814 46 l 814 0 l 513 0 l 513 46 l 596 69 l 546 211 l 228 211 l 182 72 m 383 683 l 247 275 l 525 275 l 383 683 m 528 906 l 350 1088 l 350 1111 l 454 1111 l 558 926 l 528 906 m 303 906 l 126 1088 l 126 1111 l 231 1111 l 335 926 l 303 906 z "},"Ä":{"ha":825,"x_min":0,"x_max":814,"o":"m 182 72 l 282 46 l 282 0 l 0 0 l 0 46 l 100 72 l 360 849 l 440 867 l 714 72 l 814 46 l 814 0 l 513 0 l 513 46 l 596 69 l 546 211 l 228 211 l 182 72 m 383 683 l 247 275 l 525 275 l 383 683 m 342 1003 q 318 949 342 972 q 263 926 294 926 q 207 949 231 926 q 183 1003 183 972 q 207 1060 183 1036 q 263 1083 231 1083 q 318 1060 294 1083 q 342 1003 342 1036 m 613 1003 q 588 949 613 972 q 532 926 564 926 q 476 949 500 926 q 453 1003 453 972 q 476 1060 453 1036 q 532 1083 500 1083 q 588 1060 564 1083 q 613 1003 613 1036 z "},"Ạ":{"ha":825,"x_min":0,"x_max":814,"o":"m 182 72 l 282 46 l 282 0 l 0 0 l 0 46 l 100 72 l 360 849 l 440 867 l 714 72 l 814 46 l 814 0 l 513 0 l 513 46 l 596 69 l 546 211 l 228 211 l 182 72 m 383 683 l 247 275 l 525 275 l 383 683 m 496 -140 q 470 -197 496 -175 q 413 -219 444 -219 q 354 -197 379 -219 q 329 -140 329 -175 q 354 -81 329 -106 q 413 -57 379 -57 q 470 -81 444 -57 q 496 -140 496 -106 z "},"À":{"ha":825,"x_min":0,"x_max":814,"o":"m 182 72 l 282 46 l 282 0 l 0 0 l 0 46 l 100 72 l 360 849 l 440 867 l 714 72 l 814 46 l 814 0 l 513 0 l 513 46 l 596 69 l 546 211 l 228 211 l 182 72 m 383 683 l 247 275 l 525 275 l 383 683 m 503 900 l 203 1043 l 203 1068 l 310 1107 l 522 926 l 503 900 z "},"Ả":{"ha":825,"x_min":0,"x_max":814,"o":"m 182 72 l 282 46 l 282 0 l 0 0 l 0 46 l 100 72 l 360 849 l 440 867 l 714 72 l 814 46 l 814 0 l 513 0 l 513 46 l 596 69 l 546 211 l 228 211 l 182 72 m 383 683 l 247 275 l 525 275 l 383 683 m 547 1044 q 525 999 547 1021 q 436 971 503 976 l 468 999 l 453 939 l 400 939 l 394 994 q 456 1007 439 994 q 472 1039 472 1019 q 424 1076 472 1076 q 390 1074 411 1076 q 343 1067 368 1071 l 335 1104 q 429 1113 386 1113 q 547 1044 547 1113 m 343 1031 l 335 1104 l 383 1106 l 397 1081 l 385 1031 l 343 1031 z "},"Ȃ":{"ha":825,"x_min":0,"x_max":814,"o":"m 182 72 l 282 46 l 282 0 l 0 0 l 0 46 l 100 72 l 360 849 l 440 867 l 714 72 l 814 46 l 814 0 l 513 0 l 513 46 l 596 69 l 546 211 l 228 211 l 182 72 m 383 683 l 247 275 l 525 275 l 383 683 m 411 1092 q 542 1043 508 1092 q 575 933 575 994 l 528 931 q 506 990 528 964 q 414 1017 485 1017 q 319 990 342 1017 q 296 931 296 964 l 250 933 q 283 1043 250 994 q 411 1092 315 1092 z "},"Ā":{"ha":825,"x_min":0,"x_max":814,"o":"m 182 72 l 282 46 l 282 0 l 0 0 l 0 46 l 100 72 l 360 849 l 440 867 l 714 72 l 814 46 l 814 0 l 513 0 l 513 46 l 596 69 l 546 211 l 228 211 l 182 72 m 383 683 l 247 275 l 525 275 l 383 683 m 253 1040 l 554 1040 l 554 968 l 253 968 l 253 1040 z "},"Ą":{"ha":825,"x_min":0,"x_max":825,"o":"m 0 0 l 0 46 l 100 74 l 360 849 l 444 867 l 725 72 l 825 46 l 825 0 l 650 0 q 542 -62 581 0 q 503 -174 503 -124 q 525 -245 503 -222 q 579 -268 547 -268 q 649 -236 618 -268 l 671 -258 q 639 -293 671 -258 q 540 -328 607 -328 q 442 -289 472 -328 q 413 -210 413 -250 q 456 -78 413 -131 q 544 11 500 -25 q 589 78 589 47 q 588 88 589 83 q 585 100 586 93 l 546 211 l 233 211 l 189 74 l 288 46 l 288 0 l 0 0 m 386 678 l 253 275 l 525 275 l 386 678 z "},"Å":{"ha":825,"x_min":0,"x_max":814,"o":"m 0 0 l 0 46 l 100 72 l 360 849 l 440 867 l 714 72 l 814 46 l 814 0 l 513 0 l 513 46 l 596 69 l 546 211 l 228 211 l 182 72 l 282 46 l 282 0 l 0 0 m 247 275 l 525 275 l 383 683 l 247 275 m 400 879 q 295 917 331 879 q 260 1011 260 956 q 295 1103 260 1065 q 400 1142 331 1142 q 504 1103 469 1142 q 539 1011 539 1065 q 504 917 539 956 q 400 879 469 879 m 400 928 q 459 951 447 928 q 471 1011 471 975 q 459 1070 471 1046 q 400 1094 447 1094 q 342 1070 354 1094 q 329 1011 329 1046 q 342 951 329 975 q 400 928 354 928 z "},"Ǻ":{"ha":825,"x_min":0,"x_max":814,"o":"m 182 72 l 282 46 l 282 0 l 0 0 l 0 46 l 100 72 l 360 849 l 440 867 l 714 72 l 814 46 l 814 0 l 513 0 l 513 46 l 596 69 l 546 211 l 228 211 l 182 72 m 383 683 l 247 275 l 525 275 l 383 683 z "},"Ã":{"ha":825,"x_min":0,"x_max":814,"o":"m 182 72 l 282 46 l 282 0 l 0 0 l 0 46 l 100 72 l 360 849 l 440 867 l 714 72 l 814 46 l 814 0 l 513 0 l 513 46 l 596 69 l 546 211 l 228 211 l 182 72 m 383 683 l 247 275 l 525 275 l 383 683 m 606 1058 q 560 967 583 1006 q 504 929 538 929 q 406 957 469 929 q 307 985 342 985 q 264 960 283 985 q 244 935 244 935 l 203 951 q 248 1044 225 1006 q 306 1082 271 1082 q 404 1054 342 1082 q 503 1026 467 1026 q 544 1051 526 1026 q 563 1075 563 1075 l 606 1058 z "},"Æ":{"ha":1022,"x_min":-19,"x_max":968,"o":"m -19 0 l -19 46 l 81 74 l 454 783 l 361 803 l 361 849 l 917 849 l 917 665 l 863 665 l 833 776 l 607 776 l 631 431 l 776 431 l 806 522 l 857 522 l 857 269 l 806 269 l 774 365 l 635 365 l 654 78 l 878 78 l 914 204 l 968 204 l 968 0 l 413 0 l 413 46 l 542 74 l 522 365 l 318 365 l 168 74 l 264 47 l 264 0 l -19 0 m 351 431 l 518 431 l 499 715 l 351 431 z "},"Ǽ":{"ha":1022,"x_min":-19,"x_max":968,"o":"m -19 0 l -19 46 l 81 74 l 454 783 l 361 803 l 361 849 l 917 849 l 917 665 l 863 665 l 833 776 l 607 776 l 631 431 l 776 431 l 806 522 l 857 522 l 857 269 l 806 269 l 774 365 l 635 365 l 654 78 l 878 78 l 914 204 l 968 204 l 968 0 l 413 0 l 413 46 l 542 74 l 522 365 l 318 365 l 168 74 l 264 47 l 264 0 l -19 0 m 351 431 l 518 431 l 499 715 l 351 431 z "},"B":{"ha":775,"x_min":53,"x_max":699,"o":"m 486 449 q 648 371 597 425 q 699 235 699 317 q 617 65 699 131 q 393 0 536 0 l 53 0 l 53 46 l 178 74 l 178 775 l 53 803 l 53 849 l 385 849 q 605 790 540 849 q 669 647 669 732 q 622 515 669 565 q 486 449 575 465 m 358 472 q 498 511 446 472 q 550 635 550 550 q 499 752 550 715 q 379 789 449 789 q 337 785 358 789 q 293 776 315 782 l 293 472 l 358 472 m 293 68 q 376 57 331 57 q 515 98 456 57 q 575 242 575 139 q 517 372 575 329 q 350 415 460 415 l 293 415 l 293 68 z "},"C":{"ha":767,"x_min":57,"x_max":697,"o":"m 697 32 q 585 -1 642 11 q 450 -12 529 -12 q 148 117 239 -12 q 57 429 57 247 q 147 741 57 611 q 450 871 236 871 q 594 858 538 871 q 697 829 651 844 l 685 653 l 635 653 l 600 788 q 533 799 564 794 q 472 803 501 803 q 292 749 356 803 q 206 610 229 696 q 182 429 182 525 q 208 253 182 339 q 296 110 233 167 q 468 54 358 54 q 530 59 496 54 q 600 75 564 64 l 635 192 l 686 192 l 697 32 z "},"Ć":{"ha":731,"x_min":57,"x_max":697,"o":"m 697 32 q 585 -1 642 11 q 450 -12 529 -12 q 148 117 239 -12 q 57 429 57 247 q 147 741 57 611 q 450 871 236 871 q 594 858 538 871 q 697 829 651 844 l 685 653 l 635 653 l 600 788 q 533 799 564 794 q 472 803 501 803 q 292 749 356 803 q 206 610 229 696 q 182 429 182 525 q 208 253 182 339 q 296 110 233 167 q 468 54 358 54 q 530 59 496 54 q 600 75 564 64 l 635 192 l 686 192 l 697 32 m 315 903 l 293 929 l 507 1110 l 613 1071 l 613 1046 l 315 903 z "},"Č":{"ha":731,"x_min":57,"x_max":697,"o":"m 450 -12 q 148 117 239 -12 q 57 429 57 247 q 147 741 57 611 q 450 871 236 871 q 594 858 538 871 q 697 829 651 844 l 685 653 l 635 653 l 600 788 q 533 799 564 794 q 472 803 501 803 q 292 749 356 803 q 206 610 229 696 q 182 429 182 525 q 208 253 182 339 q 296 110 233 167 q 468 54 358 54 q 530 59 496 54 q 600 75 564 64 l 635 192 l 686 192 l 697 32 q 585 -1 642 11 q 450 -12 529 -12 m 394 904 l 253 1086 l 276 1111 l 438 997 l 592 1111 l 617 1086 l 478 904 l 394 904 z "},"Ç":{"ha":731,"x_min":57,"x_max":697,"o":"m 385 -304 q 313 -293 344 -304 l 324 -258 q 372 -267 350 -267 q 451 -239 421 -267 q 482 -172 482 -211 q 458 -125 482 -144 q 375 -106 433 -106 l 371 -93 l 399 -10 q 137 133 217 7 q 57 429 57 258 q 147 741 57 611 q 450 871 236 871 q 594 858 538 871 q 697 829 651 844 l 685 653 l 635 653 l 600 788 q 533 799 564 794 q 472 803 501 803 q 292 749 356 803 q 206 610 229 696 q 182 429 182 525 q 208 253 182 339 q 296 110 233 167 q 468 54 358 54 q 530 59 496 54 q 600 75 564 64 l 635 192 l 686 192 l 697 32 q 585 -1 642 11 q 450 -12 529 -12 l 419 -12 l 444 3 l 424 -64 q 536 -93 500 -64 q 572 -161 572 -122 q 516 -262 572 -221 q 385 -304 460 -304 z "},"Ĉ":{"ha":767,"x_min":57,"x_max":697,"o":"m 697 32 q 585 -1 642 11 q 450 -12 529 -12 q 148 117 239 -12 q 57 429 57 247 q 147 741 57 611 q 450 871 236 871 q 594 858 538 871 q 697 829 651 844 l 685 653 l 635 653 l 600 788 q 533 799 564 794 q 472 803 501 803 q 292 749 356 803 q 206 610 229 696 q 182 429 182 525 q 208 253 182 339 q 296 110 233 167 q 468 54 358 54 q 530 59 496 54 q 600 75 564 64 l 635 192 l 686 192 l 697 32 z "},"Ċ":{"ha":767,"x_min":57,"x_max":697,"o":"m 697 32 q 585 -1 642 11 q 450 -12 529 -12 q 148 117 239 -12 q 57 429 57 247 q 147 741 57 611 q 450 871 236 871 q 594 858 538 871 q 697 829 651 844 l 685 653 l 635 653 l 600 788 q 533 799 564 794 q 472 803 501 803 q 292 749 356 803 q 206 610 229 696 q 182 429 182 525 q 208 253 182 339 q 296 110 233 167 q 468 54 358 54 q 530 59 496 54 q 600 75 564 64 l 635 192 l 686 192 l 697 32 z "},"D":{"ha":888,"x_min":53,"x_max":831,"o":"m 417 849 q 736 735 642 849 q 831 442 831 622 q 741 130 831 260 q 440 0 651 0 l 53 0 l 53 46 l 178 74 l 178 775 l 53 803 l 53 849 l 417 849 m 403 783 q 340 781 368 783 q 293 775 311 778 l 293 81 q 456 57 358 57 q 615 121 561 57 q 687 274 668 185 q 706 442 706 364 q 628 690 706 596 q 403 783 550 783 z "},"Ǳ":{"ha":1579,"x_min":53,"x_max":1518,"o":"m 417 849 q 736 735 642 849 q 831 442 831 622 q 741 130 831 260 q 440 0 651 0 l 53 0 l 53 46 l 178 74 l 178 775 l 53 803 l 53 849 l 417 849 m 403 783 q 340 781 368 783 q 293 775 311 778 l 293 81 q 456 57 358 57 q 615 121 561 57 q 687 274 668 185 q 706 442 706 364 q 628 690 706 596 q 403 783 550 783 m 1518 204 l 1503 0 l 944 0 l 919 46 l 1374 775 l 1044 775 l 1014 665 l 961 665 l 949 849 l 1507 849 l 1514 804 l 1064 75 l 1413 75 l 1464 204 l 1518 204 z "},"Ǆ":{"ha":1579,"x_min":53,"x_max":1518,"o":"m 417 849 q 736 735 642 849 q 831 442 831 622 q 741 130 831 260 q 440 0 651 0 l 53 0 l 53 46 l 178 74 l 178 775 l 53 803 l 53 849 l 417 849 m 403 783 q 340 781 368 783 q 293 775 311 778 l 293 81 q 456 57 358 57 q 615 121 561 57 q 687 274 668 185 q 706 442 706 364 q 628 690 706 596 q 403 783 550 783 m 1518 204 l 1503 0 l 944 0 l 919 46 l 1374 775 l 1044 775 l 1014 665 l 961 665 l 949 849 l 1507 849 l 1514 804 l 1064 75 l 1413 75 l 1464 204 l 1518 204 z "},"Ð":{"ha":888,"x_min":53,"x_max":831,"o":"m 53 0 l 53 46 l 178 74 l 178 385 l 57 385 l 57 449 l 178 449 l 178 775 l 53 803 l 53 849 l 417 849 q 736 735 642 849 q 831 442 831 622 q 741 130 831 260 q 440 0 651 0 l 53 0 m 456 57 q 615 121 561 57 q 687 274 668 185 q 706 442 706 364 q 628 690 706 596 q 403 783 550 783 q 340 781 368 783 q 293 775 311 778 l 293 449 l 449 449 l 449 385 l 293 385 l 293 81 q 456 57 358 57 z "},"Ď":{"ha":875,"x_min":53,"x_max":831,"o":"m 53 0 l 53 46 l 178 74 l 178 775 l 53 803 l 53 849 l 417 849 q 736 735 642 849 q 831 442 831 622 q 741 130 831 260 q 440 0 651 0 l 53 0 m 456 57 q 615 121 561 57 q 687 274 668 185 q 706 442 706 364 q 628 690 706 596 q 403 783 550 783 q 340 781 368 783 q 293 775 311 778 l 293 81 q 456 57 358 57 m 394 904 l 253 1086 l 276 1111 l 438 997 l 592 1111 l 617 1086 l 478 904 l 394 904 z "},"Đ":{"ha":888,"x_min":53,"x_max":831,"o":"m 53 0 l 53 46 l 178 74 l 178 385 l 57 385 l 57 449 l 178 449 l 178 775 l 53 803 l 53 849 l 417 849 q 736 735 642 849 q 831 442 831 622 q 741 130 831 260 q 440 0 651 0 l 53 0 m 456 57 q 615 121 561 57 q 687 274 668 185 q 706 442 706 364 q 628 690 706 596 q 403 783 550 783 q 340 781 368 783 q 293 775 311 778 l 293 449 l 449 449 l 449 385 l 293 385 l 293 81 q 456 57 358 57 z "},"Ḍ":{"ha":888,"x_min":53,"x_max":831,"o":"m 417 849 q 736 735 642 849 q 831 442 831 622 q 741 130 831 260 q 440 0 651 0 l 53 0 l 53 46 l 178 74 l 178 775 l 53 803 l 53 849 l 417 849 m 403 783 q 340 781 368 783 q 293 775 311 778 l 293 81 q 456 57 358 57 q 615 121 561 57 q 687 274 668 185 q 706 442 706 364 q 628 690 706 596 q 403 783 550 783 m 528 -140 q 502 -197 528 -175 q 444 -219 476 -219 q 386 -197 411 -219 q 361 -140 361 -175 q 386 -81 361 -106 q 444 -57 411 -57 q 502 -81 476 -57 q 528 -140 528 -106 z "},"ǲ":{"ha":1526,"x_min":53,"x_max":1474,"o":"m 417 849 q 736 735 642 849 q 831 442 831 622 q 741 130 831 260 q 440 0 651 0 l 53 0 l 53 46 l 178 74 l 178 775 l 53 803 l 53 849 l 417 849 m 403 783 q 340 781 368 783 q 293 775 311 778 l 293 81 q 456 57 358 57 q 615 121 561 57 q 687 274 668 185 q 706 442 706 364 q 628 690 706 596 q 403 783 550 783 m 1322 608 l 1046 608 l 1024 503 l 972 503 l 954 682 l 1450 682 l 1474 636 l 1082 71 l 1372 71 l 1415 181 l 1464 181 l 1451 0 l 960 0 l 938 47 l 1322 608 z "},"ǅ":{"ha":1526,"x_min":53,"x_max":1474,"o":"m 417 849 q 736 735 642 849 q 831 442 831 622 q 741 130 831 260 q 440 0 651 0 l 53 0 l 53 46 l 178 74 l 178 775 l 53 803 l 53 849 l 417 849 m 403 783 q 340 781 368 783 q 293 775 311 778 l 293 81 q 456 57 358 57 q 615 121 561 57 q 687 274 668 185 q 706 442 706 364 q 628 690 706 596 q 403 783 550 783 m 1322 608 l 1046 608 l 1024 503 l 972 503 l 954 682 l 1450 682 l 1474 636 l 1082 71 l 1372 71 l 1415 181 l 1464 181 l 1451 0 l 960 0 l 938 47 l 1322 608 m 1058 993 l 1208 868 l 1357 993 l 1386 968 l 1250 775 l 1167 775 l 1028 968 l 1058 993 z "},"E":{"ha":756,"x_min":54,"x_max":692,"o":"m 532 540 l 582 540 l 582 289 l 532 289 l 499 385 l 301 385 l 301 78 l 601 78 l 638 204 l 692 204 l 692 0 l 54 0 l 54 46 l 186 74 l 186 775 l 54 803 l 54 849 l 657 849 l 657 665 l 603 665 l 574 776 l 301 776 l 301 449 l 503 449 l 532 540 z "},"É":{"ha":756,"x_min":54,"x_max":692,"o":"m 54 0 l 54 46 l 186 74 l 186 775 l 54 803 l 54 849 l 657 849 l 657 665 l 603 665 l 574 776 l 301 776 l 301 449 l 503 449 l 532 540 l 582 540 l 582 289 l 532 289 l 499 385 l 301 385 l 301 78 l 601 78 l 638 204 l 692 204 l 692 0 l 54 0 m 290 903 l 268 929 l 482 1110 l 588 1071 l 588 1046 l 290 903 z "},"Ĕ":{"ha":756,"x_min":54,"x_max":692,"o":"m 532 540 l 582 540 l 582 289 l 532 289 l 499 385 l 301 385 l 301 78 l 601 78 l 638 204 l 692 204 l 692 0 l 54 0 l 54 46 l 186 74 l 186 775 l 54 803 l 54 849 l 657 849 l 657 665 l 603 665 l 574 776 l 301 776 l 301 449 l 503 449 l 532 540 z "},"Ě":{"ha":756,"x_min":54,"x_max":692,"o":"m 54 0 l 54 46 l 186 74 l 186 775 l 54 803 l 54 849 l 657 849 l 657 665 l 603 665 l 574 776 l 301 776 l 301 449 l 503 449 l 532 540 l 582 540 l 582 289 l 532 289 l 499 385 l 301 385 l 301 78 l 601 78 l 638 204 l 692 204 l 692 0 l 54 0 m 357 904 l 215 1086 l 239 1111 l 400 997 l 554 1111 l 579 1086 l 440 904 l 357 904 z "},"Ê":{"ha":756,"x_min":54,"x_max":692,"o":"m 532 540 l 582 540 l 582 289 l 532 289 l 499 385 l 301 385 l 301 78 l 601 78 l 638 204 l 692 204 l 692 0 l 54 0 l 54 46 l 186 74 l 186 775 l 54 803 l 54 849 l 657 849 l 657 665 l 603 665 l 574 776 l 301 776 l 301 449 l 503 449 l 532 540 m 546 904 l 385 1018 l 231 904 l 207 929 l 346 1111 l 429 1111 l 571 929 l 546 904 z "},"Ế":{"ha":756,"x_min":54,"x_max":771,"o":"m 532 540 l 582 540 l 582 289 l 532 289 l 499 385 l 301 385 l 301 78 l 601 78 l 638 204 l 692 204 l 692 0 l 54 0 l 54 46 l 186 74 l 186 775 l 54 803 l 54 849 l 657 849 l 657 665 l 603 665 l 574 776 l 301 776 l 301 449 l 503 449 l 532 540 m 539 968 l 511 986 l 649 1229 l 763 1229 l 771 1206 l 539 968 m 507 904 l 346 1018 l 192 904 l 168 929 l 307 1111 l 390 1111 l 532 929 l 507 904 z "},"Ệ":{"ha":756,"x_min":54,"x_max":692,"o":"m 532 540 l 582 540 l 582 289 l 532 289 l 499 385 l 301 385 l 301 78 l 601 78 l 638 204 l 692 204 l 692 0 l 54 0 l 54 46 l 186 74 l 186 775 l 54 803 l 54 849 l 657 849 l 657 665 l 603 665 l 574 776 l 301 776 l 301 449 l 503 449 l 532 540 m 461 -140 q 435 -197 461 -175 q 378 -219 410 -219 q 319 -197 344 -219 q 294 -140 294 -175 q 319 -81 294 -106 q 378 -57 344 -57 q 435 -81 410 -57 q 461 -140 461 -106 z "},"Ề":{"ha":756,"x_min":54,"x_max":692,"o":"m 532 540 l 582 540 l 582 289 l 532 289 l 499 385 l 301 385 l 301 78 l 601 78 l 638 204 l 692 204 l 692 0 l 54 0 l 54 46 l 186 74 l 186 775 l 54 803 l 54 849 l 657 849 l 657 665 l 603 665 l 574 776 l 301 776 l 301 449 l 503 449 l 532 540 m 594 968 l 363 1206 l 371 1229 l 485 1229 l 622 986 l 594 968 m 507 904 l 346 1018 l 192 904 l 168 929 l 307 1111 l 390 1111 l 532 929 l 507 904 z "},"Ể":{"ha":756,"x_min":54,"x_max":692,"o":"m 532 540 l 582 540 l 582 289 l 532 289 l 499 385 l 301 385 l 301 78 l 601 78 l 638 204 l 692 204 l 692 0 l 54 0 l 54 46 l 186 74 l 186 775 l 54 803 l 54 849 l 657 849 l 657 665 l 603 665 l 574 776 l 301 776 l 301 449 l 503 449 l 532 540 m 651 1161 q 629 1115 651 1138 q 540 1088 607 1093 l 572 1115 l 557 1056 l 504 1056 l 499 1111 q 560 1124 543 1111 q 576 1156 576 1136 q 528 1193 576 1193 q 494 1190 515 1193 q 447 1183 472 1188 l 439 1221 q 533 1229 490 1229 q 651 1161 651 1229 m 447 1147 l 439 1221 l 488 1222 l 501 1197 l 489 1147 l 447 1147 z "},"Ễ":{"ha":756,"x_min":54,"x_max":692,"o":"m 532 540 l 582 540 l 582 289 l 532 289 l 499 385 l 301 385 l 301 78 l 601 78 l 638 204 l 692 204 l 692 0 l 54 0 l 54 46 l 186 74 l 186 775 l 54 803 l 54 849 l 657 849 l 657 665 l 603 665 l 574 776 l 301 776 l 301 449 l 503 449 l 532 540 z "},"Ȅ":{"ha":756,"x_min":54,"x_max":692,"o":"m 532 540 l 582 540 l 582 289 l 532 289 l 499 385 l 301 385 l 301 78 l 601 78 l 638 204 l 692 204 l 692 0 l 54 0 l 54 46 l 186 74 l 186 775 l 54 803 l 54 849 l 657 849 l 657 665 l 603 665 l 574 776 l 301 776 l 301 449 l 503 449 l 532 540 m 493 906 l 315 1088 l 315 1111 l 419 1111 l 524 926 l 493 906 m 268 906 l 92 1088 l 92 1111 l 196 1111 l 300 926 l 268 906 z "},"Ë":{"ha":756,"x_min":54,"x_max":692,"o":"m 532 540 l 582 540 l 582 289 l 532 289 l 499 385 l 301 385 l 301 78 l 601 78 l 638 204 l 692 204 l 692 0 l 54 0 l 54 46 l 186 74 l 186 775 l 54 803 l 54 849 l 657 849 l 657 665 l 603 665 l 574 776 l 301 776 l 301 449 l 503 449 l 532 540 m 339 1003 q 315 949 339 972 q 260 926 292 926 q 204 949 228 926 q 181 1003 181 972 q 204 1060 181 1036 q 260 1083 228 1083 q 315 1060 292 1083 q 339 1003 339 1036 m 610 1003 q 585 949 610 972 q 529 926 561 926 q 474 949 497 926 q 450 1003 450 972 q 474 1060 450 1036 q 529 1083 497 1083 q 585 1060 561 1083 q 610 1003 610 1036 z "},"Ė":{"ha":756,"x_min":54,"x_max":692,"o":"m 532 540 l 582 540 l 582 289 l 532 289 l 499 385 l 301 385 l 301 78 l 601 78 l 638 204 l 692 204 l 692 0 l 54 0 l 54 46 l 186 74 l 186 775 l 54 803 l 54 849 l 657 849 l 657 665 l 603 665 l 574 776 l 301 776 l 301 449 l 503 449 l 532 540 m 494 1007 q 469 950 494 972 q 411 928 443 928 q 353 950 378 928 q 328 1007 328 972 q 353 1066 328 1042 q 411 1090 378 1090 q 469 1066 443 1090 q 494 1007 494 1042 z "},"Ẹ":{"ha":756,"x_min":54,"x_max":692,"o":"m 532 540 l 582 540 l 582 289 l 532 289 l 499 385 l 301 385 l 301 78 l 601 78 l 638 204 l 692 204 l 692 0 l 54 0 l 54 46 l 186 74 l 186 775 l 54 803 l 54 849 l 657 849 l 657 665 l 603 665 l 574 776 l 301 776 l 301 449 l 503 449 l 532 540 m 461 -140 q 435 -197 461 -175 q 378 -219 410 -219 q 319 -197 344 -219 q 294 -140 294 -175 q 319 -81 294 -106 q 378 -57 344 -57 q 435 -81 410 -57 q 461 -140 461 -106 z "},"È":{"ha":756,"x_min":54,"x_max":692,"o":"m 54 0 l 54 46 l 186 74 l 186 775 l 54 803 l 54 849 l 657 849 l 657 665 l 603 665 l 574 776 l 301 776 l 301 449 l 503 449 l 532 540 l 582 540 l 582 289 l 532 289 l 499 385 l 301 385 l 301 78 l 601 78 l 638 204 l 692 204 l 692 0 l 54 0 m 538 903 l 238 1046 l 238 1071 l 344 1110 l 557 929 l 538 903 z "},"Ẻ":{"ha":756,"x_min":54,"x_max":692,"o":"m 532 540 l 582 540 l 582 289 l 532 289 l 499 385 l 301 385 l 301 78 l 601 78 l 638 204 l 692 204 l 692 0 l 54 0 l 54 46 l 186 74 l 186 775 l 54 803 l 54 849 l 657 849 l 657 665 l 603 665 l 574 776 l 301 776 l 301 449 l 503 449 l 532 540 m 513 1044 q 490 999 513 1021 q 401 971 468 976 l 433 999 l 418 939 l 365 939 l 360 994 q 421 1007 404 994 q 438 1039 438 1019 q 389 1076 438 1076 q 355 1074 376 1076 q 308 1067 333 1071 l 300 1104 q 394 1113 351 1113 q 513 1044 513 1113 m 308 1031 l 300 1104 l 349 1106 l 363 1081 l 350 1031 l 308 1031 z "},"Ȇ":{"ha":756,"x_min":54,"x_max":692,"o":"m 532 540 l 582 540 l 582 289 l 532 289 l 499 385 l 301 385 l 301 78 l 601 78 l 638 204 l 692 204 l 692 0 l 54 0 l 54 46 l 186 74 l 186 775 l 54 803 l 54 849 l 657 849 l 657 665 l 603 665 l 574 776 l 301 776 l 301 449 l 503 449 l 532 540 m 376 1092 q 507 1043 474 1092 q 540 933 540 994 l 493 931 q 472 990 493 964 q 379 1017 450 1017 q 284 990 307 1017 q 261 931 261 964 l 215 933 q 248 1043 215 994 q 376 1092 281 1092 z "},"Ē":{"ha":756,"x_min":54,"x_max":692,"o":"m 532 540 l 582 540 l 582 289 l 532 289 l 499 385 l 301 385 l 301 78 l 601 78 l 638 204 l 692 204 l 692 0 l 54 0 l 54 46 l 186 74 l 186 775 l 54 803 l 54 849 l 657 849 l 657 665 l 603 665 l 574 776 l 301 776 l 301 449 l 503 449 l 532 540 m 239 1040 l 540 1040 l 540 968 l 239 968 l 239 1040 z "},"Ę":{"ha":756,"x_min":54,"x_max":715,"o":"m 585 -328 q 485 -291 515 -328 q 454 -210 454 -254 q 485 -111 454 -167 q 585 0 515 -56 l 54 0 l 54 46 l 186 74 l 186 775 l 54 803 l 54 849 l 657 849 l 657 665 l 603 665 l 574 776 l 301 776 l 301 449 l 503 449 l 532 540 l 582 540 l 582 289 l 532 289 l 499 385 l 301 385 l 301 78 l 601 78 l 638 204 l 692 204 l 692 0 l 632 0 q 574 -82 600 -32 q 547 -185 547 -132 q 624 -267 547 -267 q 693 -236 663 -267 l 715 -258 q 683 -293 715 -258 q 585 -328 651 -328 z "},"Ẽ":{"ha":756,"x_min":54,"x_max":692,"o":"m 532 540 l 582 540 l 582 289 l 532 289 l 499 385 l 301 385 l 301 78 l 601 78 l 638 204 l 692 204 l 692 0 l 54 0 l 54 46 l 186 74 l 186 775 l 54 803 l 54 849 l 657 849 l 657 665 l 603 665 l 574 776 l 301 776 l 301 449 l 503 449 l 532 540 m 603 1100 q 558 1009 581 1047 q 501 971 535 971 q 403 999 467 971 q 304 1026 339 1026 q 261 1001 281 1026 q 242 976 242 976 l 200 993 q 245 1085 222 1047 q 303 1124 268 1124 q 401 1096 339 1124 q 500 1068 464 1068 q 542 1092 524 1068 q 560 1117 560 1117 l 603 1100 z "},"F":{"ha":692,"x_min":53,"x_max":657,"o":"m 657 849 l 657 665 l 603 665 l 574 776 l 301 776 l 301 435 l 503 435 l 532 526 l 582 526 l 582 275 l 532 275 l 499 371 l 301 371 l 301 75 l 458 47 l 458 0 l 53 0 l 53 46 l 185 74 l 185 775 l 53 803 l 53 849 l 657 849 z "},"G":{"ha":833,"x_min":57,"x_max":819,"o":"m 622 788 q 559 799 596 794 q 481 803 522 803 q 292 742 356 803 q 205 595 228 682 q 182 429 182 508 q 205 263 182 350 q 292 113 228 175 q 476 51 356 51 q 544 58 513 51 q 606 78 576 64 l 606 325 l 482 353 l 482 400 l 819 400 l 819 353 l 721 325 l 721 43 q 610 0 674 15 q 471 -15 547 -15 q 226 46 317 -15 q 97 208 136 107 q 57 429 57 308 q 151 741 57 611 q 481 871 246 871 q 608 861 536 871 q 728 829 681 851 l 708 653 l 656 653 l 622 788 z "},"Ǵ":{"ha":833,"x_min":57,"x_max":819,"o":"m 622 788 q 559 799 596 794 q 481 803 522 803 q 292 742 356 803 q 205 595 228 682 q 182 429 182 508 q 205 263 182 350 q 292 113 228 175 q 476 51 356 51 q 544 58 513 51 q 606 78 576 64 l 606 325 l 482 353 l 482 400 l 819 400 l 819 353 l 721 325 l 721 43 q 610 0 674 15 q 471 -15 547 -15 q 226 46 317 -15 q 97 208 136 107 q 57 429 57 308 q 151 741 57 611 q 481 871 246 871 q 608 861 536 871 q 728 829 681 851 l 708 653 l 656 653 l 622 788 z "},"Ğ":{"ha":807,"x_min":57,"x_max":819,"o":"m 622 788 q 559 799 596 794 q 481 803 522 803 q 292 742 356 803 q 205 595 228 682 q 182 429 182 508 q 205 263 182 350 q 292 113 228 175 q 476 51 356 51 q 544 58 513 51 q 606 78 576 64 l 606 325 l 482 353 l 482 400 l 819 400 l 819 353 l 721 325 l 721 43 q 610 0 674 15 q 471 -15 547 -15 q 226 46 317 -15 q 97 208 136 107 q 57 429 57 308 q 151 741 57 611 q 481 871 246 871 q 608 861 536 871 q 728 829 681 851 l 708 653 l 656 653 l 622 788 m 446 924 q 315 972 349 924 q 282 1082 282 1021 l 329 1085 q 351 1025 329 1051 q 443 999 372 999 q 539 1025 517 999 q 561 1085 561 1051 l 607 1082 q 574 972 607 1021 q 446 924 542 924 z "},"Ǧ":{"ha":833,"x_min":57,"x_max":819,"o":"m 622 788 q 559 799 596 794 q 481 803 522 803 q 292 742 356 803 q 205 595 228 682 q 182 429 182 508 q 205 263 182 350 q 292 113 228 175 q 476 51 356 51 q 544 58 513 51 q 606 78 576 64 l 606 325 l 482 353 l 482 400 l 819 400 l 819 353 l 721 325 l 721 43 q 610 0 674 15 q 471 -15 547 -15 q 226 46 317 -15 q 97 208 136 107 q 57 429 57 308 q 151 741 57 611 q 481 871 246 871 q 608 861 536 871 q 728 829 681 851 l 708 653 l 656 653 l 622 788 z "},"Ĝ":{"ha":833,"x_min":57,"x_max":819,"o":"m 622 788 q 559 799 596 794 q 481 803 522 803 q 292 742 356 803 q 205 595 228 682 q 182 429 182 508 q 205 263 182 350 q 292 113 228 175 q 476 51 356 51 q 544 58 513 51 q 606 78 576 64 l 606 325 l 482 353 l 482 400 l 819 400 l 819 353 l 721 325 l 721 43 q 610 0 674 15 q 471 -15 547 -15 q 226 46 317 -15 q 97 208 136 107 q 57 429 57 308 q 151 741 57 611 q 481 871 246 871 q 608 861 536 871 q 728 829 681 851 l 708 653 l 656 653 l 622 788 z "},"Ģ":{"ha":807,"x_min":57,"x_max":819,"o":"m 471 -15 q 226 46 317 -15 q 97 208 136 107 q 57 429 57 308 q 151 741 57 611 q 481 871 246 871 q 608 861 536 871 q 728 829 681 851 l 708 653 l 656 653 l 622 788 q 559 799 596 794 q 481 803 522 803 q 292 742 356 803 q 205 595 228 682 q 182 429 182 508 q 205 263 182 350 q 292 113 228 175 q 476 51 356 51 q 544 58 513 51 q 606 78 576 64 l 606 325 l 482 353 l 482 400 l 819 400 l 819 353 l 721 325 l 721 43 q 610 0 674 15 q 471 -15 547 -15 m 385 -307 l 404 -60 l 501 -39 l 519 -58 l 431 -307 l 385 -307 z "},"Ġ":{"ha":833,"x_min":57,"x_max":819,"o":"m 622 788 q 559 799 596 794 q 481 803 522 803 q 292 742 356 803 q 205 595 228 682 q 182 429 182 508 q 205 263 182 350 q 292 113 228 175 q 476 51 356 51 q 544 58 513 51 q 606 78 576 64 l 606 325 l 482 353 l 482 400 l 819 400 l 819 353 l 721 325 l 721 43 q 610 0 674 15 q 471 -15 547 -15 q 226 46 317 -15 q 97 208 136 107 q 57 429 57 308 q 151 741 57 611 q 481 871 246 871 q 608 861 536 871 q 728 829 681 851 l 708 653 l 656 653 l 622 788 z "},"H":{"ha":1004,"x_min":54,"x_max":953,"o":"m 54 0 l 54 46 l 178 74 l 178 776 l 54 803 l 54 849 l 417 849 l 417 803 l 293 776 l 293 457 l 713 457 l 713 776 l 589 803 l 589 849 l 951 849 l 951 803 l 828 776 l 828 74 l 953 46 l 953 0 l 589 0 l 589 46 l 713 74 l 713 389 l 293 389 l 293 74 l 417 46 l 417 0 l 54 0 z "},"Ħ":{"ha":1004,"x_min":54,"x_max":953,"o":"m 54 0 l 54 46 l 178 74 l 178 776 l 54 803 l 54 849 l 417 849 l 417 803 l 293 776 l 293 415 l 713 415 l 713 776 l 589 803 l 589 849 l 951 849 l 951 803 l 828 776 l 828 74 l 953 46 l 953 0 l 589 0 l 589 46 l 713 74 l 713 347 l 293 347 l 293 74 l 417 46 l 417 0 l 54 0 m 58 546 l 58 610 l 947 610 l 947 546 l 58 546 z "},"Ĥ":{"ha":1004,"x_min":54,"x_max":953,"o":"m 54 0 l 54 46 l 178 74 l 178 776 l 54 803 l 54 849 l 417 849 l 417 803 l 293 776 l 293 457 l 713 457 l 713 776 l 589 803 l 589 849 l 951 849 l 951 803 l 828 776 l 828 74 l 953 46 l 953 0 l 589 0 l 589 46 l 713 74 l 713 389 l 293 389 l 293 74 l 417 46 l 417 0 l 54 0 z "},"Ḥ":{"ha":1004,"x_min":54,"x_max":953,"o":"m 54 0 l 54 46 l 178 74 l 178 776 l 54 803 l 54 849 l 417 849 l 417 803 l 293 776 l 293 457 l 713 457 l 713 776 l 589 803 l 589 849 l 951 849 l 951 803 l 828 776 l 828 74 l 953 46 l 953 0 l 589 0 l 589 46 l 713 74 l 713 389 l 293 389 l 293 74 l 417 46 l 417 0 l 54 0 m 586 -140 q 560 -197 586 -175 q 503 -219 535 -219 q 444 -197 469 -219 q 419 -140 419 -175 q 444 -81 419 -106 q 503 -57 469 -57 q 560 -81 535 -57 q 586 -140 586 -106 z "},"I":{"ha":471,"x_min":53,"x_max":418,"o":"m 53 0 l 53 46 l 178 74 l 178 775 l 53 803 l 53 849 l 418 849 l 418 803 l 293 775 l 293 74 l 418 46 l 418 0 l 53 0 z "},"Ĳ":{"ha":864,"x_min":53,"x_max":846,"o":"m 53 0 l 53 46 l 178 74 l 178 775 l 53 803 l 53 849 l 418 849 l 418 803 l 293 775 l 293 74 l 418 46 l 418 0 l 53 0 m 535 -207 q 453 -196 486 -207 q 396 -169 419 -185 l 401 -131 l 504 -131 q 590 -82 571 -131 q 608 42 608 -33 l 608 775 l 485 803 l 485 849 l 846 849 l 846 803 l 724 775 l 724 88 q 675 -146 724 -85 q 535 -207 626 -207 z "},"Í":{"ha":471,"x_min":53,"x_max":418,"o":"m 53 0 l 53 46 l 178 74 l 178 775 l 53 803 l 53 849 l 418 849 l 418 803 l 293 775 l 293 74 l 418 46 l 418 0 l 53 0 m 101 903 l 79 929 l 293 1110 l 399 1071 l 399 1046 l 101 903 z "},"Ĭ":{"ha":471,"x_min":53,"x_max":418,"o":"m 53 0 l 53 46 l 178 74 l 178 775 l 53 803 l 53 849 l 418 849 l 418 803 l 293 775 l 293 74 l 418 46 l 418 0 l 53 0 z "},"Ǐ":{"ha":471,"x_min":53,"x_max":418,"o":"m 53 0 l 53 46 l 178 74 l 178 775 l 53 803 l 53 849 l 418 849 l 418 803 l 293 775 l 293 74 l 418 46 l 418 0 l 53 0 z "},"Î":{"ha":471,"x_min":53,"x_max":418,"o":"m 53 0 l 53 46 l 178 74 l 178 775 l 53 803 l 53 849 l 418 849 l 418 803 l 293 775 l 293 74 l 418 46 l 418 0 l 53 0 m 76 904 l 53 929 l 192 1111 l 275 1111 l 417 929 l 392 904 l 231 1018 l 76 904 z "},"Ȉ":{"ha":471,"x_min":-50,"x_max":418,"o":"m 53 0 l 53 46 l 178 74 l 178 775 l 53 803 l 53 849 l 418 849 l 418 803 l 293 775 l 293 74 l 418 46 l 418 0 l 53 0 m 351 906 l 174 1088 l 174 1111 l 278 1111 l 382 926 l 351 906 m 126 906 l -50 1088 l -50 1111 l 54 1111 l 158 926 l 126 906 z "},"Ï":{"ha":471,"x_min":22,"x_max":451,"o":"m 53 0 l 53 46 l 178 74 l 178 775 l 53 803 l 53 849 l 418 849 l 418 803 l 293 775 l 293 74 l 418 46 l 418 0 l 53 0 m 101 926 q 46 949 69 926 q 22 1003 22 972 q 46 1060 22 1036 q 101 1083 69 1083 q 157 1060 133 1083 q 181 1003 181 1036 q 157 949 181 972 q 101 926 133 926 m 371 926 q 315 949 339 926 q 292 1003 292 972 q 315 1060 292 1036 q 371 1083 339 1083 q 427 1060 403 1083 q 451 1003 451 1036 q 427 949 451 972 q 371 926 403 926 z "},"İ":{"ha":471,"x_min":53,"x_max":418,"o":"m 53 0 l 53 46 l 178 74 l 178 775 l 53 803 l 53 849 l 418 849 l 418 803 l 293 775 l 293 74 l 418 46 l 418 0 l 53 0 m 235 928 q 176 950 201 928 q 151 1007 151 972 q 176 1066 151 1042 q 235 1090 201 1090 q 292 1066 267 1090 q 318 1007 318 1042 q 292 950 318 972 q 235 928 267 928 z "},"Ị":{"ha":471,"x_min":53,"x_max":418,"o":"m 53 0 l 53 46 l 178 74 l 178 775 l 53 803 l 53 849 l 418 849 l 418 803 l 293 775 l 293 74 l 418 46 l 418 0 l 53 0 m 319 -140 q 294 -197 319 -175 q 236 -219 268 -219 q 178 -197 203 -219 q 153 -140 153 -175 q 178 -81 153 -106 q 236 -57 203 -57 q 294 -81 268 -57 q 319 -140 319 -106 z "},"Ì":{"ha":471,"x_min":53,"x_max":418,"o":"m 53 0 l 53 46 l 178 74 l 178 775 l 53 803 l 53 849 l 418 849 l 418 803 l 293 775 l 293 74 l 418 46 l 418 0 l 53 0 m 374 903 l 74 1046 l 74 1071 l 181 1110 l 393 929 l 374 903 z "},"Ỉ":{"ha":471,"x_min":53,"x_max":418,"o":"m 53 0 l 53 46 l 178 74 l 178 775 l 53 803 l 53 849 l 418 849 l 418 803 l 293 775 l 293 74 l 418 46 l 418 0 l 53 0 m 371 1044 q 349 999 371 1021 q 260 971 326 976 l 292 999 l 276 939 l 224 939 l 218 994 q 279 1007 263 994 q 296 1039 296 1019 q 247 1076 296 1076 q 213 1074 235 1076 q 167 1067 192 1071 l 158 1104 q 253 1113 210 1113 q 371 1044 371 1113 m 167 1031 l 158 1104 l 207 1106 l 221 1081 l 208 1031 l 167 1031 z "},"Ȋ":{"ha":471,"x_min":53,"x_max":418,"o":"m 53 0 l 53 46 l 178 74 l 178 775 l 53 803 l 53 849 l 418 849 l 418 803 l 293 775 l 293 74 l 418 46 l 418 0 l 53 0 m 235 1092 q 365 1043 332 1092 q 399 933 399 994 l 351 931 q 330 990 351 964 q 238 1017 308 1017 q 142 990 165 1017 q 119 931 119 964 l 74 933 q 106 1043 74 994 q 235 1092 139 1092 z "},"Ī":{"ha":471,"x_min":53,"x_max":418,"o":"m 53 0 l 53 46 l 178 74 l 178 775 l 53 803 l 53 849 l 418 849 l 418 803 l 293 775 l 293 74 l 418 46 l 418 0 l 53 0 m 85 968 l 85 1040 l 386 1040 l 386 968 l 85 968 z "},"Į":{"ha":471,"x_min":53,"x_max":418,"o":"m 288 -328 q 187 -291 218 -328 q 156 -210 156 -254 q 197 -94 156 -151 q 310 0 238 -37 l 53 0 l 53 46 l 178 74 l 178 775 l 53 803 l 53 849 l 418 849 l 418 803 l 293 775 l 293 74 l 418 46 l 418 0 q 285 -78 321 -25 q 250 -185 250 -132 q 325 -267 250 -267 q 361 -260 343 -267 q 394 -236 379 -253 l 418 -258 q 386 -293 418 -258 q 288 -328 354 -328 z "},"Ĩ":{"ha":471,"x_min":35,"x_max":438,"o":"m 53 0 l 53 46 l 178 74 l 178 775 l 53 803 l 53 849 l 418 849 l 418 803 l 293 775 l 293 74 l 418 46 l 418 0 l 53 0 m 336 971 q 237 999 300 971 q 139 1026 174 1026 q 97 1001 117 1026 q 76 976 76 976 l 35 993 q 80 1085 57 1047 q 138 1124 103 1124 q 235 1096 172 1124 q 335 1068 299 1068 q 376 1092 358 1068 q 394 1117 394 1117 l 438 1100 q 392 1009 415 1047 q 336 971 369 971 z "},"J":{"ha":406,"x_min":-62,"x_max":388,"o":"m 76 -207 q -6 -196 28 -207 q -62 -169 -39 -185 l -57 -131 l 46 -131 q 131 -82 113 -131 q 150 42 150 -33 l 150 775 l 26 803 l 26 849 l 388 849 l 388 803 l 265 775 l 265 88 q 217 -146 265 -85 q 76 -207 168 -207 z "},"Ĵ":{"ha":406,"x_min":-62,"x_max":388,"o":"m 76 -207 q -6 -196 28 -207 q -62 -169 -39 -185 l -57 -131 l 46 -131 q 131 -82 113 -131 q 150 42 150 -33 l 150 775 l 26 803 l 26 849 l 388 849 l 388 803 l 265 775 l 265 88 q 217 -146 265 -85 q 76 -207 168 -207 z "},"K":{"ha":811,"x_min":53,"x_max":797,"o":"m 797 0 l 599 0 l 293 433 l 293 74 l 418 46 l 418 0 l 53 0 l 53 46 l 178 74 l 178 775 l 53 803 l 53 849 l 418 849 l 418 803 l 293 775 l 293 450 l 589 775 l 499 803 l 499 849 l 782 849 l 782 803 l 682 775 l 404 469 l 685 74 l 797 46 l 797 0 z "},"Ķ":{"ha":811,"x_min":53,"x_max":797,"o":"m 53 0 l 53 46 l 178 74 l 178 775 l 53 803 l 53 849 l 418 849 l 418 803 l 293 775 l 293 450 l 589 775 l 499 803 l 499 849 l 782 849 l 782 803 l 682 775 l 404 469 l 685 74 l 797 46 l 797 0 l 599 0 l 293 433 l 293 74 l 418 46 l 418 0 l 53 0 m 376 -307 l 397 -60 l 494 -39 l 513 -58 l 422 -307 l 376 -307 z "},"L":{"ha":664,"x_min":53,"x_max":647,"o":"m 647 0 l 53 0 l 53 46 l 178 74 l 178 775 l 53 803 l 53 849 l 418 849 l 418 803 l 293 775 l 293 78 l 560 78 l 594 204 l 647 204 l 647 0 z "},"Ǉ":{"ha":1069,"x_min":53,"x_max":1051,"o":"m 647 0 l 53 0 l 53 46 l 178 74 l 178 775 l 53 803 l 53 849 l 418 849 l 418 803 l 293 775 l 293 78 l 560 78 l 594 204 l 647 204 l 647 0 m 740 -207 q 658 -196 692 -207 q 601 -169 625 -185 l 607 -131 l 710 -131 q 795 -82 776 -131 q 814 42 814 -33 l 814 775 l 690 803 l 690 849 l 1051 849 l 1051 803 l 929 775 l 929 88 q 881 -146 929 -85 q 740 -207 832 -207 z "},"Ĺ":{"ha":664,"x_min":53,"x_max":647,"o":"m 647 0 l 53 0 l 53 46 l 178 74 l 178 775 l 53 803 l 53 849 l 418 849 l 418 803 l 293 775 l 293 78 l 560 78 l 594 204 l 647 204 l 647 0 m 153 903 l 131 929 l 344 1110 l 450 1071 l 450 1046 l 153 903 z "},"Ľ":{"ha":664,"x_min":44,"x_max":647,"o":"m 53 0 l 53 46 l 178 74 l 178 775 l 53 803 l 53 849 l 418 849 l 418 803 l 293 775 l 293 78 l 560 78 l 594 204 l 647 204 l 647 0 l 53 0 m 186 904 l 44 1086 l 68 1111 l 229 997 l 383 1111 l 408 1086 l 269 904 l 186 904 z "},"Ļ":{"ha":664,"x_min":53,"x_max":647,"o":"m 53 0 l 53 46 l 178 74 l 178 775 l 53 803 l 53 849 l 418 849 l 418 803 l 293 775 l 293 78 l 560 78 l 594 204 l 647 204 l 647 0 l 53 0 m 311 -307 l 332 -60 l 429 -39 l 447 -58 l 358 -307 l 311 -307 z "},"Ŀ":{"ha":664,"x_min":53,"x_max":647,"o":"m 647 0 l 53 0 l 53 46 l 178 74 l 178 775 l 53 803 l 53 849 l 418 849 l 418 803 l 293 775 l 293 78 l 560 78 l 594 204 l 647 204 l 647 0 m 640 603 q 618 546 640 569 q 560 522 596 522 q 505 546 528 522 q 482 603 482 569 q 505 660 482 639 q 560 682 528 682 q 618 660 596 682 q 640 603 640 639 z "},"ǈ":{"ha":1078,"x_min":53,"x_max":968,"o":"m 647 0 l 53 0 l 53 46 l 178 74 l 178 775 l 53 803 l 53 849 l 418 849 l 418 803 l 293 775 l 293 78 l 560 78 l 594 204 l 647 204 l 647 0 m 968 885 q 944 830 968 853 q 886 807 919 807 q 831 830 854 807 q 807 885 807 853 q 831 943 807 918 q 886 968 854 968 q 944 943 919 968 q 968 885 968 918 m 701 643 l 904 694 l 942 694 l 942 79 q 895 -165 942 -97 q 771 -232 849 -232 q 724 -225 754 -232 q 658 -200 693 -218 l 665 -157 l 729 -157 q 805 -112 785 -157 q 825 -28 825 -68 l 825 597 l 701 611 l 701 643 z "},"Ł":{"ha":664,"x_min":50,"x_max":647,"o":"m 53 0 l 53 46 l 178 74 l 178 357 l 81 303 l 50 354 l 178 428 l 178 775 l 53 803 l 53 849 l 418 849 l 418 803 l 293 775 l 293 493 l 431 572 l 464 518 l 293 422 l 293 78 l 560 78 l 594 204 l 647 204 l 647 0 l 53 0 z "},"M":{"ha":1103,"x_min":31,"x_max":1078,"o":"m 343 0 l 31 0 l 31 46 l 143 74 l 167 776 l 56 803 l 56 849 l 313 849 l 554 169 l 783 849 l 1049 849 l 1049 803 l 924 775 l 950 74 l 1078 46 l 1078 0 l 714 0 l 714 46 l 838 74 l 815 706 l 569 0 l 500 -14 l 240 710 l 219 74 l 343 46 l 343 0 z "},"N":{"ha":961,"x_min":50,"x_max":925,"o":"m 617 849 l 925 849 l 925 803 l 813 776 l 813 0 l 726 -14 l 242 678 l 242 74 l 361 46 l 361 0 l 50 0 l 50 46 l 161 74 l 161 776 l 50 803 l 50 849 l 256 849 l 735 181 l 735 776 l 617 803 l 617 849 z "},"Ǌ":{"ha":1367,"x_min":50,"x_max":1349,"o":"m 617 849 l 925 849 l 925 803 l 813 776 l 813 0 l 726 -14 l 242 678 l 242 74 l 361 46 l 361 0 l 50 0 l 50 46 l 161 74 l 161 776 l 50 803 l 50 849 l 256 849 l 735 181 l 735 776 l 617 803 l 617 849 m 1038 -207 q 956 -196 989 -207 q 899 -169 922 -185 l 904 -131 l 1007 -131 q 1092 -82 1074 -131 q 1111 42 1111 -33 l 1111 775 l 988 803 l 988 849 l 1349 849 l 1349 803 l 1226 775 l 1226 88 q 1178 -146 1226 -85 q 1038 -207 1129 -207 z "},"Ń":{"ha":964,"x_min":47,"x_max":922,"o":"m 614 849 l 922 849 l 922 803 l 810 776 l 810 0 l 724 -14 l 239 678 l 239 74 l 358 46 l 358 0 l 47 0 l 47 46 l 158 74 l 158 776 l 47 803 l 47 849 l 253 849 l 732 181 l 732 776 l 614 803 l 614 849 m 369 903 l 347 929 l 561 1110 l 667 1071 l 667 1046 l 369 903 z "},"Ň":{"ha":964,"x_min":47,"x_max":922,"o":"m 724 -14 l 239 678 l 239 74 l 358 46 l 358 0 l 47 0 l 47 46 l 158 74 l 158 776 l 47 803 l 47 849 l 253 849 l 732 181 l 732 776 l 614 803 l 614 849 l 922 849 l 922 803 l 810 776 l 810 0 l 724 -14 m 450 904 l 308 1086 l 332 1111 l 493 997 l 647 1111 l 672 1086 l 533 904 l 450 904 z "},"Ņ":{"ha":964,"x_min":47,"x_max":922,"o":"m 724 -14 l 239 678 l 239 74 l 358 46 l 358 0 l 47 0 l 47 46 l 158 74 l 158 776 l 47 803 l 47 849 l 253 849 l 732 181 l 732 776 l 614 803 l 614 849 l 922 849 l 922 803 l 810 776 l 810 0 l 724 -14 m 429 -307 l 449 -60 l 546 -39 l 565 -58 l 475 -307 l 429 -307 z "},"Ṅ":{"ha":961,"x_min":50,"x_max":925,"o":"m 617 849 l 925 849 l 925 803 l 813 776 l 813 0 l 726 -14 l 242 678 l 242 74 l 361 46 l 361 0 l 50 0 l 50 46 l 161 74 l 161 776 l 50 803 l 50 849 l 256 849 l 735 181 l 735 776 l 617 803 l 617 849 z "},"Ŋ":{"ha":961,"x_min":50,"x_max":925,"o":"m 642 -232 q 594 -225 625 -232 q 529 -200 564 -218 l 536 -157 l 600 -157 q 676 -112 656 -157 q 696 -28 696 -68 l 696 29 l 242 678 l 242 74 l 361 46 l 361 0 l 50 0 l 50 46 l 161 74 l 161 776 l 50 803 l 50 849 l 256 849 l 735 181 l 735 776 l 617 803 l 617 849 l 925 849 l 925 803 l 813 776 l 813 79 q 766 -165 813 -97 q 642 -232 719 -232 z "},"Ɲ":{"ha":961,"x_min":-6,"x_max":925,"o":"m 617 849 l 925 849 l 925 803 l 813 776 l 813 0 l 726 -14 l 242 678 l 242 10 q 203 -180 242 -128 q 111 -232 165 -232 q 60 -225 90 -232 q -6 -200 29 -218 l 1 -157 l 65 -157 q 141 -112 121 -157 q 161 -28 161 -68 l 161 776 l 50 803 l 50 849 l 256 849 l 735 181 l 735 776 l 617 803 l 617 849 z "},"ǋ":{"ha":1375,"x_min":50,"x_max":1265,"o":"m 617 849 l 925 849 l 925 803 l 813 776 l 813 0 l 726 -14 l 242 678 l 242 74 l 361 46 l 361 0 l 50 0 l 50 46 l 161 74 l 161 776 l 50 803 l 50 849 l 256 849 l 735 181 l 735 776 l 617 803 l 617 849 m 1265 885 q 1241 830 1265 853 q 1183 807 1217 807 q 1128 830 1151 807 q 1104 885 1104 853 q 1128 943 1104 918 q 1183 968 1151 968 q 1241 943 1217 968 q 1265 885 1265 918 m 999 643 l 1201 694 l 1239 694 l 1239 79 q 1192 -165 1239 -97 q 1068 -232 1146 -232 q 1021 -225 1051 -232 q 956 -200 990 -218 l 963 -157 l 1026 -157 q 1102 -112 1082 -157 q 1122 -28 1122 -68 l 1122 597 l 999 611 l 999 643 z "},"Ñ":{"ha":964,"x_min":47,"x_max":922,"o":"m 614 849 l 922 849 l 922 803 l 810 776 l 810 0 l 724 -14 l 239 678 l 239 74 l 358 46 l 358 0 l 47 0 l 47 46 l 158 74 l 158 776 l 47 803 l 47 849 l 253 849 l 732 181 l 732 776 l 614 803 l 614 849 m 696 1058 q 651 967 674 1006 q 594 929 628 929 q 495 957 558 929 q 397 985 432 985 q 355 960 375 985 q 335 935 335 935 l 293 951 q 338 1044 315 1006 q 396 1082 361 1082 q 494 1054 431 1082 q 593 1026 557 1026 q 635 1051 617 1026 q 653 1075 653 1075 l 696 1058 z "},"O":{"ha":914,"x_min":57,"x_max":857,"o":"m 458 869 q 766 739 675 869 q 857 428 857 608 q 765 117 857 247 q 458 -12 672 -12 q 151 117 244 -12 q 57 428 57 247 q 149 739 57 608 q 458 869 242 869 m 732 428 q 710 593 732 506 q 627 742 688 681 q 450 803 567 803 q 281 742 339 803 q 202 593 222 681 q 182 428 182 506 q 204 263 182 350 q 287 115 226 176 q 463 54 347 54 q 634 115 576 54 q 712 263 692 176 q 732 428 732 350 z "},"Ó":{"ha":914,"x_min":57,"x_max":857,"o":"m 458 869 q 766 739 675 869 q 857 428 857 608 q 765 117 857 247 q 458 -12 672 -12 q 151 117 244 -12 q 57 428 57 247 q 149 739 57 608 q 458 869 242 869 m 732 428 q 710 593 732 506 q 627 742 688 681 q 450 803 567 803 q 281 742 339 803 q 202 593 222 681 q 182 428 182 506 q 204 263 182 350 q 287 115 226 176 q 463 54 347 54 q 634 115 576 54 q 712 263 692 176 q 732 428 732 350 m 393 903 l 371 929 l 585 1110 l 690 1071 l 690 1046 l 393 903 z "},"Ŏ":{"ha":914,"x_min":57,"x_max":857,"o":"m 458 869 q 766 739 675 869 q 857 428 857 608 q 765 117 857 247 q 458 -12 672 -12 q 151 117 244 -12 q 57 428 57 247 q 149 739 57 608 q 458 869 242 869 m 732 428 q 710 593 732 506 q 627 742 688 681 q 450 803 567 803 q 281 742 339 803 q 202 593 222 681 q 182 428 182 506 q 204 263 182 350 q 287 115 226 176 q 463 54 347 54 q 634 115 576 54 q 712 263 692 176 q 732 428 732 350 z "},"Ǒ":{"ha":914,"x_min":57,"x_max":857,"o":"m 458 869 q 766 739 675 869 q 857 428 857 608 q 765 117 857 247 q 458 -12 672 -12 q 151 117 244 -12 q 57 428 57 247 q 149 739 57 608 q 458 869 242 869 m 732 428 q 710 593 732 506 q 627 742 688 681 q 450 803 567 803 q 281 742 339 803 q 202 593 222 681 q 182 428 182 506 q 204 263 182 350 q 287 115 226 176 q 463 54 347 54 q 634 115 576 54 q 712 263 692 176 q 732 428 732 350 z "},"Ô":{"ha":914,"x_min":57,"x_max":857,"o":"m 458 869 q 766 739 675 869 q 857 428 857 608 q 765 117 857 247 q 458 -12 672 -12 q 151 117 244 -12 q 57 428 57 247 q 149 739 57 608 q 458 869 242 869 m 732 428 q 710 593 732 506 q 627 742 688 681 q 450 803 567 803 q 281 742 339 803 q 202 593 222 681 q 182 428 182 506 q 204 263 182 350 q 287 115 226 176 q 463 54 347 54 q 634 115 576 54 q 712 263 692 176 q 732 428 732 350 m 615 904 l 454 1018 l 300 904 l 276 929 l 415 1111 l 499 1111 l 640 929 l 615 904 z "},"Ố":{"ha":914,"x_min":57,"x_max":857,"o":"m 458 869 q 766 739 675 869 q 857 428 857 608 q 765 117 857 247 q 458 -12 672 -12 q 151 117 244 -12 q 57 428 57 247 q 149 739 57 608 q 458 869 242 869 m 732 428 q 710 593 732 506 q 627 742 688 681 q 450 803 567 803 q 281 742 339 803 q 202 593 222 681 q 182 428 182 506 q 204 263 182 350 q 287 115 226 176 q 463 54 347 54 q 634 115 576 54 q 712 263 692 176 q 732 428 732 350 m 618 968 l 590 986 l 728 1229 l 842 1229 l 850 1206 l 618 968 m 586 904 l 425 1018 l 271 904 l 247 929 l 386 1111 l 469 1111 l 611 929 l 586 904 z "},"Ộ":{"ha":914,"x_min":57,"x_max":857,"o":"m 458 869 q 766 739 675 869 q 857 428 857 608 q 765 117 857 247 q 458 -12 672 -12 q 151 117 244 -12 q 57 428 57 247 q 149 739 57 608 q 458 869 242 869 m 732 428 q 710 593 732 506 q 627 742 688 681 q 450 803 567 803 q 281 742 339 803 q 202 593 222 681 q 182 428 182 506 q 204 263 182 350 q 287 115 226 176 q 463 54 347 54 q 634 115 576 54 q 712 263 692 176 q 732 428 732 350 m 540 -140 q 515 -197 540 -175 q 457 -219 489 -219 q 399 -197 424 -219 q 374 -140 374 -175 q 399 -81 374 -106 q 457 -57 424 -57 q 515 -81 489 -57 q 540 -140 540 -106 z "},"Ồ":{"ha":914,"x_min":57,"x_max":857,"o":"m 458 869 q 766 739 675 869 q 857 428 857 608 q 765 117 857 247 q 458 -12 672 -12 q 151 117 244 -12 q 57 428 57 247 q 149 739 57 608 q 458 869 242 869 m 732 428 q 710 593 732 506 q 627 742 688 681 q 450 803 567 803 q 281 742 339 803 q 202 593 222 681 q 182 428 182 506 q 204 263 182 350 q 287 115 226 176 q 463 54 347 54 q 634 115 576 54 q 712 263 692 176 q 732 428 732 350 m 674 968 l 442 1206 l 450 1229 l 564 1229 l 701 986 l 674 968 m 586 904 l 425 1018 l 271 904 l 247 929 l 386 1111 l 469 1111 l 611 929 l 586 904 z "},"Ổ":{"ha":914,"x_min":57,"x_max":857,"o":"m 458 869 q 766 739 675 869 q 857 428 857 608 q 765 117 857 247 q 458 -12 672 -12 q 151 117 244 -12 q 57 428 57 247 q 149 739 57 608 q 458 869 242 869 m 732 428 q 710 593 732 506 q 627 742 688 681 q 450 803 567 803 q 281 742 339 803 q 202 593 222 681 q 182 428 182 506 q 204 263 182 350 q 287 115 226 176 q 463 54 347 54 q 634 115 576 54 q 712 263 692 176 q 732 428 732 350 m 731 1161 q 708 1115 731 1138 q 619 1088 686 1093 l 651 1115 l 636 1056 l 583 1056 l 578 1111 q 639 1124 622 1111 q 656 1156 656 1136 q 607 1193 656 1193 q 573 1190 594 1193 q 526 1183 551 1188 l 518 1221 q 613 1229 569 1229 q 731 1161 731 1229 m 526 1147 l 518 1221 l 567 1222 l 581 1197 l 568 1147 l 526 1147 z "},"Ỗ":{"ha":914,"x_min":57,"x_max":857,"o":"m 458 869 q 766 739 675 869 q 857 428 857 608 q 765 117 857 247 q 458 -12 672 -12 q 151 117 244 -12 q 57 428 57 247 q 149 739 57 608 q 458 869 242 869 m 732 428 q 710 593 732 506 q 627 742 688 681 q 450 803 567 803 q 281 742 339 803 q 202 593 222 681 q 182 428 182 506 q 204 263 182 350 q 287 115 226 176 q 463 54 347 54 q 634 115 576 54 q 712 263 692 176 q 732 428 732 350 z "},"Ȍ":{"ha":914,"x_min":57,"x_max":857,"o":"m 458 869 q 766 739 675 869 q 857 428 857 608 q 765 117 857 247 q 458 -12 672 -12 q 151 117 244 -12 q 57 428 57 247 q 149 739 57 608 q 458 869 242 869 m 732 428 q 710 593 732 506 q 627 742 688 681 q 450 803 567 803 q 281 742 339 803 q 202 593 222 681 q 182 428 182 506 q 204 263 182 350 q 287 115 226 176 q 463 54 347 54 q 634 115 576 54 q 712 263 692 176 q 732 428 732 350 m 572 906 l 394 1088 l 394 1111 l 499 1111 l 603 926 l 572 906 m 347 906 l 171 1088 l 171 1111 l 275 1111 l 379 926 l 347 906 z "},"Ö":{"ha":914,"x_min":57,"x_max":857,"o":"m 458 869 q 766 739 675 869 q 857 428 857 608 q 765 117 857 247 q 458 -12 672 -12 q 151 117 244 -12 q 57 428 57 247 q 149 739 57 608 q 458 869 242 869 m 732 428 q 710 593 732 506 q 627 742 688 681 q 450 803 567 803 q 281 742 339 803 q 202 593 222 681 q 182 428 182 506 q 204 263 182 350 q 287 115 226 176 q 463 54 347 54 q 634 115 576 54 q 712 263 692 176 q 732 428 732 350 m 401 1004 q 377 950 401 972 q 322 928 353 928 q 267 950 292 928 q 243 1004 243 972 q 267 1061 243 1038 q 322 1085 292 1085 q 377 1061 353 1085 q 401 1004 401 1038 m 672 1004 q 647 950 672 972 q 592 928 622 928 q 537 950 561 928 q 513 1004 513 972 q 537 1061 513 1038 q 592 1085 561 1085 q 647 1061 622 1085 q 672 1004 672 1038 z "},"Ọ":{"ha":914,"x_min":57,"x_max":857,"o":"m 458 869 q 766 739 675 869 q 857 428 857 608 q 765 117 857 247 q 458 -12 672 -12 q 151 117 244 -12 q 57 428 57 247 q 149 739 57 608 q 458 869 242 869 m 732 428 q 710 593 732 506 q 627 742 688 681 q 450 803 567 803 q 281 742 339 803 q 202 593 222 681 q 182 428 182 506 q 204 263 182 350 q 287 115 226 176 q 463 54 347 54 q 634 115 576 54 q 712 263 692 176 q 732 428 732 350 m 540 -140 q 515 -197 540 -175 q 457 -219 489 -219 q 399 -197 424 -219 q 374 -140 374 -175 q 399 -81 374 -106 q 457 -57 424 -57 q 515 -81 489 -57 q 540 -140 540 -106 z "},"Ò":{"ha":914,"x_min":57,"x_max":857,"o":"m 458 869 q 766 739 675 869 q 857 428 857 608 q 765 117 857 247 q 458 -12 672 -12 q 151 117 244 -12 q 57 428 57 247 q 149 739 57 608 q 458 869 242 869 m 732 428 q 710 593 732 506 q 627 742 688 681 q 450 803 567 803 q 281 742 339 803 q 202 593 222 681 q 182 428 182 506 q 204 263 182 350 q 287 115 226 176 q 463 54 347 54 q 634 115 576 54 q 712 263 692 176 q 732 428 732 350 m 586 903 l 286 1046 l 286 1071 l 393 1110 l 606 929 l 586 903 z "},"Ỏ":{"ha":914,"x_min":57,"x_max":857,"o":"m 458 869 q 766 739 675 869 q 857 428 857 608 q 765 117 857 247 q 458 -12 672 -12 q 151 117 244 -12 q 57 428 57 247 q 149 739 57 608 q 458 869 242 869 m 732 428 q 710 593 732 506 q 627 742 688 681 q 450 803 567 803 q 281 742 339 803 q 202 593 222 681 q 182 428 182 506 q 204 263 182 350 q 287 115 226 176 q 463 54 347 54 q 634 115 576 54 q 712 263 692 176 q 732 428 732 350 m 592 1044 q 569 999 592 1021 q 481 971 547 976 l 513 999 l 497 939 l 444 939 l 439 994 q 500 1007 483 994 q 517 1039 517 1019 q 468 1076 517 1076 q 434 1074 456 1076 q 388 1067 413 1071 l 379 1104 q 474 1113 431 1113 q 592 1044 592 1113 m 388 1031 l 379 1104 l 428 1106 l 442 1081 l 429 1031 l 388 1031 z "},"Ơ":{"ha":914,"x_min":57,"x_max":928,"o":"m 458 869 q 766 739 675 869 q 857 428 857 608 q 765 117 857 247 q 458 -12 672 -12 q 151 117 244 -12 q 57 428 57 247 q 149 739 57 608 q 458 869 242 869 m 732 428 q 710 593 732 506 q 627 742 688 681 q 450 803 567 803 q 281 742 339 803 q 202 593 222 681 q 182 428 182 506 q 204 263 182 350 q 287 115 226 176 q 463 54 347 54 q 634 115 576 54 q 712 263 692 176 q 732 428 732 350 m 815 957 l 910 976 q 924 935 919 958 q 928 897 928 913 q 851 788 928 826 q 681 749 775 749 l 671 749 l 671 808 l 722 808 q 788 822 763 808 q 814 882 814 836 q 807 939 814 908 l 815 957 z "},"Ớ":{"ha":914,"x_min":57,"x_max":928,"o":"m 458 869 q 766 739 675 869 q 857 428 857 608 q 765 117 857 247 q 458 -12 672 -12 q 151 117 244 -12 q 57 428 57 247 q 149 739 57 608 q 458 869 242 869 m 732 428 q 710 593 732 506 q 627 742 688 681 q 450 803 567 803 q 281 742 339 803 q 202 593 222 681 q 182 428 182 506 q 204 263 182 350 q 287 115 226 176 q 463 54 347 54 q 634 115 576 54 q 712 263 692 176 q 732 428 732 350 m 815 957 l 910 976 q 924 935 919 958 q 928 897 928 913 q 851 788 928 826 q 681 749 775 749 l 671 749 l 671 808 l 722 808 q 788 822 763 808 q 814 882 814 836 q 807 939 814 908 l 815 957 m 393 903 l 371 929 l 585 1110 l 690 1071 l 690 1046 l 393 903 z "},"Ợ":{"ha":914,"x_min":57,"x_max":928,"o":"m 458 869 q 766 739 675 869 q 857 428 857 608 q 765 117 857 247 q 458 -12 672 -12 q 151 117 244 -12 q 57 428 57 247 q 149 739 57 608 q 458 869 242 869 m 732 428 q 710 593 732 506 q 627 742 688 681 q 450 803 567 803 q 281 742 339 803 q 202 593 222 681 q 182 428 182 506 q 204 263 182 350 q 287 115 226 176 q 463 54 347 54 q 634 115 576 54 q 712 263 692 176 q 732 428 732 350 m 815 957 l 910 976 q 924 935 919 958 q 928 897 928 913 q 851 788 928 826 q 681 749 775 749 l 671 749 l 671 808 l 722 808 q 788 822 763 808 q 814 882 814 836 q 807 939 814 908 l 815 957 m 540 -140 q 515 -197 540 -175 q 457 -219 489 -219 q 399 -197 424 -219 q 374 -140 374 -175 q 399 -81 374 -106 q 457 -57 424 -57 q 515 -81 489 -57 q 540 -140 540 -106 z "},"Ờ":{"ha":914,"x_min":57,"x_max":928,"o":"m 458 869 q 766 739 675 869 q 857 428 857 608 q 765 117 857 247 q 458 -12 672 -12 q 151 117 244 -12 q 57 428 57 247 q 149 739 57 608 q 458 869 242 869 m 732 428 q 710 593 732 506 q 627 742 688 681 q 450 803 567 803 q 281 742 339 803 q 202 593 222 681 q 182 428 182 506 q 204 263 182 350 q 287 115 226 176 q 463 54 347 54 q 634 115 576 54 q 712 263 692 176 q 732 428 732 350 m 815 957 l 910 976 q 924 935 919 958 q 928 897 928 913 q 851 788 928 826 q 681 749 775 749 l 671 749 l 671 808 l 722 808 q 788 822 763 808 q 814 882 814 836 q 807 939 814 908 l 815 957 z "},"Ở":{"ha":914,"x_min":57,"x_max":928,"o":"m 458 869 q 766 739 675 869 q 857 428 857 608 q 765 117 857 247 q 458 -12 672 -12 q 151 117 244 -12 q 57 428 57 247 q 149 739 57 608 q 458 869 242 869 m 732 428 q 710 593 732 506 q 627 742 688 681 q 450 803 567 803 q 281 742 339 803 q 202 593 222 681 q 182 428 182 506 q 204 263 182 350 q 287 115 226 176 q 463 54 347 54 q 634 115 576 54 q 712 263 692 176 q 732 428 732 350 m 815 957 l 910 976 q 924 935 919 958 q 928 897 928 913 q 851 788 928 826 q 681 749 775 749 l 671 749 l 671 808 l 722 808 q 788 822 763 808 q 814 882 814 836 q 807 939 814 908 l 815 957 m 592 1044 q 569 999 592 1021 q 481 971 547 976 l 513 999 l 497 939 l 444 939 l 439 994 q 500 1007 483 994 q 517 1039 517 1019 q 468 1076 517 1076 q 434 1074 456 1076 q 388 1067 413 1071 l 379 1104 q 474 1113 431 1113 q 592 1044 592 1113 m 388 1031 l 379 1104 l 428 1106 l 442 1081 l 429 1031 l 388 1031 z "},"Ỡ":{"ha":914,"x_min":57,"x_max":928,"o":"m 458 869 q 766 739 675 869 q 857 428 857 608 q 765 117 857 247 q 458 -12 672 -12 q 151 117 244 -12 q 57 428 57 247 q 149 739 57 608 q 458 869 242 869 m 732 428 q 710 593 732 506 q 627 742 688 681 q 450 803 567 803 q 281 742 339 803 q 202 593 222 681 q 182 428 182 506 q 204 263 182 350 q 287 115 226 176 q 463 54 347 54 q 634 115 576 54 q 712 263 692 176 q 732 428 732 350 m 815 957 l 910 976 q 924 935 919 958 q 928 897 928 913 q 851 788 928 826 q 681 749 775 749 l 671 749 l 671 808 l 722 808 q 788 822 763 808 q 814 882 814 836 q 807 939 814 908 l 815 957 z "},"Ő":{"ha":914,"x_min":57,"x_max":857,"o":"m 458 -12 q 151 117 244 -12 q 57 428 57 247 q 149 739 57 608 q 458 869 242 869 q 766 739 675 869 q 857 428 857 608 q 765 117 857 247 q 458 -12 672 -12 m 463 54 q 634 115 576 54 q 712 263 692 176 q 732 428 732 350 q 710 593 732 506 q 627 742 688 681 q 450 803 567 803 q 281 742 339 803 q 202 593 222 681 q 182 428 182 506 q 204 263 182 350 q 287 115 226 176 q 463 54 347 54 m 300 906 l 268 926 l 374 1111 l 476 1111 l 476 1088 l 300 906 m 524 906 l 492 926 l 597 1111 l 700 1111 l 700 1088 l 524 906 z "},"Ȏ":{"ha":914,"x_min":57,"x_max":857,"o":"m 458 869 q 766 739 675 869 q 857 428 857 608 q 765 117 857 247 q 458 -12 672 -12 q 151 117 244 -12 q 57 428 57 247 q 149 739 57 608 q 458 869 242 869 m 732 428 q 710 593 732 506 q 627 742 688 681 q 450 803 567 803 q 281 742 339 803 q 202 593 222 681 q 182 428 182 506 q 204 263 182 350 q 287 115 226 176 q 463 54 347 54 q 634 115 576 54 q 712 263 692 176 q 732 428 732 350 m 456 1092 q 586 1043 553 1092 q 619 933 619 994 l 572 931 q 551 990 572 964 q 458 1017 529 1017 q 363 990 386 1017 q 340 931 340 964 l 294 933 q 327 1043 294 994 q 456 1092 360 1092 z "},"Ō":{"ha":914,"x_min":57,"x_max":857,"o":"m 458 869 q 766 739 675 869 q 857 428 857 608 q 765 117 857 247 q 458 -12 672 -12 q 151 117 244 -12 q 57 428 57 247 q 149 739 57 608 q 458 869 242 869 m 732 428 q 710 593 732 506 q 627 742 688 681 q 450 803 567 803 q 281 742 339 803 q 202 593 222 681 q 182 428 182 506 q 204 263 182 350 q 287 115 226 176 q 463 54 347 54 q 634 115 576 54 q 712 263 692 176 q 732 428 732 350 m 306 1040 l 607 1040 l 607 968 l 306 968 l 306 1040 z "},"Ǫ":{"ha":914,"x_min":57,"x_max":857,"o":"m 711 64 q 644 -21 668 31 q 619 -128 619 -72 q 696 -210 619 -210 q 765 -179 735 -210 l 788 -201 q 756 -236 788 -201 q 657 -271 724 -271 q 557 -234 588 -271 q 526 -153 526 -197 q 557 -53 526 -108 q 657 57 588 1 l 711 64 m 458 869 q 766 739 675 869 q 857 428 857 608 q 765 117 857 247 q 458 -12 672 -12 q 151 117 244 -12 q 57 428 57 247 q 149 739 57 608 q 458 869 242 869 m 732 428 q 710 593 732 506 q 627 742 688 681 q 450 803 567 803 q 281 742 339 803 q 202 593 222 681 q 182 428 182 506 q 204 263 182 350 q 287 115 226 176 q 463 54 347 54 q 634 115 576 54 q 712 263 692 176 q 732 428 732 350 z "},"Ø":{"ha":914,"x_min":57,"x_max":857,"o":"m 226 -133 l 276 22 q 109 182 161 72 q 57 428 57 292 q 149 739 57 608 q 458 869 242 869 q 549 863 503 869 l 588 983 l 672 983 l 626 842 q 803 681 750 794 q 857 428 857 568 q 765 117 857 247 q 458 -12 672 -12 q 404 -10 431 -12 q 353 -3 378 -7 l 311 -133 l 226 -133 m 303 104 l 526 794 q 450 803 492 803 q 281 742 339 803 q 202 593 222 681 q 182 428 182 506 q 206 253 182 347 q 303 104 231 160 m 463 54 q 634 115 576 54 q 712 263 692 176 q 732 428 732 350 q 706 611 732 514 q 600 761 679 708 l 375 67 q 463 54 414 54 z "},"Ǿ":{"ha":914,"x_min":57,"x_max":857,"o":"m 226 -133 l 276 22 q 109 182 161 72 q 57 428 57 292 q 149 739 57 608 q 458 869 242 869 q 549 863 503 869 l 588 983 l 672 983 l 626 842 q 803 681 750 794 q 857 428 857 568 q 765 117 857 247 q 458 -12 672 -12 q 404 -10 431 -12 q 353 -3 378 -7 l 311 -133 l 226 -133 m 303 104 l 526 794 q 450 803 492 803 q 281 742 339 803 q 202 593 222 681 q 182 428 182 506 q 206 253 182 347 q 303 104 231 160 m 463 54 q 634 115 576 54 q 712 263 692 176 q 732 428 732 350 q 706 611 732 514 q 600 761 679 708 l 375 67 q 463 54 414 54 z "},"Õ":{"ha":914,"x_min":57,"x_max":857,"o":"m 458 869 q 766 739 675 869 q 857 428 857 608 q 765 117 857 247 q 458 -12 672 -12 q 151 117 244 -12 q 57 428 57 247 q 149 739 57 608 q 458 869 242 869 m 732 428 q 710 593 732 506 q 627 742 688 681 q 450 803 567 803 q 281 742 339 803 q 202 593 222 681 q 182 428 182 506 q 204 263 182 350 q 287 115 226 176 q 463 54 347 54 q 634 115 576 54 q 712 263 692 176 q 732 428 732 350 m 658 1058 q 613 967 636 1006 q 557 929 590 929 q 458 957 522 929 q 360 985 394 985 q 317 960 336 985 q 297 935 297 935 l 256 951 q 301 1044 278 1006 q 358 1082 324 1082 q 457 1054 394 1082 q 556 1026 519 1026 q 597 1051 579 1026 q 615 1075 615 1075 l 658 1058 z "},"Œ":{"ha":1138,"x_min":57,"x_max":1083,"o":"m 1047 849 l 1047 665 l 994 665 l 964 776 l 696 776 l 696 449 l 893 449 l 922 540 l 974 540 l 974 289 l 922 289 l 890 385 l 696 385 l 696 78 l 992 78 l 1029 204 l 1083 204 l 1083 0 l 458 0 q 151 124 244 0 q 57 428 57 247 q 149 728 57 608 q 458 849 242 849 l 1047 849 m 581 775 q 518 783 542 781 q 450 786 494 786 q 281 729 339 786 q 201 589 222 672 q 181 428 181 506 q 203 266 181 350 q 286 123 225 182 q 463 64 347 64 q 522 65 492 64 q 581 74 553 67 l 581 775 z "},"P":{"ha":724,"x_min":54,"x_max":689,"o":"m 372 849 q 601 790 514 849 q 689 613 689 732 q 651 465 689 524 q 549 376 613 406 q 408 346 485 346 q 353 349 382 346 q 296 360 325 353 l 296 74 l 440 47 l 440 0 l 54 0 l 54 46 l 181 74 l 181 769 l 54 800 l 54 849 l 372 849 m 296 413 q 336 403 315 406 q 378 401 357 401 q 506 445 451 401 q 561 601 561 489 q 510 746 561 701 q 385 790 460 790 q 340 787 364 790 q 296 776 315 783 l 296 413 z "},"Þ":{"ha":694,"x_min":53,"x_max":667,"o":"m 53 0 l 53 46 l 178 74 l 178 775 l 53 803 l 53 849 l 418 849 l 418 803 l 293 775 l 293 679 l 350 679 q 580 620 493 679 q 667 443 667 561 q 585 243 667 310 q 388 176 503 176 q 340 178 364 176 q 293 186 317 181 l 293 74 l 418 46 l 418 0 l 53 0 m 356 232 q 485 276 429 232 q 540 432 540 319 q 489 576 540 532 q 363 621 438 621 q 328 618 346 621 q 293 611 311 615 l 293 238 q 356 232 321 232 z "},"Q":{"ha":914,"x_min":57,"x_max":947,"o":"m 947 -175 q 881 -198 924 -186 q 801 -210 838 -210 q 731 -202 764 -210 q 626 -151 697 -194 l 376 0 q 139 152 221 32 q 57 428 57 272 q 149 739 57 608 q 458 869 242 869 q 767 739 676 869 q 858 428 858 608 q 772 135 858 251 q 513 -1 685 18 q 717 -97 628 -57 q 831 -136 806 -136 l 943 -136 l 947 -175 m 182 428 q 206 264 182 350 q 292 117 231 178 q 463 57 353 57 q 630 117 571 57 q 711 264 689 178 q 733 428 733 350 q 711 593 733 506 q 628 742 689 681 q 450 803 567 803 q 281 742 339 803 q 202 593 222 681 q 182 428 182 506 z "},"R":{"ha":775,"x_min":56,"x_max":815,"o":"m 613 0 q 506 224 543 144 q 449 338 469 303 q 408 380 428 372 q 353 388 389 388 l 300 388 l 300 74 l 429 46 l 429 0 l 56 0 l 56 46 l 185 74 l 185 775 l 56 803 l 56 849 l 393 849 q 622 783 553 849 q 690 635 690 718 q 649 502 690 571 q 489 406 608 433 q 560 364 538 392 q 610 271 582 336 q 707 75 639 206 l 815 46 l 815 0 l 613 0 m 385 443 q 519 494 475 443 q 564 626 564 544 q 521 745 564 700 q 388 790 478 790 q 300 776 349 790 l 300 443 l 385 443 z "},"Ŕ":{"ha":775,"x_min":56,"x_max":815,"o":"m 613 0 q 506 224 543 144 q 449 338 469 303 q 408 380 428 372 q 353 388 389 388 l 300 388 l 300 74 l 429 46 l 429 0 l 56 0 l 56 46 l 185 74 l 185 775 l 56 803 l 56 849 l 393 849 q 622 783 553 849 q 690 635 690 718 q 649 502 690 571 q 489 406 608 433 q 560 364 538 392 q 610 271 582 336 q 707 75 639 206 l 815 46 l 815 0 l 613 0 m 385 443 q 519 494 475 443 q 564 626 564 544 q 521 745 564 700 q 388 790 478 790 q 300 776 349 790 l 300 443 l 385 443 m 265 903 l 243 929 l 457 1110 l 563 1071 l 563 1046 l 265 903 z "},"Ř":{"ha":775,"x_min":56,"x_max":815,"o":"m 56 0 l 56 46 l 185 74 l 185 775 l 56 803 l 56 849 l 393 849 q 622 783 553 849 q 690 635 690 718 q 649 502 690 571 q 489 406 608 433 q 560 364 538 392 q 610 271 582 336 q 707 75 639 206 l 815 46 l 815 0 l 613 0 q 506 224 543 144 q 449 338 469 303 q 408 380 428 372 q 353 388 389 388 l 300 388 l 300 74 l 429 46 l 429 0 l 56 0 m 300 443 l 385 443 q 519 494 475 443 q 564 626 564 544 q 521 745 564 700 q 388 790 478 790 q 300 776 349 790 l 300 443 m 347 904 l 206 1086 l 229 1111 l 390 997 l 544 1111 l 569 1086 l 431 904 l 347 904 z "},"Ŗ":{"ha":775,"x_min":56,"x_max":815,"o":"m 56 0 l 56 46 l 185 74 l 185 775 l 56 803 l 56 849 l 393 849 q 622 783 553 849 q 690 635 690 718 q 649 502 690 571 q 489 406 608 433 q 560 364 538 392 q 610 271 582 336 q 707 75 639 206 l 815 46 l 815 0 l 613 0 q 506 224 543 144 q 449 338 469 303 q 408 380 428 372 q 353 388 389 388 l 300 388 l 300 74 l 429 46 l 429 0 l 56 0 m 383 -307 l 403 -60 l 500 -39 l 518 -58 l 429 -307 l 383 -307 m 300 443 l 385 443 q 519 494 475 443 q 564 626 564 544 q 521 745 564 700 q 388 790 478 790 q 300 776 349 790 l 300 443 z "},"Ȑ":{"ha":775,"x_min":56,"x_max":815,"o":"m 613 0 q 506 224 543 144 q 449 338 469 303 q 408 380 428 372 q 353 388 389 388 l 300 388 l 300 74 l 429 46 l 429 0 l 56 0 l 56 46 l 185 74 l 185 775 l 56 803 l 56 849 l 393 849 q 622 783 553 849 q 690 635 690 718 q 649 502 690 571 q 489 406 608 433 q 560 364 538 392 q 610 271 582 336 q 707 75 639 206 l 815 46 l 815 0 l 613 0 m 385 443 q 519 494 475 443 q 564 626 564 544 q 521 745 564 700 q 388 790 478 790 q 300 776 349 790 l 300 443 l 385 443 m 503 906 l 325 1088 l 325 1111 l 429 1111 l 533 926 l 503 906 m 278 906 l 101 1088 l 101 1111 l 206 1111 l 310 926 l 278 906 z "},"Ṛ":{"ha":775,"x_min":56,"x_max":815,"o":"m 613 0 q 506 224 543 144 q 449 338 469 303 q 408 380 428 372 q 353 388 389 388 l 300 388 l 300 74 l 429 46 l 429 0 l 56 0 l 56 46 l 185 74 l 185 775 l 56 803 l 56 849 l 393 849 q 622 783 553 849 q 690 635 690 718 q 649 502 690 571 q 489 406 608 433 q 560 364 538 392 q 610 271 582 336 q 707 75 639 206 l 815 46 l 815 0 l 613 0 m 385 443 q 519 494 475 443 q 564 626 564 544 q 521 745 564 700 q 388 790 478 790 q 300 776 349 790 l 300 443 l 385 443 m 471 -140 q 445 -197 471 -175 q 388 -219 419 -219 q 329 -197 354 -219 q 304 -140 304 -175 q 329 -81 304 -106 q 388 -57 354 -57 q 445 -81 419 -57 q 471 -140 471 -106 z "},"Ȓ":{"ha":775,"x_min":56,"x_max":815,"o":"m 613 0 q 506 224 543 144 q 449 338 469 303 q 408 380 428 372 q 353 388 389 388 l 300 388 l 300 74 l 429 46 l 429 0 l 56 0 l 56 46 l 185 74 l 185 775 l 56 803 l 56 849 l 393 849 q 622 783 553 849 q 690 635 690 718 q 649 502 690 571 q 489 406 608 433 q 560 364 538 392 q 610 271 582 336 q 707 75 639 206 l 815 46 l 815 0 l 613 0 m 385 443 q 519 494 475 443 q 564 626 564 544 q 521 745 564 700 q 388 790 478 790 q 300 776 349 790 l 300 443 l 385 443 m 386 1092 q 517 1043 483 1092 q 550 933 550 994 l 503 931 q 481 990 503 964 q 389 1017 460 1017 q 294 990 317 1017 q 271 931 271 964 l 225 933 q 258 1043 225 994 q 386 1092 290 1092 z "},"S":{"ha":636,"x_min":47,"x_max":593,"o":"m 63 633 q 134 808 63 744 q 339 871 206 871 q 564 833 449 871 l 550 653 l 499 653 l 468 788 q 411 798 449 794 q 347 801 374 801 q 219 765 267 801 q 171 658 171 728 q 203 564 171 597 q 299 506 236 531 l 449 444 q 557 367 521 417 q 593 226 593 317 q 516 50 593 115 q 286 -15 439 -15 q 167 -5 232 -15 q 47 28 101 6 l 67 192 l 118 192 l 144 72 q 208 60 168 67 q 294 53 249 53 q 431 92 381 53 q 481 196 481 132 q 454 291 481 251 q 358 358 428 331 l 204 418 q 102 492 142 442 q 63 633 63 543 z "},"Ś":{"ha":636,"x_min":53,"x_max":599,"o":"m 68 633 q 140 808 68 744 q 344 871 211 871 q 569 833 454 871 l 556 653 l 504 653 l 474 788 q 417 798 454 794 q 353 801 379 801 q 224 765 272 801 q 176 658 176 728 q 209 564 176 597 q 304 506 242 531 l 454 444 q 563 367 526 417 q 599 226 599 317 q 522 50 599 115 q 292 -15 444 -15 q 172 -5 238 -15 q 53 28 107 6 l 72 192 l 124 192 l 150 72 q 214 60 174 67 q 300 53 254 53 q 436 92 386 53 q 486 196 486 132 q 460 291 486 251 q 364 358 433 331 l 210 418 q 108 492 147 442 q 68 633 68 543 m 214 903 l 192 929 l 406 1110 l 511 1071 l 511 1046 l 214 903 z "},"Ꞌ":{"ha":147,"x_min":19,"x_max":160,"o":"m 64 390 l 19 399 l 40 849 l 140 849 l 160 826 l 64 390 z "},"Š":{"ha":636,"x_min":47,"x_max":593,"o":"m 286 -15 q 167 -5 232 -15 q 47 28 101 6 l 67 192 l 118 192 l 144 72 q 208 60 168 67 q 294 53 249 53 q 431 92 381 53 q 481 196 481 132 q 454 291 481 251 q 358 358 428 331 l 204 418 q 102 492 142 442 q 63 633 63 543 q 134 808 63 744 q 339 871 206 871 q 564 833 449 871 l 550 653 l 499 653 l 468 788 q 411 798 449 794 q 347 801 374 801 q 219 765 267 801 q 171 658 171 728 q 203 564 171 597 q 299 506 236 531 l 449 444 q 557 367 521 417 q 593 226 593 317 q 516 50 593 115 q 286 -15 439 -15 m 286 904 l 144 1086 l 168 1111 l 329 997 l 483 1111 l 508 1086 l 369 904 l 286 904 z "},"Ş":{"ha":636,"x_min":53,"x_max":599,"o":"m 264 -304 q 192 -293 224 -304 l 203 -258 q 251 -267 231 -267 q 331 -239 300 -267 q 361 -172 361 -211 q 337 -125 361 -144 q 254 -106 313 -106 l 250 -93 l 276 -15 q 164 -3 225 -14 q 53 28 103 7 l 72 192 l 124 192 l 150 72 q 214 60 174 67 q 300 53 254 53 q 436 92 386 53 q 486 196 486 132 q 460 291 486 251 q 364 358 433 331 l 210 418 q 108 492 147 442 q 68 633 68 543 q 140 808 68 744 q 344 871 211 871 q 569 833 454 871 l 556 653 l 504 653 l 474 788 q 417 798 454 794 q 353 801 379 801 q 224 765 272 801 q 176 658 176 728 q 209 564 176 597 q 304 506 242 531 l 454 444 q 563 367 526 417 q 599 226 599 317 q 528 56 599 119 q 318 -15 458 -8 l 303 -64 q 415 -93 379 -64 q 451 -161 451 -122 q 395 -262 451 -221 q 264 -304 339 -304 z "},"Ŝ":{"ha":636,"x_min":47,"x_max":593,"o":"m 63 633 q 134 808 63 744 q 339 871 206 871 q 564 833 449 871 l 550 653 l 499 653 l 468 788 q 411 798 449 794 q 347 801 374 801 q 219 765 267 801 q 171 658 171 728 q 203 564 171 597 q 299 506 236 531 l 449 444 q 557 367 521 417 q 593 226 593 317 q 516 50 593 115 q 286 -15 439 -15 q 167 -5 232 -15 q 47 28 101 6 l 67 192 l 118 192 l 144 72 q 208 60 168 67 q 294 53 249 53 q 431 92 381 53 q 481 196 481 132 q 454 291 481 251 q 358 358 428 331 l 204 418 q 102 492 142 442 q 63 633 63 543 z "},"Ș":{"ha":636,"x_min":53,"x_max":599,"o":"m 292 -15 q 172 -5 238 -15 q 53 28 107 6 l 72 192 l 124 192 l 150 72 q 214 60 174 67 q 300 53 254 53 q 436 92 386 53 q 486 196 486 132 q 460 291 486 251 q 364 358 433 331 l 210 418 q 108 492 147 442 q 68 633 68 543 q 140 808 68 744 q 344 871 211 871 q 569 833 454 871 l 556 653 l 504 653 l 474 788 q 417 798 454 794 q 353 801 379 801 q 224 765 272 801 q 176 658 176 728 q 209 564 176 597 q 304 506 242 531 l 454 444 q 563 367 526 417 q 599 226 599 317 q 522 50 599 115 q 292 -15 444 -15 m 251 -307 l 272 -60 l 369 -39 l 388 -58 l 297 -307 l 251 -307 z "},"Ṣ":{"ha":636,"x_min":47,"x_max":593,"o":"m 63 633 q 134 808 63 744 q 339 871 206 871 q 564 833 449 871 l 550 653 l 499 653 l 468 788 q 411 798 449 794 q 347 801 374 801 q 219 765 267 801 q 171 658 171 728 q 203 564 171 597 q 299 506 236 531 l 449 444 q 557 367 521 417 q 593 226 593 317 q 516 50 593 115 q 286 -15 439 -15 q 167 -5 232 -15 q 47 28 101 6 l 67 192 l 118 192 l 144 72 q 208 60 168 67 q 294 53 249 53 q 431 92 381 53 q 481 196 481 132 q 454 291 481 251 q 358 358 428 331 l 204 418 q 102 492 142 442 q 63 633 63 543 m 401 -140 q 376 -197 401 -175 q 318 -219 350 -219 q 260 -197 285 -219 q 235 -140 235 -175 q 260 -81 235 -106 q 318 -57 285 -57 q 376 -81 350 -57 q 401 -140 401 -106 z "},"ẞ":{"ha":822,"x_min":13,"x_max":793,"o":"m 13 0 l 13 46 l 136 74 l 136 532 q 219 785 136 701 q 463 869 303 869 q 619 846 546 869 q 732 783 692 822 l 739 739 l 558 450 q 738 374 683 436 q 793 221 793 311 q 729 51 793 117 q 546 -15 665 -15 q 460 -5 501 -15 q 386 28 418 6 l 406 192 l 457 192 l 483 69 q 508 58 492 64 q 547 53 524 53 q 644 92 607 53 q 681 200 681 131 q 636 319 681 260 q 442 379 592 379 l 417 425 l 629 756 q 474 801 583 801 q 306 747 360 801 q 251 572 251 692 l 251 74 l 351 51 l 351 0 l 13 0 z "},"Ə":{"ha":897,"x_min":57,"x_max":840,"o":"m 442 -12 q 57 428 57 -12 q 57 442 57 435 q 57 457 57 450 l 714 457 q 646 699 708 592 q 426 806 583 806 q 331 794 383 806 q 221 757 278 783 l 186 635 l 135 635 l 124 794 q 270 852 193 832 q 432 872 347 872 q 749 742 658 872 q 840 429 840 611 q 751 117 840 247 q 442 -12 663 -12 m 443 54 q 608 104 551 54 q 687 231 665 154 q 714 389 708 308 l 183 389 q 256 133 193 213 q 443 54 319 54 z "},"T":{"ha":713,"x_min":14,"x_max":700,"o":"m 14 849 l 700 849 l 692 654 l 638 654 l 611 776 l 415 776 l 415 74 l 563 46 l 563 0 l 151 0 l 151 46 l 300 74 l 300 776 l 103 776 l 75 654 l 25 654 l 14 849 z "},"Ŧ":{"ha":713,"x_min":14,"x_max":700,"o":"m 58 461 l 663 461 l 663 397 l 58 397 l 58 461 m 14 849 l 700 849 l 692 654 l 638 654 l 611 776 l 415 776 l 415 74 l 563 46 l 563 0 l 151 0 l 151 46 l 300 74 l 300 776 l 103 776 l 75 654 l 25 654 l 14 849 z "},"Ť":{"ha":713,"x_min":14,"x_max":700,"o":"m 151 0 l 151 46 l 300 74 l 300 776 l 103 776 l 75 654 l 25 654 l 14 849 l 700 849 l 692 654 l 638 654 l 611 776 l 415 776 l 415 74 l 563 46 l 563 0 l 151 0 m 313 904 l 171 1086 l 194 1111 l 356 997 l 510 1111 l 535 1086 l 396 904 l 313 904 z "},"Ţ":{"ha":713,"x_min":14,"x_max":700,"o":"m 311 -304 q 239 -293 271 -304 l 250 -258 q 299 -267 278 -267 q 378 -239 347 -267 q 408 -172 408 -211 q 384 -125 408 -144 q 301 -106 360 -106 l 297 -93 l 329 0 l 151 0 l 151 46 l 300 74 l 300 776 l 103 776 l 75 654 l 25 654 l 14 849 l 700 849 l 692 654 l 638 654 l 611 776 l 415 776 l 415 74 l 563 46 l 563 0 l 371 0 l 350 -64 q 463 -93 426 -64 q 499 -161 499 -122 q 442 -262 499 -221 q 311 -304 386 -304 z "},"Ț":{"ha":713,"x_min":14,"x_max":700,"o":"m 151 0 l 151 46 l 300 74 l 300 776 l 103 776 l 75 654 l 25 654 l 14 849 l 700 849 l 692 654 l 638 654 l 611 776 l 415 776 l 415 74 l 563 46 l 563 0 l 151 0 m 289 -307 l 307 -60 l 404 -39 l 422 -58 l 335 -307 l 289 -307 z "},"Ṭ":{"ha":713,"x_min":14,"x_max":700,"o":"m 14 849 l 700 849 l 692 654 l 638 654 l 611 776 l 415 776 l 415 74 l 563 46 l 563 0 l 151 0 l 151 46 l 300 74 l 300 776 l 103 776 l 75 654 l 25 654 l 14 849 m 440 -140 q 415 -197 440 -175 q 357 -219 389 -219 q 299 -197 324 -219 q 274 -140 274 -175 q 299 -81 274 -106 q 357 -57 324 -57 q 415 -81 389 -57 q 440 -140 440 -106 z "},"U":{"ha":904,"x_min":13,"x_max":883,"o":"m 772 328 q 751 186 772 267 q 662 46 729 106 q 457 -14 594 -14 q 251 40 319 -14 q 161 180 183 93 q 139 367 139 267 l 139 775 l 13 803 l 13 849 l 379 849 l 379 803 l 254 775 l 254 367 q 291 149 254 242 q 463 57 328 57 q 642 133 590 57 q 693 329 693 210 l 693 776 l 574 803 l 574 849 l 883 849 l 883 803 l 772 776 l 772 328 z "},"Ú":{"ha":904,"x_min":13,"x_max":883,"o":"m 772 328 q 751 186 772 267 q 662 46 729 106 q 457 -14 594 -14 q 251 40 319 -14 q 161 180 183 93 q 139 367 139 267 l 139 775 l 13 803 l 13 849 l 379 849 l 379 803 l 254 775 l 254 367 q 291 149 254 242 q 463 57 328 57 q 642 133 590 57 q 693 329 693 210 l 693 776 l 574 803 l 574 849 l 883 849 l 883 803 l 772 776 l 772 328 m 343 903 l 321 929 l 535 1110 l 640 1071 l 640 1046 l 343 903 z "},"Ŭ":{"ha":904,"x_min":13,"x_max":883,"o":"m 772 328 q 751 186 772 267 q 662 46 729 106 q 457 -14 594 -14 q 251 40 319 -14 q 161 180 183 93 q 139 367 139 267 l 139 775 l 13 803 l 13 849 l 379 849 l 379 803 l 254 775 l 254 367 q 291 149 254 242 q 463 57 328 57 q 642 133 590 57 q 693 329 693 210 l 693 776 l 574 803 l 574 849 l 883 849 l 883 803 l 772 776 l 772 328 z "},"Ǔ":{"ha":904,"x_min":13,"x_max":883,"o":"m 772 328 q 751 186 772 267 q 662 46 729 106 q 457 -14 594 -14 q 251 40 319 -14 q 161 180 183 93 q 139 367 139 267 l 139 775 l 13 803 l 13 849 l 379 849 l 379 803 l 254 775 l 254 367 q 291 149 254 242 q 463 57 328 57 q 642 133 590 57 q 693 329 693 210 l 693 776 l 574 803 l 574 849 l 883 849 l 883 803 l 772 776 l 772 328 z "},"Û":{"ha":904,"x_min":13,"x_max":883,"o":"m 772 328 q 751 186 772 267 q 662 46 729 106 q 457 -14 594 -14 q 251 40 319 -14 q 161 180 183 93 q 139 367 139 267 l 139 775 l 13 803 l 13 849 l 379 849 l 379 803 l 254 775 l 254 367 q 291 149 254 242 q 463 57 328 57 q 642 133 590 57 q 693 329 693 210 l 693 776 l 574 803 l 574 849 l 883 849 l 883 803 l 772 776 l 772 328 m 633 904 l 472 1018 l 318 904 l 294 929 l 433 1111 l 517 1111 l 658 929 l 633 904 z "},"Ȕ":{"ha":904,"x_min":13,"x_max":883,"o":"m 772 328 q 751 186 772 267 q 662 46 729 106 q 457 -14 594 -14 q 251 40 319 -14 q 161 180 183 93 q 139 367 139 267 l 139 775 l 13 803 l 13 849 l 379 849 l 379 803 l 254 775 l 254 367 q 291 149 254 242 q 463 57 328 57 q 642 133 590 57 q 693 329 693 210 l 693 776 l 574 803 l 574 849 l 883 849 l 883 803 l 772 776 l 772 328 m 568 906 l 390 1088 l 390 1111 l 494 1111 l 599 926 l 568 906 m 343 906 l 167 1088 l 167 1111 l 271 1111 l 375 926 l 343 906 z "},"Ü":{"ha":904,"x_min":13,"x_max":883,"o":"m 772 328 q 751 186 772 267 q 662 46 729 106 q 457 -14 594 -14 q 251 40 319 -14 q 161 180 183 93 q 139 367 139 267 l 139 775 l 13 803 l 13 849 l 379 849 l 379 803 l 254 775 l 254 367 q 291 149 254 242 q 463 57 328 57 q 642 133 590 57 q 693 329 693 210 l 693 776 l 574 803 l 574 849 l 883 849 l 883 803 l 772 776 l 772 328 m 419 1003 q 396 949 419 972 q 340 926 372 926 q 285 949 308 926 q 261 1003 261 972 q 285 1060 261 1036 q 340 1083 308 1083 q 396 1060 372 1083 q 419 1003 419 1036 m 690 1003 q 666 949 690 972 q 610 926 642 926 q 554 949 578 926 q 531 1003 531 972 q 554 1060 531 1036 q 610 1083 578 1083 q 666 1060 642 1083 q 690 1003 690 1036 z "},"Ǘ":{"ha":904,"x_min":13,"x_max":883,"o":"m 772 328 q 751 186 772 267 q 662 46 729 106 q 457 -14 594 -14 q 251 40 319 -14 q 161 180 183 93 q 139 367 139 267 l 139 775 l 13 803 l 13 849 l 379 849 l 379 803 l 254 775 l 254 367 q 291 149 254 242 q 463 57 328 57 q 642 133 590 57 q 693 329 693 210 l 693 776 l 574 803 l 574 849 l 883 849 l 883 803 l 772 776 l 772 328 m 392 1138 l 369 1164 l 583 1344 l 689 1306 l 689 1281 l 392 1138 z "},"Ǚ":{"ha":904,"x_min":13,"x_max":883,"o":"m 772 328 q 751 186 772 267 q 662 46 729 106 q 457 -14 594 -14 q 251 40 319 -14 q 161 180 183 93 q 139 367 139 267 l 139 775 l 13 803 l 13 849 l 379 849 l 379 803 l 254 775 l 254 367 q 291 149 254 242 q 463 57 328 57 q 642 133 590 57 q 693 329 693 210 l 693 776 l 574 803 l 574 849 l 883 849 l 883 803 l 772 776 l 772 328 z "},"Ǜ":{"ha":904,"x_min":13,"x_max":883,"o":"m 772 328 q 751 186 772 267 q 662 46 729 106 q 457 -14 594 -14 q 251 40 319 -14 q 161 180 183 93 q 139 367 139 267 l 139 775 l 13 803 l 13 849 l 379 849 l 379 803 l 254 775 l 254 367 q 291 149 254 242 q 463 57 328 57 q 642 133 590 57 q 693 329 693 210 l 693 776 l 574 803 l 574 849 l 883 849 l 883 803 l 772 776 l 772 328 z "},"Ǖ":{"ha":904,"x_min":13,"x_max":883,"o":"m 772 328 q 751 186 772 267 q 662 46 729 106 q 457 -14 594 -14 q 251 40 319 -14 q 161 180 183 93 q 139 367 139 267 l 139 775 l 13 803 l 13 849 l 379 849 l 379 803 l 254 775 l 254 367 q 291 149 254 242 q 463 57 328 57 q 642 133 590 57 q 693 329 693 210 l 693 776 l 574 803 l 574 849 l 883 849 l 883 803 l 772 776 l 772 328 z "},"Ụ":{"ha":904,"x_min":13,"x_max":883,"o":"m 772 328 q 751 186 772 267 q 662 46 729 106 q 457 -14 594 -14 q 251 40 319 -14 q 161 180 183 93 q 139 367 139 267 l 139 775 l 13 803 l 13 849 l 379 849 l 379 803 l 254 775 l 254 367 q 291 149 254 242 q 463 57 328 57 q 642 133 590 57 q 693 329 693 210 l 693 776 l 574 803 l 574 849 l 883 849 l 883 803 l 772 776 l 772 328 m 536 -140 q 510 -197 536 -175 q 453 -219 485 -219 q 394 -197 419 -219 q 369 -140 369 -175 q 394 -81 369 -106 q 453 -57 419 -57 q 510 -81 485 -57 q 536 -140 536 -106 z "},"Ù":{"ha":904,"x_min":13,"x_max":883,"o":"m 772 328 q 751 186 772 267 q 662 46 729 106 q 457 -14 594 -14 q 251 40 319 -14 q 161 180 183 93 q 139 367 139 267 l 139 775 l 13 803 l 13 849 l 379 849 l 379 803 l 254 775 l 254 367 q 291 149 254 242 q 463 57 328 57 q 642 133 590 57 q 693 329 693 210 l 693 776 l 574 803 l 574 849 l 883 849 l 883 803 l 772 776 l 772 328 m 544 903 l 244 1046 l 244 1071 l 351 1110 l 564 929 l 544 903 z "},"Ủ":{"ha":904,"x_min":13,"x_max":883,"o":"m 772 328 q 751 186 772 267 q 662 46 729 106 q 457 -14 594 -14 q 251 40 319 -14 q 161 180 183 93 q 139 367 139 267 l 139 775 l 13 803 l 13 849 l 379 849 l 379 803 l 254 775 l 254 367 q 291 149 254 242 q 463 57 328 57 q 642 133 590 57 q 693 329 693 210 l 693 776 l 574 803 l 574 849 l 883 849 l 883 803 l 772 776 l 772 328 m 588 1044 q 565 999 588 1021 q 476 971 543 976 l 508 999 l 493 939 l 440 939 l 435 994 q 496 1007 479 994 q 513 1039 513 1019 q 464 1076 513 1076 q 430 1074 451 1076 q 383 1067 408 1071 l 375 1104 q 469 1113 426 1113 q 588 1044 588 1113 m 383 1031 l 375 1104 l 424 1106 l 438 1081 l 425 1031 l 383 1031 z "},"Ư":{"ha":904,"x_min":13,"x_max":968,"o":"m 772 328 q 751 186 772 267 q 662 46 729 106 q 457 -14 594 -14 q 251 40 319 -14 q 161 180 183 93 q 139 367 139 267 l 139 775 l 13 803 l 13 849 l 379 849 l 379 803 l 254 775 l 254 367 q 291 149 254 242 q 463 57 328 57 q 642 133 590 57 q 693 329 693 210 l 693 776 l 574 803 l 574 849 l 864 849 l 868 817 l 772 776 l 772 328 m 856 997 l 950 1017 q 964 975 960 997 q 968 938 968 953 q 891 828 968 867 q 721 789 814 789 l 711 789 l 711 849 l 763 849 q 828 863 803 849 q 854 922 854 876 q 847 979 854 949 l 856 997 z "},"Ứ":{"ha":904,"x_min":13,"x_max":968,"o":"m 772 328 q 751 186 772 267 q 662 46 729 106 q 457 -14 594 -14 q 251 40 319 -14 q 161 180 183 93 q 139 367 139 267 l 139 775 l 13 803 l 13 849 l 379 849 l 379 803 l 254 775 l 254 367 q 291 149 254 242 q 463 57 328 57 q 642 133 590 57 q 693 329 693 210 l 693 776 l 574 803 l 574 849 l 864 849 l 868 817 l 772 776 l 772 328 m 856 997 l 950 1017 q 964 975 960 997 q 968 938 968 953 q 891 828 968 867 q 721 789 814 789 l 711 789 l 711 849 l 763 849 q 828 863 803 849 q 854 922 854 876 q 847 979 854 949 l 856 997 m 389 903 l 367 929 l 581 1110 l 686 1071 l 686 1046 l 389 903 z "},"Ự":{"ha":904,"x_min":13,"x_max":968,"o":"m 772 328 q 751 186 772 267 q 662 46 729 106 q 457 -14 594 -14 q 251 40 319 -14 q 161 180 183 93 q 139 367 139 267 l 139 775 l 13 803 l 13 849 l 379 849 l 379 803 l 254 775 l 254 367 q 291 149 254 242 q 463 57 328 57 q 642 133 590 57 q 693 329 693 210 l 693 776 l 574 803 l 574 849 l 864 849 l 868 817 l 772 776 l 772 328 m 856 997 l 950 1017 q 964 975 960 997 q 968 938 968 953 q 891 828 968 867 q 721 789 814 789 l 711 789 l 711 849 l 763 849 q 828 863 803 849 q 854 922 854 876 q 847 979 854 949 l 856 997 m 536 -140 q 510 -197 536 -175 q 453 -219 485 -219 q 394 -197 419 -219 q 369 -140 369 -175 q 394 -81 369 -106 q 453 -57 419 -57 q 510 -81 485 -57 q 536 -140 536 -106 z "},"Ừ":{"ha":904,"x_min":13,"x_max":968,"o":"m 772 328 q 751 186 772 267 q 662 46 729 106 q 457 -14 594 -14 q 251 40 319 -14 q 161 180 183 93 q 139 367 139 267 l 139 775 l 13 803 l 13 849 l 379 849 l 379 803 l 254 775 l 254 367 q 291 149 254 242 q 463 57 328 57 q 642 133 590 57 q 693 329 693 210 l 693 776 l 574 803 l 574 849 l 864 849 l 868 817 l 772 776 l 772 328 m 856 997 l 950 1017 q 964 975 960 997 q 968 938 968 953 q 891 828 968 867 q 721 789 814 789 l 711 789 l 711 849 l 763 849 q 828 863 803 849 q 854 922 854 876 q 847 979 854 949 l 856 997 z "},"Ử":{"ha":904,"x_min":13,"x_max":968,"o":"m 772 328 q 751 186 772 267 q 662 46 729 106 q 457 -14 594 -14 q 251 40 319 -14 q 161 180 183 93 q 139 367 139 267 l 139 775 l 13 803 l 13 849 l 379 849 l 379 803 l 254 775 l 254 367 q 291 149 254 242 q 463 57 328 57 q 642 133 590 57 q 693 329 693 210 l 693 776 l 574 803 l 574 849 l 864 849 l 868 817 l 772 776 l 772 328 m 856 997 l 950 1017 q 964 975 960 997 q 968 938 968 953 q 891 828 968 867 q 721 789 814 789 l 711 789 l 711 849 l 763 849 q 828 863 803 849 q 854 922 854 876 q 847 979 854 949 l 856 997 m 588 1044 q 565 999 588 1021 q 476 971 543 976 l 508 999 l 493 939 l 440 939 l 435 994 q 496 1007 479 994 q 513 1039 513 1019 q 464 1076 513 1076 q 430 1074 451 1076 q 383 1067 408 1071 l 375 1104 q 469 1113 426 1113 q 588 1044 588 1113 m 383 1031 l 375 1104 l 424 1106 l 438 1081 l 425 1031 l 383 1031 z "},"Ữ":{"ha":904,"x_min":13,"x_max":968,"o":"m 772 328 q 751 186 772 267 q 662 46 729 106 q 457 -14 594 -14 q 251 40 319 -14 q 161 180 183 93 q 139 367 139 267 l 139 775 l 13 803 l 13 849 l 379 849 l 379 803 l 254 775 l 254 367 q 291 149 254 242 q 463 57 328 57 q 642 133 590 57 q 693 329 693 210 l 693 776 l 574 803 l 574 849 l 864 849 l 868 817 l 772 776 l 772 328 m 856 997 l 950 1017 q 964 975 960 997 q 968 938 968 953 q 891 828 968 867 q 721 789 814 789 l 711 789 l 711 849 l 763 849 q 828 863 803 849 q 854 922 854 876 q 847 979 854 949 l 856 997 z "},"Ű":{"ha":904,"x_min":13,"x_max":883,"o":"m 772 328 q 751 186 772 267 q 662 46 729 106 q 457 -14 594 -14 q 251 40 319 -14 q 161 180 183 93 q 139 367 139 267 l 139 775 l 13 803 l 13 849 l 379 849 l 379 803 l 254 775 l 254 367 q 291 149 254 242 q 463 57 328 57 q 642 133 590 57 q 693 329 693 210 l 693 776 l 574 803 l 574 849 l 883 849 l 883 803 l 772 776 l 772 328 m 319 906 l 289 926 l 393 1111 l 497 1111 l 497 1088 l 319 906 m 544 906 l 513 926 l 617 1111 l 721 1111 l 721 1088 l 544 906 z "},"Ȗ":{"ha":904,"x_min":13,"x_max":883,"o":"m 772 328 q 751 186 772 267 q 662 46 729 106 q 457 -14 594 -14 q 251 40 319 -14 q 161 180 183 93 q 139 367 139 267 l 139 775 l 13 803 l 13 849 l 379 849 l 379 803 l 254 775 l 254 367 q 291 149 254 242 q 463 57 328 57 q 642 133 590 57 q 693 329 693 210 l 693 776 l 574 803 l 574 849 l 883 849 l 883 803 l 772 776 l 772 328 m 451 1092 q 582 1043 549 1092 q 615 933 615 994 l 568 931 q 547 990 568 964 q 454 1017 525 1017 q 359 990 382 1017 q 336 931 336 964 l 290 933 q 323 1043 290 994 q 451 1092 356 1092 z "},"Ū":{"ha":904,"x_min":13,"x_max":883,"o":"m 772 328 q 751 186 772 267 q 662 46 729 106 q 457 -14 594 -14 q 251 40 319 -14 q 161 180 183 93 q 139 367 139 267 l 139 775 l 13 803 l 13 849 l 379 849 l 379 803 l 254 775 l 254 367 q 291 149 254 242 q 463 57 328 57 q 642 133 590 57 q 693 329 693 210 l 693 776 l 574 803 l 574 849 l 883 849 l 883 803 l 772 776 l 772 328 m 321 1040 l 622 1040 l 622 968 l 321 968 l 321 1040 z "},"Ų":{"ha":904,"x_min":13,"x_max":883,"o":"m 501 -328 q 401 -291 432 -328 q 369 -210 369 -254 q 394 -105 369 -157 q 471 -14 419 -53 q 464 -14 468 -14 q 457 -14 460 -14 q 251 40 319 -14 q 161 180 183 93 q 139 367 139 267 l 139 775 l 13 803 l 13 849 l 379 849 l 379 803 l 254 775 l 254 367 q 291 149 254 242 q 463 57 328 57 q 642 133 590 57 q 693 329 693 210 l 693 776 l 574 803 l 574 849 l 883 849 l 883 803 l 772 776 l 772 328 q 758 208 772 275 q 699 83 743 142 q 568 0 656 25 q 483 -82 503 -22 q 464 -185 464 -142 q 539 -267 464 -267 q 608 -236 579 -267 l 632 -258 q 600 -293 632 -258 q 501 -328 568 -328 z "},"Ů":{"ha":904,"x_min":13,"x_max":883,"o":"m 457 -14 q 251 40 319 -14 q 161 180 183 93 q 139 367 139 267 l 139 775 l 13 803 l 13 849 l 379 849 l 379 803 l 254 775 l 254 367 q 291 149 254 242 q 463 57 328 57 q 642 133 590 57 q 693 329 693 210 l 693 776 l 574 803 l 574 849 l 883 849 l 883 803 l 772 776 l 772 328 q 751 186 772 267 q 662 46 729 106 q 457 -14 594 -14 m 479 879 q 375 917 411 879 q 339 1011 339 956 q 375 1103 339 1065 q 479 1142 411 1142 q 583 1103 549 1142 q 618 1011 618 1065 q 583 917 618 956 q 479 879 549 879 m 479 928 q 538 951 526 928 q 550 1011 550 975 q 538 1070 550 1046 q 479 1094 526 1094 q 421 1070 433 1094 q 408 1011 408 1046 q 421 951 408 975 q 479 928 433 928 z "},"Ũ":{"ha":904,"x_min":13,"x_max":883,"o":"m 772 328 q 751 186 772 267 q 662 46 729 106 q 457 -14 594 -14 q 251 40 319 -14 q 161 180 183 93 q 139 367 139 267 l 139 775 l 13 803 l 13 849 l 379 849 l 379 803 l 254 775 l 254 367 q 291 149 254 242 q 463 57 328 57 q 642 133 590 57 q 693 329 693 210 l 693 776 l 574 803 l 574 849 l 883 849 l 883 803 l 772 776 l 772 328 m 681 1100 q 635 1009 658 1047 q 579 971 613 971 q 481 999 544 971 q 382 1026 417 1026 q 339 1001 358 1026 q 319 976 319 976 l 278 993 q 323 1085 300 1047 q 381 1124 346 1124 q 479 1096 417 1124 q 578 1068 542 1068 q 619 1092 601 1068 q 638 1117 638 1117 l 681 1100 z "},"V":{"ha":833,"x_min":7,"x_max":826,"o":"m 379 -14 l 107 775 l 7 803 l 7 849 l 308 849 l 308 803 l 226 775 l 433 175 l 442 140 l 450 175 l 643 775 l 543 803 l 543 849 l 826 849 l 826 803 l 726 775 l 467 3 l 379 -14 z "},"W":{"ha":1039,"x_min":-33,"x_max":1078,"o":"m 790 803 l 790 849 l 1078 849 l 1078 803 l 976 775 l 786 3 l 708 -12 l 521 581 l 353 3 l 276 -12 l 67 775 l -33 803 l -33 849 l 271 849 l 271 803 l 190 775 l 349 135 l 311 135 l 485 775 l 576 792 l 772 129 l 740 129 l 889 775 l 790 803 z "},"Ẃ":{"ha":1039,"x_min":-33,"x_max":1078,"o":"m 790 803 l 790 849 l 1078 849 l 1078 803 l 976 775 l 786 3 l 708 -12 l 521 581 l 353 3 l 276 -12 l 67 775 l -33 803 l -33 849 l 271 849 l 271 803 l 190 775 l 349 135 l 311 135 l 485 775 l 576 792 l 772 129 l 740 129 l 889 775 l 790 803 z "},"Ŵ":{"ha":1039,"x_min":-33,"x_max":1078,"o":"m 790 803 l 790 849 l 1078 849 l 1078 803 l 976 775 l 786 3 l 708 -12 l 521 581 l 353 3 l 276 -12 l 67 775 l -33 803 l -33 849 l 271 849 l 271 803 l 190 775 l 349 135 l 311 135 l 485 775 l 576 792 l 772 129 l 740 129 l 889 775 l 790 803 z "},"Ẅ":{"ha":1039,"x_min":-33,"x_max":1078,"o":"m 790 803 l 790 849 l 1078 849 l 1078 803 l 976 775 l 786 3 l 708 -12 l 521 581 l 353 3 l 276 -12 l 67 775 l -33 803 l -33 849 l 271 849 l 271 803 l 190 775 l 349 135 l 311 135 l 485 775 l 576 792 l 772 129 l 740 129 l 889 775 l 790 803 z "},"Ẁ":{"ha":1039,"x_min":-33,"x_max":1078,"o":"m 790 803 l 790 849 l 1078 849 l 1078 803 l 976 775 l 786 3 l 708 -12 l 521 581 l 353 3 l 276 -12 l 67 775 l -33 803 l -33 849 l 271 849 l 271 803 l 190 775 l 349 135 l 311 135 l 485 775 l 576 792 l 772 129 l 740 129 l 889 775 l 790 803 z "},"X":{"ha":785,"x_min":1,"x_max":786,"o":"m 289 46 l 289 0 l 1 0 l 1 46 l 97 74 l 326 426 l 103 775 l 10 803 l 10 849 l 321 849 l 321 803 l 242 775 l 414 504 l 586 775 l 493 803 l 493 849 l 779 849 l 779 803 l 683 775 l 460 432 l 692 72 l 786 46 l 786 0 l 472 0 l 472 46 l 554 72 l 372 353 l 194 74 l 289 46 z "},"Y":{"ha":788,"x_min":17,"x_max":790,"o":"m 504 803 l 504 849 l 790 849 l 790 803 l 690 775 l 457 311 l 457 74 l 606 46 l 606 0 l 194 0 l 194 46 l 343 74 l 343 311 l 111 775 l 17 803 l 17 849 l 329 849 l 329 803 l 249 775 l 422 413 l 603 775 l 504 803 z "},"Ý":{"ha":788,"x_min":6,"x_max":779,"o":"m 493 803 l 493 849 l 779 849 l 779 803 l 679 775 l 446 311 l 446 74 l 594 46 l 594 0 l 183 0 l 183 46 l 332 74 l 332 311 l 100 775 l 6 803 l 6 849 l 318 849 l 318 803 l 238 775 l 411 413 l 592 775 l 493 803 m 283 903 l 261 929 l 475 1110 l 581 1071 l 581 1046 l 283 903 z "},"Ŷ":{"ha":788,"x_min":6,"x_max":779,"o":"m 493 803 l 493 849 l 779 849 l 779 803 l 679 775 l 446 311 l 446 74 l 594 46 l 594 0 l 183 0 l 183 46 l 332 74 l 332 311 l 100 775 l 6 803 l 6 849 l 318 849 l 318 803 l 238 775 l 411 413 l 592 775 l 493 803 m 565 904 l 404 1018 l 250 904 l 226 929 l 365 1111 l 449 1111 l 590 929 l 565 904 z "},"Ÿ":{"ha":788,"x_min":6,"x_max":781,"o":"m 183 0 l 183 46 l 332 74 l 332 311 l 100 775 l 6 803 l 6 849 l 319 849 l 319 803 l 238 775 l 413 413 l 593 775 l 494 803 l 494 849 l 781 849 l 781 803 l 681 775 l 446 311 l 446 74 l 594 46 l 594 0 l 183 0 m 272 928 q 215 951 239 928 q 192 1006 192 974 q 215 1061 192 1038 q 272 1085 239 1085 q 326 1061 301 1085 q 350 1006 350 1038 q 326 951 350 974 q 272 928 301 928 m 542 928 q 485 951 510 928 q 461 1006 461 974 q 485 1061 461 1038 q 542 1085 510 1085 q 597 1061 572 1085 q 621 1006 621 1038 q 597 951 621 974 q 542 928 572 928 z "},"Ỵ":{"ha":788,"x_min":17,"x_max":790,"o":"m 504 803 l 504 849 l 790 849 l 790 803 l 690 775 l 457 311 l 457 74 l 606 46 l 606 0 l 194 0 l 194 46 l 343 74 l 343 311 l 111 775 l 17 803 l 17 849 l 329 849 l 329 803 l 249 775 l 422 413 l 603 775 l 504 803 m 478 -140 q 452 -197 478 -175 q 394 -219 426 -219 q 336 -197 361 -219 q 311 -140 311 -175 q 336 -81 311 -106 q 394 -57 361 -57 q 452 -81 426 -57 q 478 -140 478 -106 z "},"Ỳ":{"ha":788,"x_min":6,"x_max":781,"o":"m 183 0 l 183 46 l 332 74 l 332 311 l 100 775 l 6 803 l 6 849 l 319 849 l 319 803 l 238 775 l 413 413 l 593 775 l 494 803 l 494 849 l 781 849 l 781 803 l 681 775 l 446 311 l 446 74 l 594 46 l 594 0 l 183 0 m 546 903 l 249 1046 l 249 1071 l 356 1110 l 567 929 l 546 903 z "},"Ỷ":{"ha":788,"x_min":17,"x_max":790,"o":"m 504 803 l 504 849 l 790 849 l 790 803 l 690 775 l 457 311 l 457 74 l 606 46 l 606 0 l 194 0 l 194 46 l 343 74 l 343 311 l 111 775 l 17 803 l 17 849 l 329 849 l 329 803 l 249 775 l 422 413 l 603 775 l 504 803 m 529 1044 q 507 999 529 1021 q 418 971 485 976 l 450 999 l 435 939 l 382 939 l 376 994 q 438 1007 421 994 q 454 1039 454 1019 q 406 1076 454 1076 q 372 1074 393 1076 q 325 1067 350 1071 l 317 1104 q 411 1113 368 1113 q 529 1044 529 1113 m 325 1031 l 317 1104 l 365 1106 l 379 1081 l 367 1031 l 325 1031 z "},"Ȳ":{"ha":788,"x_min":17,"x_max":790,"o":"m 504 803 l 504 849 l 790 849 l 790 803 l 690 775 l 457 311 l 457 74 l 606 46 l 606 0 l 194 0 l 194 46 l 343 74 l 343 311 l 111 775 l 17 803 l 17 849 l 329 849 l 329 803 l 249 775 l 422 413 l 603 775 l 504 803 z "},"Ỹ":{"ha":788,"x_min":6,"x_max":779,"o":"m 493 803 l 493 849 l 779 849 l 779 803 l 679 775 l 446 311 l 446 74 l 594 46 l 594 0 l 183 0 l 183 46 l 332 74 l 332 311 l 100 775 l 6 803 l 6 849 l 318 849 l 318 803 l 238 775 l 411 413 l 592 775 l 493 803 m 621 1100 q 576 1009 599 1047 q 519 971 553 971 q 420 999 483 971 q 322 1026 357 1026 q 280 1001 300 1026 q 260 976 260 976 l 218 993 q 263 1085 240 1047 q 321 1124 286 1124 q 419 1096 356 1124 q 518 1068 482 1068 q 560 1092 542 1068 q 578 1117 578 1117 l 621 1100 z "},"Z":{"ha":719,"x_min":60,"x_max":658,"o":"m 658 204 l 643 0 l 85 0 l 60 46 l 514 775 l 185 775 l 154 665 l 101 665 l 89 849 l 647 849 l 654 804 l 204 75 l 553 75 l 604 204 l 658 204 z "},"Ź":{"ha":719,"x_min":60,"x_max":658,"o":"m 658 204 l 643 0 l 85 0 l 60 46 l 514 775 l 185 775 l 154 665 l 101 665 l 89 849 l 647 849 l 654 804 l 204 75 l 553 75 l 604 204 l 658 204 m 250 903 l 228 929 l 442 1110 l 547 1071 l 547 1046 l 250 903 z "},"Ž":{"ha":719,"x_min":65,"x_max":664,"o":"m 90 0 l 65 46 l 519 775 l 190 775 l 160 665 l 107 665 l 94 849 l 653 849 l 660 804 l 210 75 l 558 75 l 610 204 l 664 204 l 649 0 l 90 0 m 347 904 l 206 1086 l 229 1111 l 390 997 l 544 1111 l 569 1086 l 431 904 l 347 904 z "},"Ż":{"ha":719,"x_min":60,"x_max":658,"o":"m 658 204 l 643 0 l 85 0 l 60 46 l 514 775 l 185 775 l 154 665 l 101 665 l 89 849 l 647 849 l 654 804 l 204 75 l 553 75 l 604 204 l 658 204 m 460 1007 q 434 950 460 972 q 376 928 408 928 q 318 950 343 928 q 293 1007 293 972 q 318 1066 293 1042 q 376 1090 343 1090 q 434 1066 408 1090 q 460 1007 460 1042 z "},"Ẓ":{"ha":719,"x_min":60,"x_max":658,"o":"m 658 204 l 643 0 l 85 0 l 60 46 l 514 775 l 185 775 l 154 665 l 101 665 l 89 849 l 647 849 l 654 804 l 204 75 l 553 75 l 604 204 l 658 204 m 443 -140 q 417 -197 443 -175 q 360 -219 392 -219 q 301 -197 326 -219 q 276 -140 276 -175 q 301 -81 276 -106 q 360 -57 326 -57 q 417 -81 392 -57 q 443 -140 443 -106 z "},"a":{"ha":707,"x_min":56,"x_max":682,"o":"m 321 619 q 183 600 250 619 l 150 481 l 108 481 l 85 643 q 209 680 143 665 q 346 694 275 694 q 499 662 442 694 q 557 543 557 629 l 557 81 l 682 56 l 682 17 q 603 -1 642 4 q 536 -6 564 -6 q 477 13 503 -6 q 444 71 451 32 q 332 8 392 32 q 204 -15 272 -15 q 93 38 131 -15 q 56 156 56 92 q 86 267 56 206 q 232 349 117 328 l 442 386 l 442 503 q 418 588 442 556 q 321 619 394 619 m 297 301 q 202 254 228 290 q 176 176 176 218 q 205 94 176 117 q 278 71 233 71 q 363 88 317 71 q 442 122 408 104 l 442 325 l 297 301 z "},"á":{"ha":707,"x_min":56,"x_max":682,"o":"m 321 619 q 183 600 250 619 l 150 481 l 108 481 l 85 643 q 209 680 143 665 q 346 694 275 694 q 499 662 442 694 q 557 543 557 629 l 557 81 l 682 56 l 682 17 q 603 -1 642 4 q 536 -6 564 -6 q 477 13 503 -6 q 444 71 451 32 q 332 8 392 32 q 204 -15 272 -15 q 93 38 131 -15 q 56 156 56 92 q 86 267 56 206 q 232 349 117 328 l 442 386 l 442 503 q 418 588 442 556 q 321 619 394 619 m 297 301 q 202 254 228 290 q 176 176 176 218 q 205 94 176 117 q 278 71 233 71 q 363 88 317 71 q 442 122 408 104 l 442 325 l 297 301 m 243 775 l 221 801 l 435 982 l 540 943 l 540 918 l 243 775 z "},"ă":{"ha":707,"x_min":56,"x_max":682,"o":"m 321 619 q 183 600 250 619 l 150 481 l 108 481 l 85 643 q 209 680 143 665 q 346 694 275 694 q 499 662 442 694 q 557 543 557 629 l 557 81 l 682 56 l 682 17 q 603 -1 642 4 q 536 -6 564 -6 q 477 13 503 -6 q 444 71 451 32 q 332 8 392 32 q 204 -15 272 -15 q 93 38 131 -15 q 56 156 56 92 q 86 267 56 206 q 232 349 117 328 l 442 386 l 442 503 q 418 588 442 556 q 321 619 394 619 m 297 301 q 202 254 228 290 q 176 176 176 218 q 205 94 176 117 q 278 71 233 71 q 363 88 317 71 q 442 122 408 104 l 442 325 l 297 301 m 319 803 q 189 851 222 803 q 156 961 156 900 l 203 964 q 224 904 203 931 q 317 878 246 878 q 412 904 389 878 q 435 964 435 931 l 481 961 q 448 851 481 900 q 319 803 415 803 z "},"ắ":{"ha":707,"x_min":56,"x_max":682,"o":"m 321 619 q 183 600 250 619 l 150 481 l 108 481 l 85 643 q 209 680 143 665 q 346 694 275 694 q 499 662 442 694 q 557 543 557 629 l 557 81 l 682 56 l 682 17 q 603 -1 642 4 q 536 -6 564 -6 q 477 13 503 -6 q 444 71 451 32 q 332 8 392 32 q 204 -15 272 -15 q 93 38 131 -15 q 56 156 56 92 q 86 267 56 206 q 232 349 117 328 l 442 386 l 442 503 q 418 588 442 556 q 321 619 394 619 m 297 301 q 202 254 228 290 q 176 176 176 218 q 205 94 176 117 q 278 71 233 71 q 363 88 317 71 q 442 122 408 104 l 442 325 l 297 301 z "},"ặ":{"ha":707,"x_min":56,"x_max":682,"o":"m 321 619 q 183 600 250 619 l 150 481 l 108 481 l 85 643 q 209 680 143 665 q 346 694 275 694 q 499 662 442 694 q 557 543 557 629 l 557 81 l 682 56 l 682 17 q 603 -1 642 4 q 536 -6 564 -6 q 477 13 503 -6 q 444 71 451 32 q 332 8 392 32 q 204 -15 272 -15 q 93 38 131 -15 q 56 156 56 92 q 86 267 56 206 q 232 349 117 328 l 442 386 l 442 503 q 418 588 442 556 q 321 619 394 619 m 297 301 q 202 254 228 290 q 176 176 176 218 q 205 94 176 117 q 278 71 233 71 q 363 88 317 71 q 442 122 408 104 l 442 325 l 297 301 m 429 -140 q 403 -197 429 -175 q 346 -219 378 -219 q 288 -197 313 -219 q 263 -140 263 -175 q 288 -81 263 -106 q 346 -57 313 -57 q 403 -81 378 -57 q 429 -140 429 -106 m 347 803 q 217 851 250 803 q 183 961 183 900 l 231 964 q 252 904 231 931 q 344 878 274 878 q 440 904 417 878 q 463 964 463 931 l 508 961 q 476 851 508 900 q 347 803 443 803 z "},"ằ":{"ha":707,"x_min":56,"x_max":682,"o":"m 321 619 q 183 600 250 619 l 150 481 l 108 481 l 85 643 q 209 680 143 665 q 346 694 275 694 q 499 662 442 694 q 557 543 557 629 l 557 81 l 682 56 l 682 17 q 603 -1 642 4 q 536 -6 564 -6 q 477 13 503 -6 q 444 71 451 32 q 332 8 392 32 q 204 -15 272 -15 q 93 38 131 -15 q 56 156 56 92 q 86 267 56 206 q 232 349 117 328 l 442 386 l 442 503 q 418 588 442 556 q 321 619 394 619 m 297 301 q 202 254 228 290 q 176 176 176 218 q 205 94 176 117 q 278 71 233 71 q 363 88 317 71 q 442 122 408 104 l 442 325 l 297 301 z "},"ẳ":{"ha":707,"x_min":56,"x_max":682,"o":"m 321 619 q 183 600 250 619 l 150 481 l 108 481 l 85 643 q 209 680 143 665 q 346 694 275 694 q 499 662 442 694 q 557 543 557 629 l 557 81 l 682 56 l 682 17 q 603 -1 642 4 q 536 -6 564 -6 q 477 13 503 -6 q 444 71 451 32 q 332 8 392 32 q 204 -15 272 -15 q 93 38 131 -15 q 56 156 56 92 q 86 267 56 206 q 232 349 117 328 l 442 386 l 442 503 q 418 588 442 556 q 321 619 394 619 m 297 301 q 202 254 228 290 q 176 176 176 218 q 205 94 176 117 q 278 71 233 71 q 363 88 317 71 q 442 122 408 104 l 442 325 l 297 301 m 483 1057 q 461 1011 483 1033 q 372 983 439 989 l 404 1011 l 389 951 l 336 951 l 331 1007 q 392 1019 375 1007 q 408 1051 408 1032 q 360 1089 408 1089 q 326 1086 347 1089 q 279 1079 304 1083 l 271 1117 q 365 1125 322 1125 q 483 1057 483 1125 m 279 1043 l 271 1117 l 319 1118 l 333 1093 l 321 1043 l 279 1043 z "},"ẵ":{"ha":707,"x_min":56,"x_max":682,"o":"m 321 619 q 183 600 250 619 l 150 481 l 108 481 l 85 643 q 209 680 143 665 q 346 694 275 694 q 499 662 442 694 q 557 543 557 629 l 557 81 l 682 56 l 682 17 q 603 -1 642 4 q 536 -6 564 -6 q 477 13 503 -6 q 444 71 451 32 q 332 8 392 32 q 204 -15 272 -15 q 93 38 131 -15 q 56 156 56 92 q 86 267 56 206 q 232 349 117 328 l 442 386 l 442 503 q 418 588 442 556 q 321 619 394 619 m 297 301 q 202 254 228 290 q 176 176 176 218 q 205 94 176 117 q 278 71 233 71 q 363 88 317 71 q 442 122 408 104 l 442 325 l 297 301 z "},"ǎ":{"ha":707,"x_min":56,"x_max":682,"o":"m 321 619 q 183 600 250 619 l 150 481 l 108 481 l 85 643 q 209 680 143 665 q 346 694 275 694 q 499 662 442 694 q 557 543 557 629 l 557 81 l 682 56 l 682 17 q 603 -1 642 4 q 536 -6 564 -6 q 477 13 503 -6 q 444 71 451 32 q 332 8 392 32 q 204 -15 272 -15 q 93 38 131 -15 q 56 156 56 92 q 86 267 56 206 q 232 349 117 328 l 442 386 l 442 503 q 418 588 442 556 q 321 619 394 619 m 297 301 q 202 254 228 290 q 176 176 176 218 q 205 94 176 117 q 278 71 233 71 q 363 88 317 71 q 442 122 408 104 l 442 325 l 297 301 m 197 993 l 347 868 l 496 993 l 525 968 l 389 775 l 306 775 l 167 968 l 197 993 z "},"â":{"ha":707,"x_min":56,"x_max":682,"o":"m 321 619 q 183 600 250 619 l 150 481 l 108 481 l 85 643 q 209 680 143 665 q 346 694 275 694 q 499 662 442 694 q 557 543 557 629 l 557 81 l 682 56 l 682 17 q 603 -1 642 4 q 536 -6 564 -6 q 477 13 503 -6 q 444 71 451 32 q 332 8 392 32 q 204 -15 272 -15 q 93 38 131 -15 q 56 156 56 92 q 86 267 56 206 q 232 349 117 328 l 442 386 l 442 503 q 418 588 442 556 q 321 619 394 619 m 297 301 q 202 254 228 290 q 176 176 176 218 q 205 94 176 117 q 278 71 233 71 q 363 88 317 71 q 442 122 408 104 l 442 325 l 297 301 m 467 767 l 318 892 l 168 767 l 139 792 l 275 985 l 358 985 l 497 792 l 467 767 z "},"ấ":{"ha":707,"x_min":56,"x_max":767,"o":"m 321 619 q 183 600 250 619 l 150 481 l 108 481 l 85 643 q 209 680 143 665 q 346 694 275 694 q 499 662 442 694 q 557 543 557 629 l 557 81 l 682 56 l 682 17 q 603 -1 642 4 q 536 -6 564 -6 q 477 13 503 -6 q 444 71 451 32 q 332 8 392 32 q 204 -15 272 -15 q 93 38 131 -15 q 56 156 56 92 q 86 267 56 206 q 232 349 117 328 l 442 386 l 442 503 q 418 588 442 556 q 321 619 394 619 m 297 301 q 202 254 228 290 q 176 176 176 218 q 205 94 176 117 q 278 71 233 71 q 363 88 317 71 q 442 122 408 104 l 442 325 l 297 301 m 535 842 l 507 860 l 644 1103 l 758 1103 l 767 1079 l 535 842 m 494 767 l 346 892 l 196 767 l 167 792 l 303 985 l 386 985 l 525 792 l 494 767 z "},"ậ":{"ha":707,"x_min":56,"x_max":682,"o":"m 321 619 q 183 600 250 619 l 150 481 l 108 481 l 85 643 q 209 680 143 665 q 346 694 275 694 q 499 662 442 694 q 557 543 557 629 l 557 81 l 682 56 l 682 17 q 603 -1 642 4 q 536 -6 564 -6 q 477 13 503 -6 q 444 71 451 32 q 332 8 392 32 q 204 -15 272 -15 q 93 38 131 -15 q 56 156 56 92 q 86 267 56 206 q 232 349 117 328 l 442 386 l 442 503 q 418 588 442 556 q 321 619 394 619 m 297 301 q 202 254 228 290 q 176 176 176 218 q 205 94 176 117 q 278 71 233 71 q 363 88 317 71 q 442 122 408 104 l 442 325 l 297 301 m 429 -140 q 403 -197 429 -175 q 346 -219 378 -219 q 288 -197 313 -219 q 263 -140 263 -175 q 288 -81 263 -106 q 346 -57 313 -57 q 403 -81 378 -57 q 429 -140 429 -106 m 494 767 l 346 892 l 196 767 l 167 792 l 303 985 l 386 985 l 525 792 l 494 767 z "},"ầ":{"ha":707,"x_min":56,"x_max":682,"o":"m 321 619 q 183 600 250 619 l 150 481 l 108 481 l 85 643 q 209 680 143 665 q 346 694 275 694 q 499 662 442 694 q 557 543 557 629 l 557 81 l 682 56 l 682 17 q 603 -1 642 4 q 536 -6 564 -6 q 477 13 503 -6 q 444 71 451 32 q 332 8 392 32 q 204 -15 272 -15 q 93 38 131 -15 q 56 156 56 92 q 86 267 56 206 q 232 349 117 328 l 442 386 l 442 503 q 418 588 442 556 q 321 619 394 619 m 297 301 q 202 254 228 290 q 176 176 176 218 q 205 94 176 117 q 278 71 233 71 q 363 88 317 71 q 442 122 408 104 l 442 325 l 297 301 m 576 842 l 344 1079 l 353 1103 l 467 1103 l 604 860 l 576 842 m 481 767 l 332 892 l 182 767 l 153 792 l 289 985 l 372 985 l 511 792 l 481 767 z "},"ẩ":{"ha":707,"x_min":56,"x_max":682,"o":"m 321 619 q 183 600 250 619 l 150 481 l 108 481 l 85 643 q 209 680 143 665 q 346 694 275 694 q 499 662 442 694 q 557 543 557 629 l 557 81 l 682 56 l 682 17 q 603 -1 642 4 q 536 -6 564 -6 q 477 13 503 -6 q 444 71 451 32 q 332 8 392 32 q 204 -15 272 -15 q 93 38 131 -15 q 56 156 56 92 q 86 267 56 206 q 232 349 117 328 l 442 386 l 442 503 q 418 588 442 556 q 321 619 394 619 m 297 301 q 202 254 228 290 q 176 176 176 218 q 205 94 176 117 q 278 71 233 71 q 363 88 317 71 q 442 122 408 104 l 442 325 l 297 301 m 494 767 l 346 892 l 196 767 l 167 792 l 303 985 l 386 985 l 525 792 l 494 767 m 617 1035 q 594 989 617 1011 q 506 961 572 967 l 538 989 l 522 929 l 469 929 l 464 985 q 525 997 508 985 q 542 1029 542 1010 q 493 1067 542 1067 q 459 1064 481 1067 q 413 1057 438 1061 l 404 1094 q 499 1103 456 1103 q 617 1035 617 1103 m 413 1021 l 404 1094 l 453 1096 l 467 1071 l 454 1021 l 413 1021 z "},"ẫ":{"ha":707,"x_min":56,"x_max":682,"o":"m 321 619 q 183 600 250 619 l 150 481 l 108 481 l 85 643 q 209 680 143 665 q 346 694 275 694 q 499 662 442 694 q 557 543 557 629 l 557 81 l 682 56 l 682 17 q 603 -1 642 4 q 536 -6 564 -6 q 477 13 503 -6 q 444 71 451 32 q 332 8 392 32 q 204 -15 272 -15 q 93 38 131 -15 q 56 156 56 92 q 86 267 56 206 q 232 349 117 328 l 442 386 l 442 503 q 418 588 442 556 q 321 619 394 619 m 297 301 q 202 254 228 290 q 176 176 176 218 q 205 94 176 117 q 278 71 233 71 q 363 88 317 71 q 442 122 408 104 l 442 325 l 297 301 z "},"ȁ":{"ha":707,"x_min":56,"x_max":682,"o":"m 321 619 q 183 600 250 619 l 150 481 l 108 481 l 85 643 q 209 680 143 665 q 346 694 275 694 q 499 662 442 694 q 557 543 557 629 l 557 81 l 682 56 l 682 17 q 603 -1 642 4 q 536 -6 564 -6 q 477 13 503 -6 q 444 71 451 32 q 332 8 392 32 q 204 -15 272 -15 q 93 38 131 -15 q 56 156 56 92 q 86 267 56 206 q 232 349 117 328 l 442 386 l 442 503 q 418 588 442 556 q 321 619 394 619 m 297 301 q 202 254 228 290 q 176 176 176 218 q 205 94 176 117 q 278 71 233 71 q 363 88 317 71 q 442 122 408 104 l 442 325 l 297 301 m 490 756 l 288 968 l 288 992 l 392 992 l 517 771 l 490 756 m 267 756 l 64 968 l 64 992 l 168 992 l 293 771 l 267 756 z "},"ä":{"ha":707,"x_min":56,"x_max":682,"o":"m 321 619 q 183 600 250 619 l 150 481 l 108 481 l 85 643 q 209 680 143 665 q 346 694 275 694 q 499 662 442 694 q 557 543 557 629 l 557 81 l 682 56 l 682 17 q 603 -1 642 4 q 536 -6 564 -6 q 477 13 503 -6 q 444 71 451 32 q 332 8 392 32 q 204 -15 272 -15 q 93 38 131 -15 q 56 156 56 92 q 86 267 56 206 q 232 349 117 328 l 442 386 l 442 503 q 418 588 442 556 q 321 619 394 619 m 297 301 q 202 254 228 290 q 176 176 176 218 q 205 94 176 117 q 278 71 233 71 q 363 88 317 71 q 442 122 408 104 l 442 325 l 297 301 m 265 882 q 241 828 265 850 q 186 806 217 806 q 131 828 156 806 q 107 882 107 850 q 131 939 107 915 q 186 963 156 963 q 241 939 217 963 q 265 882 265 915 m 536 882 q 511 828 536 850 q 456 806 486 806 q 401 828 425 806 q 376 882 376 850 q 401 939 376 915 q 456 963 425 963 q 511 939 486 963 q 536 882 536 915 z "},"ạ":{"ha":707,"x_min":56,"x_max":682,"o":"m 321 619 q 183 600 250 619 l 150 481 l 108 481 l 85 643 q 209 680 143 665 q 346 694 275 694 q 499 662 442 694 q 557 543 557 629 l 557 81 l 682 56 l 682 17 q 603 -1 642 4 q 536 -6 564 -6 q 477 13 503 -6 q 444 71 451 32 q 332 8 392 32 q 204 -15 272 -15 q 93 38 131 -15 q 56 156 56 92 q 86 267 56 206 q 232 349 117 328 l 442 386 l 442 503 q 418 588 442 556 q 321 619 394 619 m 297 301 q 202 254 228 290 q 176 176 176 218 q 205 94 176 117 q 278 71 233 71 q 363 88 317 71 q 442 122 408 104 l 442 325 l 297 301 m 429 -140 q 403 -197 429 -175 q 346 -219 378 -219 q 288 -197 313 -219 q 263 -140 263 -175 q 288 -81 263 -106 q 346 -57 313 -57 q 403 -81 378 -57 q 429 -140 429 -106 z "},"à":{"ha":707,"x_min":56,"x_max":682,"o":"m 321 619 q 183 600 250 619 l 150 481 l 108 481 l 85 643 q 209 680 143 665 q 346 694 275 694 q 499 662 442 694 q 557 543 557 629 l 557 81 l 682 56 l 682 17 q 603 -1 642 4 q 536 -6 564 -6 q 477 13 503 -6 q 444 71 451 32 q 332 8 392 32 q 204 -15 272 -15 q 93 38 131 -15 q 56 156 56 92 q 86 267 56 206 q 232 349 117 328 l 442 386 l 442 503 q 418 588 442 556 q 321 619 394 619 m 297 301 q 202 254 228 290 q 176 176 176 218 q 205 94 176 117 q 278 71 233 71 q 363 88 317 71 q 442 122 408 104 l 442 325 l 297 301 m 446 775 l 146 918 l 146 943 l 253 982 l 465 801 l 446 775 z "},"ả":{"ha":707,"x_min":56,"x_max":682,"o":"m 321 619 q 183 600 250 619 l 150 481 l 108 481 l 85 643 q 209 680 143 665 q 346 694 275 694 q 499 662 442 694 q 557 543 557 629 l 557 81 l 682 56 l 682 17 q 603 -1 642 4 q 536 -6 564 -6 q 477 13 503 -6 q 444 71 451 32 q 332 8 392 32 q 204 -15 272 -15 q 93 38 131 -15 q 56 156 56 92 q 86 267 56 206 q 232 349 117 328 l 442 386 l 442 503 q 418 588 442 556 q 321 619 394 619 m 297 301 q 202 254 228 290 q 176 176 176 218 q 205 94 176 117 q 278 71 233 71 q 363 88 317 71 q 442 122 408 104 l 442 325 l 297 301 m 481 878 q 458 832 481 854 q 369 804 436 810 l 401 832 l 386 772 l 333 772 l 328 828 q 389 840 372 828 q 406 872 406 853 q 357 910 406 910 q 323 907 344 910 q 276 900 301 904 l 268 938 q 363 946 319 946 q 481 878 481 946 m 276 864 l 268 938 l 317 939 l 331 914 l 318 864 l 276 864 z "},"ȃ":{"ha":707,"x_min":56,"x_max":682,"o":"m 321 619 q 183 600 250 619 l 150 481 l 108 481 l 85 643 q 209 680 143 665 q 346 694 275 694 q 499 662 442 694 q 557 543 557 629 l 557 81 l 682 56 l 682 17 q 603 -1 642 4 q 536 -6 564 -6 q 477 13 503 -6 q 444 71 451 32 q 332 8 392 32 q 204 -15 272 -15 q 93 38 131 -15 q 56 156 56 92 q 86 267 56 206 q 232 349 117 328 l 442 386 l 442 503 q 418 588 442 556 q 321 619 394 619 m 297 301 q 202 254 228 290 q 176 176 176 218 q 205 94 176 117 q 278 71 233 71 q 363 88 317 71 q 442 122 408 104 l 442 325 l 297 301 m 344 978 q 475 929 442 978 q 508 819 508 881 l 461 817 q 440 876 461 850 q 347 903 418 903 q 252 876 275 903 q 229 817 229 850 l 183 819 q 216 929 183 881 q 344 978 249 978 z "},"ā":{"ha":707,"x_min":56,"x_max":682,"o":"m 321 619 q 183 600 250 619 l 150 481 l 108 481 l 85 643 q 209 680 143 665 q 346 694 275 694 q 499 662 442 694 q 557 543 557 629 l 557 81 l 682 56 l 682 17 q 603 -1 642 4 q 536 -6 564 -6 q 477 13 503 -6 q 444 71 451 32 q 332 8 392 32 q 204 -15 272 -15 q 93 38 131 -15 q 56 156 56 92 q 86 267 56 206 q 232 349 117 328 l 442 386 l 442 503 q 418 588 442 556 q 321 619 394 619 m 297 301 q 202 254 228 290 q 176 176 176 218 q 205 94 176 117 q 278 71 233 71 q 363 88 317 71 q 442 122 408 104 l 442 325 l 297 301 m 163 918 l 464 918 l 464 846 l 163 846 l 163 918 z "},"ą":{"ha":707,"x_min":56,"x_max":682,"o":"m 551 -328 q 451 -291 482 -328 q 419 -210 419 -254 q 465 -88 419 -150 q 586 17 511 -26 l 586 -6 l 536 -6 q 477 13 503 -6 q 444 71 451 32 q 332 8 392 32 q 204 -15 272 -15 q 93 38 131 -15 q 56 156 56 92 q 86 267 56 206 q 232 349 117 328 l 442 386 l 442 503 q 418 588 442 556 q 321 619 394 619 q 183 600 250 619 l 150 481 l 108 481 l 85 643 q 209 680 143 665 q 346 694 275 694 q 499 662 442 694 q 557 543 557 629 l 557 81 l 682 56 l 682 17 q 554 -63 594 -11 q 514 -185 514 -115 q 589 -267 514 -267 q 625 -260 607 -267 q 658 -236 643 -253 l 682 -258 q 650 -293 682 -258 q 551 -328 618 -328 m 278 71 q 363 88 317 71 q 442 122 408 104 l 442 325 l 297 301 q 202 254 228 290 q 176 176 176 218 q 205 94 176 117 q 278 71 233 71 z "},"å":{"ha":707,"x_min":56,"x_max":682,"o":"m 321 619 q 183 600 250 619 l 150 481 l 108 481 l 85 643 q 209 680 143 665 q 346 694 275 694 q 499 662 442 694 q 557 543 557 629 l 557 81 l 682 56 l 682 17 q 603 -1 642 4 q 536 -6 564 -6 q 477 13 503 -6 q 444 71 451 32 q 332 8 392 32 q 204 -15 272 -15 q 93 38 131 -15 q 56 156 56 92 q 86 267 56 206 q 232 349 117 328 l 442 386 l 442 503 q 418 588 442 556 q 321 619 394 619 m 297 301 q 202 254 228 290 q 176 176 176 218 q 205 94 176 117 q 278 71 233 71 q 363 88 317 71 q 442 122 408 104 l 442 325 l 297 301 m 464 874 q 428 775 464 815 q 321 735 393 735 q 212 775 247 735 q 176 874 176 815 q 212 974 176 933 q 321 1014 247 1014 q 428 974 393 1014 q 464 874 464 933 m 321 965 q 265 939 278 965 q 251 874 251 913 q 265 810 251 836 q 321 783 278 783 q 376 810 364 783 q 389 874 389 836 q 376 939 389 913 q 321 965 364 965 z "},"ǻ":{"ha":707,"x_min":56,"x_max":682,"o":"m 321 619 q 183 600 250 619 l 150 481 l 108 481 l 85 643 q 209 680 143 665 q 346 694 275 694 q 499 662 442 694 q 557 543 557 629 l 557 81 l 682 56 l 682 17 q 603 -1 642 4 q 536 -6 564 -6 q 477 13 503 -6 q 444 71 451 32 q 332 8 392 32 q 204 -15 272 -15 q 93 38 131 -15 q 56 156 56 92 q 86 267 56 206 q 232 349 117 328 l 442 386 l 442 503 q 418 588 442 556 q 321 619 394 619 m 297 301 q 202 254 228 290 q 176 176 176 218 q 205 94 176 117 q 278 71 233 71 q 363 88 317 71 q 442 122 408 104 l 442 325 l 297 301 z "},"ã":{"ha":707,"x_min":56,"x_max":682,"o":"m 321 619 q 183 600 250 619 l 150 481 l 108 481 l 85 643 q 209 680 143 665 q 346 694 275 694 q 499 662 442 694 q 557 543 557 629 l 557 81 l 682 56 l 682 17 q 603 -1 642 4 q 536 -6 564 -6 q 477 13 503 -6 q 444 71 451 32 q 332 8 392 32 q 204 -15 272 -15 q 93 38 131 -15 q 56 156 56 92 q 86 267 56 206 q 232 349 117 328 l 442 386 l 442 503 q 418 588 442 556 q 321 619 394 619 m 297 301 q 202 254 228 290 q 176 176 176 218 q 205 94 176 117 q 278 71 233 71 q 363 88 317 71 q 442 122 408 104 l 442 325 l 297 301 m 529 938 q 484 847 507 885 q 428 808 461 808 q 328 836 392 808 q 231 864 265 864 q 188 839 208 864 q 168 814 168 814 l 126 831 q 172 923 149 885 q 229 961 194 961 q 327 933 264 961 q 426 906 390 906 q 468 930 450 906 q 486 954 486 954 l 529 938 z "},"æ":{"ha":939,"x_min":42,"x_max":911,"o":"m 194 -14 q 74 44 106 -14 q 42 165 42 101 q 79 259 42 214 q 219 325 117 304 l 399 361 l 399 504 q 377 588 399 556 q 285 619 356 619 q 225 615 253 619 q 167 600 197 610 l 136 482 l 93 482 l 69 643 q 181 680 125 665 q 308 694 238 694 q 424 677 378 694 q 496 615 471 660 q 575 676 532 657 q 668 694 618 694 q 836 641 761 694 q 911 443 911 588 q 911 418 911 428 q 908 393 911 408 l 506 321 q 547 124 506 188 q 678 60 588 60 q 783 68 732 60 q 876 89 833 76 l 886 46 q 779 0 832 15 q 653 -15 726 -15 q 504 15 550 -15 q 424 88 458 46 q 323 16 372 46 q 194 -14 274 -14 m 260 67 q 330 83 299 67 q 399 126 361 99 l 399 301 l 281 279 q 183 241 207 265 q 160 175 160 217 q 184 97 160 128 q 260 67 208 67 m 507 379 l 788 439 q 781 515 788 472 q 748 591 774 558 q 668 624 722 624 q 553 565 593 624 q 507 379 514 506 z "},"ǽ":{"ha":939,"x_min":42,"x_max":911,"o":"m 194 -14 q 74 44 106 -14 q 42 165 42 101 q 79 259 42 214 q 219 325 117 304 l 399 361 l 399 504 q 377 588 399 556 q 285 619 356 619 q 225 615 253 619 q 167 600 197 610 l 136 482 l 93 482 l 69 643 q 181 680 125 665 q 308 694 238 694 q 424 677 378 694 q 496 615 471 660 q 575 676 532 657 q 668 694 618 694 q 836 641 761 694 q 911 443 911 588 q 911 418 911 428 q 908 393 911 408 l 506 321 q 547 124 506 188 q 678 60 588 60 q 783 68 732 60 q 876 89 833 76 l 886 46 q 779 0 832 15 q 653 -15 726 -15 q 504 15 550 -15 q 424 88 458 46 q 323 16 372 46 q 194 -14 274 -14 m 260 67 q 330 83 299 67 q 399 126 361 99 l 399 301 l 281 279 q 183 241 207 265 q 160 175 160 217 q 184 97 160 128 q 260 67 208 67 m 507 379 l 788 439 q 781 515 788 472 q 748 591 774 558 q 668 624 722 624 q 553 565 593 624 q 507 379 514 506 m 367 775 l 344 801 l 558 982 l 664 943 l 664 918 l 367 775 z "},"b":{"ha":771,"x_min":-7,"x_max":714,"o":"m 232 658 q 307 683 264 672 q 385 694 350 694 q 626 611 539 694 q 714 346 714 528 q 686 176 714 258 q 586 40 658 93 q 381 -14 514 -14 q 244 -3 325 -14 q 115 25 163 8 l 115 911 l -7 925 l -7 957 l 197 1010 l 232 1010 l 232 658 m 232 72 q 288 55 251 63 q 369 47 325 47 q 542 122 497 47 q 586 343 586 197 q 544 553 586 479 q 375 628 501 628 q 297 619 331 628 q 232 596 264 610 l 232 72 z "},"c":{"ha":611,"x_min":57,"x_max":582,"o":"m 357 -14 q 126 90 196 -14 q 57 338 57 193 q 126 590 57 486 q 357 694 194 694 q 472 684 422 694 q 579 651 522 674 l 553 481 l 510 481 l 476 606 q 358 624 419 624 q 219 547 254 624 q 185 342 185 469 q 220 140 185 218 q 364 61 256 61 q 474 69 417 61 q 574 92 531 78 l 582 47 q 474 2 525 18 q 357 -14 422 -14 z "},"ć":{"ha":611,"x_min":54,"x_max":579,"o":"m 354 -14 q 124 90 193 -14 q 54 338 54 193 q 123 590 54 486 q 354 694 192 694 q 469 684 419 694 q 576 651 519 674 l 550 481 l 507 481 l 474 606 q 356 624 417 624 q 217 547 251 624 q 182 342 182 469 q 217 140 182 218 q 361 61 253 61 q 471 69 414 61 q 571 92 528 78 l 579 47 q 471 2 522 18 q 354 -14 419 -14 m 221 775 l 199 801 l 413 982 l 518 943 l 518 918 l 221 775 z "},"č":{"ha":611,"x_min":54,"x_max":579,"o":"m 354 -14 q 124 90 193 -14 q 54 338 54 193 q 123 590 54 486 q 354 694 192 694 q 469 684 419 694 q 576 651 519 674 l 550 481 l 507 481 l 474 606 q 356 624 417 624 q 217 547 251 624 q 182 342 182 469 q 217 140 182 218 q 361 61 253 61 q 471 69 414 61 q 571 92 528 78 l 579 47 q 471 2 522 18 q 354 -14 419 -14 m 203 993 l 353 868 l 501 993 l 531 968 l 394 775 l 311 775 l 172 968 l 203 993 z "},"ç":{"ha":611,"x_min":54,"x_max":579,"o":"m 299 -304 q 226 -293 258 -304 l 238 -258 q 286 -267 264 -267 q 365 -239 335 -267 q 396 -172 396 -211 q 372 -125 396 -144 q 289 -106 347 -106 l 285 -93 l 313 -11 q 114 103 174 3 q 54 338 54 203 q 123 590 54 486 q 354 694 192 694 q 469 684 419 694 q 576 651 519 674 l 550 481 l 507 481 l 474 606 q 356 624 417 624 q 217 547 251 624 q 182 342 182 469 q 217 140 182 218 q 361 61 253 61 q 471 69 414 61 q 571 92 528 78 l 579 47 q 471 2 522 18 q 354 -14 419 -14 l 338 -64 q 450 -93 414 -64 q 486 -161 486 -122 q 430 -262 486 -221 q 299 -304 374 -304 z "},"ĉ":{"ha":611,"x_min":57,"x_max":582,"o":"m 357 -14 q 126 90 196 -14 q 57 338 57 193 q 126 590 57 486 q 357 694 194 694 q 472 684 422 694 q 579 651 522 674 l 553 481 l 510 481 l 476 606 q 358 624 419 624 q 219 547 254 624 q 185 342 185 469 q 220 140 185 218 q 364 61 256 61 q 474 69 417 61 q 574 92 531 78 l 582 47 q 474 2 525 18 q 357 -14 422 -14 m 510 767 l 361 892 l 211 767 l 182 792 l 318 985 l 401 985 l 540 792 l 510 767 z "},"ċ":{"ha":611,"x_min":57,"x_max":582,"o":"m 357 -14 q 126 90 196 -14 q 57 338 57 193 q 126 590 57 486 q 357 694 194 694 q 472 684 422 694 q 579 651 522 674 l 553 481 l 510 481 l 476 606 q 358 624 419 624 q 219 547 254 624 q 185 342 185 469 q 220 140 185 218 q 364 61 256 61 q 474 69 417 61 q 574 92 531 78 l 582 47 q 474 2 525 18 q 357 -14 422 -14 m 444 885 q 419 828 444 850 q 361 806 393 806 q 303 828 328 806 q 278 885 278 850 q 303 944 278 919 q 361 968 328 968 q 419 944 393 968 q 444 885 444 919 z "},"d":{"ha":796,"x_min":57,"x_max":775,"o":"m 540 64 q 433 8 489 29 q 304 -14 378 -14 q 119 92 181 -14 q 57 338 57 199 q 140 599 57 503 q 374 694 222 694 q 486 681 436 694 q 536 664 536 667 l 536 911 l 411 925 l 411 957 l 614 1010 l 651 1010 l 651 81 l 775 56 l 775 17 q 696 -1 735 4 q 628 -6 657 -6 q 573 13 600 -6 q 540 64 546 31 m 358 67 q 462 86 414 67 q 536 121 510 106 l 536 588 q 464 617 503 606 q 378 629 425 629 q 234 551 283 629 q 185 342 185 474 q 227 143 185 219 q 358 67 269 67 z "},"ð":{"ha":760,"x_min":57,"x_max":703,"o":"m 379 -14 q 131 89 206 -14 q 57 338 57 192 q 130 590 57 485 q 379 694 203 694 q 543 631 482 694 q 500 735 526 686 q 442 828 474 783 l 249 717 l 218 769 l 404 876 q 338 949 372 914 q 267 1014 303 983 l 296 1053 q 394 990 349 1024 q 476 918 439 956 l 667 1028 l 699 975 l 518 871 q 667 587 631 735 q 703 350 703 439 q 671 165 703 247 q 567 34 639 82 q 379 -14 496 -14 m 383 53 q 540 141 506 53 q 575 343 575 229 q 538 541 575 453 q 375 629 500 629 q 222 540 257 629 q 186 343 186 451 q 224 143 186 233 q 383 53 263 53 z "},"ď":{"ha":828,"x_min":57,"x_max":849,"o":"m 304 -14 q 119 92 181 -14 q 57 338 57 199 q 140 599 57 503 q 374 694 222 694 q 486 681 436 694 q 536 664 536 667 l 536 911 l 411 925 l 411 957 l 614 1010 l 651 1010 l 651 81 l 775 56 l 775 17 q 696 -1 735 4 q 628 -6 657 -6 q 573 13 600 -6 q 540 64 546 31 q 433 8 489 29 q 304 -14 378 -14 m 358 67 q 462 86 414 67 q 536 121 510 106 l 536 588 q 464 617 503 606 q 378 629 425 629 q 234 551 283 629 q 185 342 185 474 q 227 143 185 219 q 358 67 269 67 m 774 713 l 733 1008 l 772 1008 l 849 983 l 806 713 l 774 713 z "},"đ":{"ha":800,"x_min":57,"x_max":775,"o":"m 304 -14 q 119 92 181 -14 q 57 338 57 199 q 140 599 57 503 q 374 694 222 694 q 483 678 431 694 q 536 658 536 661 l 536 929 l 411 958 l 411 989 l 614 1010 l 651 1010 l 651 81 l 775 56 l 775 17 q 696 -1 735 4 q 628 -6 657 -6 q 573 13 600 -6 q 540 64 546 31 q 433 8 489 29 q 304 -14 378 -14 m 358 67 q 462 83 414 67 q 536 115 510 100 l 536 593 q 381 629 464 629 q 231 551 281 629 q 182 342 182 474 q 224 143 182 219 q 358 67 265 67 m 338 811 l 338 875 l 744 875 l 744 811 l 338 811 z "},"ḍ":{"ha":796,"x_min":57,"x_max":775,"o":"m 540 64 q 433 8 489 29 q 304 -14 378 -14 q 119 92 181 -14 q 57 338 57 199 q 140 599 57 503 q 374 694 222 694 q 486 681 436 694 q 536 664 536 667 l 536 911 l 411 925 l 411 957 l 614 1010 l 651 1010 l 651 81 l 775 56 l 775 17 q 696 -1 735 4 q 628 -6 657 -6 q 573 13 600 -6 q 540 64 546 31 m 358 67 q 462 86 414 67 q 536 121 510 106 l 536 588 q 464 617 503 606 q 378 629 425 629 q 234 551 283 629 q 185 342 185 474 q 227 143 185 219 q 358 67 269 67 m 482 -140 q 456 -197 482 -175 q 399 -219 431 -219 q 340 -197 365 -219 q 315 -140 315 -175 q 340 -81 315 -106 q 399 -57 365 -57 q 456 -81 431 -57 q 482 -140 482 -106 z "},"ǳ":{"ha":1435,"x_min":57,"x_max":1382,"o":"m 540 64 q 433 8 489 29 q 304 -14 378 -14 q 119 92 181 -14 q 57 338 57 199 q 140 599 57 503 q 374 694 222 694 q 486 681 436 694 q 536 664 536 667 l 536 911 l 411 925 l 411 957 l 614 1010 l 651 1010 l 651 81 l 775 56 l 775 17 q 696 -1 735 4 q 628 -6 657 -6 q 573 13 600 -6 q 540 64 546 31 m 358 67 q 462 86 414 67 q 536 121 510 106 l 536 588 q 464 617 503 606 q 378 629 425 629 q 234 551 283 629 q 185 342 185 474 q 227 143 185 219 q 358 67 269 67 m 1231 608 l 954 608 l 932 503 l 881 503 l 863 682 l 1358 682 l 1382 636 l 990 71 l 1281 71 l 1324 181 l 1372 181 l 1360 0 l 868 0 l 846 47 l 1231 608 z "},"ǆ":{"ha":1435,"x_min":57,"x_max":1382,"o":"m 540 64 q 433 8 489 29 q 304 -14 378 -14 q 119 92 181 -14 q 57 338 57 199 q 140 599 57 503 q 374 694 222 694 q 486 681 436 694 q 536 664 536 667 l 536 911 l 411 925 l 411 957 l 614 1010 l 651 1010 l 651 81 l 775 56 l 775 17 q 696 -1 735 4 q 628 -6 657 -6 q 573 13 600 -6 q 540 64 546 31 m 358 67 q 462 86 414 67 q 536 121 510 106 l 536 588 q 464 617 503 606 q 378 629 425 629 q 234 551 283 629 q 185 342 185 474 q 227 143 185 219 q 358 67 269 67 m 1231 608 l 954 608 l 932 503 l 881 503 l 863 682 l 1358 682 l 1382 636 l 990 71 l 1281 71 l 1324 181 l 1372 181 l 1360 0 l 868 0 l 846 47 l 1231 608 m 967 993 l 1117 868 l 1265 993 l 1294 968 l 1158 775 l 1075 775 l 936 968 l 967 993 z "},"e":{"ha":654,"x_min":53,"x_max":611,"o":"m 365 -15 q 192 24 261 -15 q 88 143 122 64 q 53 338 53 222 q 129 603 53 511 q 350 694 206 694 q 547 631 483 694 q 611 433 611 568 q 610 400 611 417 q 608 364 610 383 l 181 364 l 181 319 q 234 128 181 197 q 385 58 288 58 q 485 67 429 58 q 593 89 542 75 l 601 46 q 489 -1 542 13 q 365 -15 436 -15 m 183 413 l 486 426 l 486 458 q 456 585 486 544 q 358 626 425 626 q 229 577 269 626 q 183 413 189 528 z "},"é":{"ha":654,"x_min":53,"x_max":611,"o":"m 365 -15 q 192 24 261 -15 q 88 143 122 64 q 53 338 53 222 q 129 603 53 511 q 350 694 206 694 q 547 631 483 694 q 611 433 611 568 q 610 400 611 417 q 608 364 610 383 l 181 364 l 181 319 q 234 128 181 197 q 385 58 288 58 q 485 67 429 58 q 593 89 542 75 l 601 46 q 489 -1 542 13 q 365 -15 436 -15 m 183 413 l 486 426 l 486 458 q 456 585 486 544 q 358 626 425 626 q 229 577 269 626 q 183 413 189 528 m 236 775 l 214 801 l 428 982 l 533 943 l 533 918 l 236 775 z "},"ĕ":{"ha":654,"x_min":53,"x_max":611,"o":"m 365 -15 q 192 24 261 -15 q 88 143 122 64 q 53 338 53 222 q 129 603 53 511 q 350 694 206 694 q 547 631 483 694 q 611 433 611 568 q 610 400 611 417 q 608 364 610 383 l 181 364 l 181 319 q 234 128 181 197 q 385 58 288 58 q 485 67 429 58 q 593 89 542 75 l 601 46 q 489 -1 542 13 q 365 -15 436 -15 m 183 413 l 486 426 l 486 458 q 456 585 486 544 q 358 626 425 626 q 229 577 269 626 q 183 413 189 528 m 329 803 q 199 851 232 803 q 165 961 165 900 l 213 964 q 234 904 213 931 q 326 878 256 878 q 422 904 399 878 q 444 964 444 931 l 490 961 q 458 851 490 900 q 329 803 425 803 z "},"ě":{"ha":654,"x_min":53,"x_max":611,"o":"m 365 -15 q 192 24 261 -15 q 88 143 122 64 q 53 338 53 222 q 129 603 53 511 q 350 694 206 694 q 547 631 483 694 q 611 433 611 568 q 610 400 611 417 q 608 364 610 383 l 181 364 l 181 319 q 234 128 181 197 q 385 58 288 58 q 485 67 429 58 q 593 89 542 75 l 601 46 q 489 -1 542 13 q 365 -15 436 -15 m 183 413 l 486 426 l 486 458 q 456 585 486 544 q 358 626 425 626 q 229 577 269 626 q 183 413 189 528 m 308 775 l 169 968 l 200 993 l 350 868 l 499 993 l 528 968 l 392 775 l 308 775 z "},"ê":{"ha":654,"x_min":53,"x_max":611,"o":"m 365 -15 q 192 24 261 -15 q 88 143 122 64 q 53 338 53 222 q 129 603 53 511 q 350 694 206 694 q 547 631 483 694 q 611 433 611 568 q 610 400 611 417 q 608 364 610 383 l 181 364 l 181 319 q 234 128 181 197 q 385 58 288 58 q 485 67 429 58 q 593 89 542 75 l 601 46 q 489 -1 542 13 q 365 -15 436 -15 m 183 413 l 486 426 l 486 458 q 456 585 486 544 q 358 626 425 626 q 229 577 269 626 q 183 413 189 528 m 200 767 l 171 792 l 307 985 l 390 985 l 529 792 l 499 767 l 350 892 l 200 767 z "},"ế":{"ha":654,"x_min":53,"x_max":749,"o":"m 365 -15 q 192 24 261 -15 q 88 143 122 64 q 53 338 53 222 q 129 603 53 511 q 350 694 206 694 q 547 631 483 694 q 611 433 611 568 q 610 400 611 417 q 608 364 610 383 l 181 364 l 181 319 q 234 128 181 197 q 385 58 288 58 q 485 67 429 58 q 593 89 542 75 l 601 46 q 489 -1 542 13 q 365 -15 436 -15 m 183 413 l 486 426 l 486 458 q 456 585 486 544 q 358 626 425 626 q 229 577 269 626 q 183 413 189 528 m 517 842 l 489 860 l 626 1103 l 740 1103 l 749 1079 l 517 842 m 476 767 l 328 892 l 178 767 l 149 792 l 285 985 l 368 985 l 507 792 l 476 767 z "},"ệ":{"ha":654,"x_min":53,"x_max":611,"o":"m 365 -15 q 192 24 261 -15 q 88 143 122 64 q 53 338 53 222 q 129 603 53 511 q 350 694 206 694 q 547 631 483 694 q 611 433 611 568 q 610 400 611 417 q 608 364 610 383 l 181 364 l 181 319 q 234 128 181 197 q 385 58 288 58 q 485 67 429 58 q 593 89 542 75 l 601 46 q 489 -1 542 13 q 365 -15 436 -15 m 183 413 l 486 426 l 486 458 q 456 585 486 544 q 358 626 425 626 q 229 577 269 626 q 183 413 189 528 m 411 -140 q 385 -197 411 -175 q 328 -219 360 -219 q 269 -197 294 -219 q 244 -140 244 -175 q 269 -81 244 -106 q 328 -57 294 -57 q 385 -81 360 -57 q 411 -140 411 -106 m 476 767 l 328 892 l 178 767 l 149 792 l 285 985 l 368 985 l 507 792 l 476 767 z "},"ề":{"ha":654,"x_min":53,"x_max":611,"o":"m 365 -15 q 192 24 261 -15 q 88 143 122 64 q 53 338 53 222 q 129 603 53 511 q 350 694 206 694 q 547 631 483 694 q 611 433 611 568 q 610 400 611 417 q 608 364 610 383 l 181 364 l 181 319 q 234 128 181 197 q 385 58 288 58 q 485 67 429 58 q 593 89 542 75 l 601 46 q 489 -1 542 13 q 365 -15 436 -15 m 183 413 l 486 426 l 486 458 q 456 585 486 544 q 358 626 425 626 q 229 577 269 626 q 183 413 189 528 m 558 842 l 326 1079 l 335 1103 l 449 1103 l 586 860 l 558 842 m 463 767 l 314 892 l 164 767 l 135 792 l 271 985 l 354 985 l 493 792 l 463 767 z "},"ể":{"ha":654,"x_min":53,"x_max":611,"o":"m 365 -15 q 192 24 261 -15 q 88 143 122 64 q 53 338 53 222 q 129 603 53 511 q 350 694 206 694 q 547 631 483 694 q 611 433 611 568 q 610 400 611 417 q 608 364 610 383 l 181 364 l 181 319 q 234 128 181 197 q 385 58 288 58 q 485 67 429 58 q 593 89 542 75 l 601 46 q 489 -1 542 13 q 365 -15 436 -15 m 183 413 l 486 426 l 486 458 q 456 585 486 544 q 358 626 425 626 q 229 577 269 626 q 183 413 189 528 m 476 767 l 328 892 l 178 767 l 149 792 l 285 985 l 368 985 l 507 792 l 476 767 m 599 1035 q 576 989 599 1011 q 488 961 554 967 l 519 989 l 504 929 l 451 929 l 446 985 q 507 997 490 985 q 524 1029 524 1010 q 475 1067 524 1067 q 441 1064 463 1067 q 394 1057 419 1061 l 386 1094 q 481 1103 438 1103 q 599 1035 599 1103 m 394 1021 l 386 1094 l 435 1096 l 449 1071 l 436 1021 l 394 1021 z "},"ễ":{"ha":654,"x_min":53,"x_max":611,"o":"m 365 -15 q 192 24 261 -15 q 88 143 122 64 q 53 338 53 222 q 129 603 53 511 q 350 694 206 694 q 547 631 483 694 q 611 433 611 568 q 610 400 611 417 q 608 364 610 383 l 181 364 l 181 319 q 234 128 181 197 q 385 58 288 58 q 485 67 429 58 q 593 89 542 75 l 601 46 q 489 -1 542 13 q 365 -15 436 -15 m 183 413 l 486 426 l 486 458 q 456 585 486 544 q 358 626 425 626 q 229 577 269 626 q 183 413 189 528 z "},"ȅ":{"ha":654,"x_min":46,"x_max":611,"o":"m 365 -15 q 192 24 261 -15 q 88 143 122 64 q 53 338 53 222 q 129 603 53 511 q 350 694 206 694 q 547 631 483 694 q 611 433 611 568 q 610 400 611 417 q 608 364 610 383 l 181 364 l 181 319 q 234 128 181 197 q 385 58 288 58 q 485 67 429 58 q 593 89 542 75 l 601 46 q 489 -1 542 13 q 365 -15 436 -15 m 183 413 l 486 426 l 486 458 q 456 585 486 544 q 358 626 425 626 q 229 577 269 626 q 183 413 189 528 m 472 756 l 269 968 l 269 992 l 374 992 l 499 771 l 472 756 m 249 756 l 46 968 l 46 992 l 150 992 l 275 771 l 249 756 z "},"ë":{"ha":654,"x_min":53,"x_max":611,"o":"m 365 -15 q 192 24 261 -15 q 88 143 122 64 q 53 338 53 222 q 129 603 53 511 q 350 694 206 694 q 547 631 483 694 q 611 433 611 568 q 610 400 611 417 q 608 364 610 383 l 181 364 l 181 319 q 234 128 181 197 q 385 58 288 58 q 485 67 429 58 q 593 89 542 75 l 601 46 q 489 -1 542 13 q 365 -15 436 -15 m 183 413 l 486 426 l 486 458 q 456 585 486 544 q 358 626 425 626 q 229 577 269 626 q 183 413 189 528 m 214 806 q 159 828 183 806 q 135 882 135 850 q 159 939 135 915 q 214 963 183 963 q 269 939 244 963 q 293 882 293 915 q 269 828 293 850 q 214 806 244 806 m 483 806 q 428 828 453 806 q 404 882 404 850 q 428 939 404 915 q 483 963 453 963 q 539 939 514 963 q 564 882 564 915 q 539 828 564 850 q 483 806 514 806 z "},"ė":{"ha":654,"x_min":53,"x_max":611,"o":"m 365 -15 q 192 24 261 -15 q 88 143 122 64 q 53 338 53 222 q 129 603 53 511 q 350 694 206 694 q 547 631 483 694 q 611 433 611 568 q 610 400 611 417 q 608 364 610 383 l 181 364 l 181 319 q 234 128 181 197 q 385 58 288 58 q 485 67 429 58 q 593 89 542 75 l 601 46 q 489 -1 542 13 q 365 -15 436 -15 m 183 413 l 486 426 l 486 458 q 456 585 486 544 q 358 626 425 626 q 229 577 269 626 q 183 413 189 528 m 350 806 q 292 828 317 806 q 267 885 267 850 q 292 944 267 919 q 350 968 317 968 q 408 944 382 968 q 433 885 433 919 q 408 828 433 850 q 350 806 382 806 z "},"ẹ":{"ha":654,"x_min":53,"x_max":611,"o":"m 365 -15 q 192 24 261 -15 q 88 143 122 64 q 53 338 53 222 q 129 603 53 511 q 350 694 206 694 q 547 631 483 694 q 611 433 611 568 q 610 400 611 417 q 608 364 610 383 l 181 364 l 181 319 q 234 128 181 197 q 385 58 288 58 q 485 67 429 58 q 593 89 542 75 l 601 46 q 489 -1 542 13 q 365 -15 436 -15 m 183 413 l 486 426 l 486 458 q 456 585 486 544 q 358 626 425 626 q 229 577 269 626 q 183 413 189 528 m 411 -140 q 385 -197 411 -175 q 328 -219 360 -219 q 269 -197 294 -219 q 244 -140 244 -175 q 269 -81 244 -106 q 328 -57 294 -57 q 385 -81 360 -57 q 411 -140 411 -106 z "},"è":{"ha":654,"x_min":53,"x_max":611,"o":"m 365 -15 q 192 24 261 -15 q 88 143 122 64 q 53 338 53 222 q 129 603 53 511 q 350 694 206 694 q 547 631 483 694 q 611 433 611 568 q 610 400 611 417 q 608 364 610 383 l 181 364 l 181 319 q 234 128 181 197 q 385 58 288 58 q 485 67 429 58 q 593 89 542 75 l 601 46 q 489 -1 542 13 q 365 -15 436 -15 m 183 413 l 486 426 l 486 458 q 456 585 486 544 q 358 626 425 626 q 229 577 269 626 q 183 413 189 528 m 458 775 l 158 918 l 158 943 l 265 982 l 478 801 l 458 775 z "},"ẻ":{"ha":654,"x_min":53,"x_max":611,"o":"m 365 -15 q 192 24 261 -15 q 88 143 122 64 q 53 338 53 222 q 129 603 53 511 q 350 694 206 694 q 547 631 483 694 q 611 433 611 568 q 610 400 611 417 q 608 364 610 383 l 181 364 l 181 319 q 234 128 181 197 q 385 58 288 58 q 485 67 429 58 q 593 89 542 75 l 601 46 q 489 -1 542 13 q 365 -15 436 -15 m 183 413 l 486 426 l 486 458 q 456 585 486 544 q 358 626 425 626 q 229 577 269 626 q 183 413 189 528 m 463 878 q 440 832 463 854 q 351 804 418 810 l 383 832 l 368 772 l 315 772 l 310 828 q 371 840 354 828 q 388 872 388 853 q 339 910 388 910 q 305 907 326 910 q 258 900 283 904 l 250 938 q 344 946 301 946 q 463 878 463 946 m 258 864 l 250 938 l 299 939 l 313 914 l 300 864 l 258 864 z "},"ȇ":{"ha":654,"x_min":53,"x_max":611,"o":"m 365 -15 q 192 24 261 -15 q 88 143 122 64 q 53 338 53 222 q 129 603 53 511 q 350 694 206 694 q 547 631 483 694 q 611 433 611 568 q 610 400 611 417 q 608 364 610 383 l 181 364 l 181 319 q 234 128 181 197 q 385 58 288 58 q 485 67 429 58 q 593 89 542 75 l 601 46 q 489 -1 542 13 q 365 -15 436 -15 m 183 413 l 486 426 l 486 458 q 456 585 486 544 q 358 626 425 626 q 229 577 269 626 q 183 413 189 528 m 326 978 q 457 929 424 978 q 490 819 490 881 l 443 817 q 422 876 443 850 q 329 903 400 903 q 234 876 257 903 q 211 817 211 850 l 165 819 q 198 929 165 881 q 326 978 231 978 z "},"ē":{"ha":654,"x_min":53,"x_max":611,"o":"m 365 -15 q 192 24 261 -15 q 88 143 122 64 q 53 338 53 222 q 129 603 53 511 q 350 694 206 694 q 547 631 483 694 q 611 433 611 568 q 610 400 611 417 q 608 364 610 383 l 181 364 l 181 319 q 234 128 181 197 q 385 58 288 58 q 485 67 429 58 q 593 89 542 75 l 601 46 q 489 -1 542 13 q 365 -15 436 -15 m 183 413 l 486 426 l 486 458 q 456 585 486 544 q 358 626 425 626 q 229 577 269 626 q 183 413 189 528 m 196 846 l 196 918 l 497 918 l 497 846 l 196 846 z "},"ę":{"ha":654,"x_min":53,"x_max":611,"o":"m 472 -328 q 372 -291 403 -328 q 342 -210 342 -254 q 367 -119 342 -171 q 461 -7 393 -67 q 365 -15 417 -15 q 192 24 261 -15 q 88 143 122 64 q 53 338 53 222 q 129 603 53 511 q 350 694 206 694 q 547 631 483 694 q 611 433 611 568 q 610 400 611 417 q 608 364 610 383 l 181 364 l 181 319 q 234 128 181 197 q 385 58 288 58 q 485 67 429 58 q 593 89 542 75 l 601 46 q 480 -52 525 7 q 435 -185 435 -111 q 510 -267 435 -267 q 546 -260 528 -267 q 579 -236 564 -253 l 601 -258 q 570 -293 601 -258 q 472 -328 539 -328 m 183 413 l 486 426 l 486 458 q 456 585 486 544 q 358 626 425 626 q 229 577 269 626 q 183 413 189 528 z "},"ẽ":{"ha":654,"x_min":53,"x_max":611,"o":"m 365 -15 q 192 24 261 -15 q 88 143 122 64 q 53 338 53 222 q 129 603 53 511 q 350 694 206 694 q 547 631 483 694 q 611 433 611 568 q 610 400 611 417 q 608 364 610 383 l 181 364 l 181 319 q 234 128 181 197 q 385 58 288 58 q 485 67 429 58 q 593 89 542 75 l 601 46 q 489 -1 542 13 q 365 -15 436 -15 m 183 413 l 486 426 l 486 458 q 456 585 486 544 q 358 626 425 626 q 229 577 269 626 q 183 413 189 528 m 442 808 q 342 836 406 808 q 244 864 279 864 q 202 839 222 864 q 182 814 182 814 l 140 831 q 185 923 163 885 q 243 961 208 961 q 341 933 278 961 q 440 906 404 906 q 482 930 464 906 q 500 954 500 954 l 543 938 q 498 847 521 885 q 442 808 475 808 z "},"ə":{"ha":654,"x_min":43,"x_max":601,"o":"m 289 697 q 463 658 393 697 q 567 539 532 618 q 601 344 601 460 q 525 79 601 171 q 304 -12 449 -12 q 107 51 171 -12 q 43 249 43 114 q 44 282 43 265 q 46 318 44 299 l 474 318 l 474 363 q 420 554 474 485 q 269 624 367 624 q 169 615 225 624 q 61 593 113 607 l 53 636 q 165 683 113 669 q 289 697 218 697 m 471 269 l 168 256 l 168 224 q 199 97 168 138 q 296 56 229 56 q 425 105 385 56 q 471 269 465 154 z "},"f":{"ha":496,"x_min":43,"x_max":572,"o":"m 43 0 l 43 39 l 167 74 l 167 613 l 57 613 l 57 653 l 167 681 q 244 923 167 836 q 438 1010 321 1010 q 511 1002 471 1010 q 572 983 551 994 l 554 825 l 504 825 l 486 914 q 448 926 468 922 q 413 929 428 929 q 311 880 338 929 q 285 736 285 831 l 285 682 l 493 682 l 493 600 l 283 613 l 283 74 l 443 39 l 443 0 l 43 0 z "},"g":{"ha":708,"x_min":44,"x_max":683,"o":"m 286 -246 q 85 -204 126 -246 q 44 -111 44 -162 q 62 -40 44 -81 q 125 39 79 0 q 92 70 103 50 q 82 115 82 90 q 108 184 82 147 q 168 258 133 221 q 100 347 118 293 q 82 458 82 400 q 144 621 82 547 q 335 694 207 694 q 419 685 383 694 q 486 658 454 676 l 683 710 l 683 613 l 526 613 q 572 542 558 585 q 586 458 586 500 q 528 300 586 372 q 319 228 471 228 q 251 233 281 228 q 222 239 222 238 q 185 161 185 186 q 196 132 185 147 q 228 117 207 117 l 457 117 q 604 92 547 117 q 661 -21 661 67 q 574 -172 661 -99 q 286 -246 488 -246 m 297 -176 q 501 -138 442 -176 q 561 -42 561 -100 q 537 14 561 0 q 464 28 513 28 l 192 28 q 146 -82 146 -28 q 177 -154 146 -132 q 297 -176 208 -176 m 338 293 q 442 338 414 293 q 469 458 469 383 q 439 581 469 532 q 333 629 408 629 q 227 581 254 629 q 200 458 200 532 q 230 338 200 382 q 338 293 260 293 z "},"ǵ":{"ha":708,"x_min":44,"x_max":683,"o":"m 286 -246 q 85 -204 126 -246 q 44 -111 44 -162 q 62 -40 44 -81 q 125 39 79 0 q 92 70 103 50 q 82 115 82 90 q 108 184 82 147 q 168 258 133 221 q 100 347 118 293 q 82 458 82 400 q 144 621 82 547 q 335 694 207 694 q 419 685 383 694 q 486 658 454 676 l 683 710 l 683 613 l 526 613 q 572 542 558 585 q 586 458 586 500 q 528 300 586 372 q 319 228 471 228 q 251 233 281 228 q 222 239 222 238 q 185 161 185 186 q 196 132 185 147 q 228 117 207 117 l 457 117 q 604 92 547 117 q 661 -21 661 67 q 574 -172 661 -99 q 286 -246 488 -246 m 297 -176 q 501 -138 442 -176 q 561 -42 561 -100 q 537 14 561 0 q 464 28 513 28 l 192 28 q 146 -82 146 -28 q 177 -154 146 -132 q 297 -176 208 -176 m 338 293 q 442 338 414 293 q 469 458 469 383 q 439 581 469 532 q 333 629 408 629 q 227 581 254 629 q 200 458 200 532 q 230 338 200 382 q 338 293 260 293 m 251 775 l 229 801 l 443 982 l 549 943 l 549 918 l 251 775 z "},"ğ":{"ha":733,"x_min":57,"x_max":696,"o":"m 299 -246 q 98 -204 139 -246 q 57 -111 57 -162 q 74 -40 57 -81 q 138 39 92 0 q 104 70 114 50 q 94 115 94 90 q 120 184 94 147 q 181 258 146 221 q 113 347 131 293 q 94 458 94 400 q 157 621 94 547 q 347 694 219 694 q 431 685 396 694 q 499 658 467 676 l 696 710 l 696 613 l 539 613 q 584 542 569 585 q 599 458 599 500 q 541 300 599 372 q 332 228 483 228 q 263 233 292 228 q 235 239 235 238 q 197 161 197 186 q 208 132 197 147 q 240 117 219 117 l 469 117 q 616 92 558 117 q 674 -21 674 67 q 587 -172 674 -99 q 299 -246 500 -246 m 310 -176 q 513 -138 453 -176 q 574 -42 574 -100 q 549 14 574 0 q 476 28 525 28 l 204 28 q 169 -28 181 0 q 158 -82 158 -56 q 189 -154 158 -132 q 310 -176 219 -176 m 350 293 q 455 338 428 293 q 482 458 482 383 q 451 581 482 532 q 346 629 421 629 q 240 581 267 629 q 213 458 213 532 q 242 338 213 382 q 350 293 272 293 m 357 803 q 226 851 260 803 q 193 961 193 900 l 240 964 q 262 904 240 931 q 354 878 283 878 q 450 904 428 878 q 472 964 472 931 l 518 961 q 485 851 518 900 q 357 803 453 803 z "},"ǧ":{"ha":708,"x_min":44,"x_max":683,"o":"m 286 -246 q 85 -204 126 -246 q 44 -111 44 -162 q 62 -40 44 -81 q 125 39 79 0 q 92 70 103 50 q 82 115 82 90 q 108 184 82 147 q 168 258 133 221 q 100 347 118 293 q 82 458 82 400 q 144 621 82 547 q 335 694 207 694 q 419 685 383 694 q 486 658 454 676 l 683 710 l 683 613 l 526 613 q 572 542 558 585 q 586 458 586 500 q 528 300 586 372 q 319 228 471 228 q 251 233 281 228 q 222 239 222 238 q 185 161 185 186 q 196 132 185 147 q 228 117 207 117 l 457 117 q 604 92 547 117 q 661 -21 661 67 q 574 -172 661 -99 q 286 -246 488 -246 m 297 -176 q 501 -138 442 -176 q 561 -42 561 -100 q 537 14 561 0 q 464 28 513 28 l 192 28 q 146 -82 146 -28 q 177 -154 146 -132 q 297 -176 208 -176 m 338 293 q 442 338 414 293 q 469 458 469 383 q 439 581 469 532 q 333 629 408 629 q 227 581 254 629 q 200 458 200 532 q 230 338 200 382 q 338 293 260 293 m 206 993 l 356 868 l 504 993 l 533 968 l 397 775 l 314 775 l 175 968 l 206 993 z "},"ĝ":{"ha":708,"x_min":44,"x_max":683,"o":"m 286 -246 q 85 -204 126 -246 q 44 -111 44 -162 q 62 -40 44 -81 q 125 39 79 0 q 92 70 103 50 q 82 115 82 90 q 108 184 82 147 q 168 258 133 221 q 100 347 118 293 q 82 458 82 400 q 144 621 82 547 q 335 694 207 694 q 419 685 383 694 q 486 658 454 676 l 683 710 l 683 613 l 526 613 q 572 542 558 585 q 586 458 586 500 q 528 300 586 372 q 319 228 471 228 q 251 233 281 228 q 222 239 222 238 q 185 161 185 186 q 196 132 185 147 q 228 117 207 117 l 457 117 q 604 92 547 117 q 661 -21 661 67 q 574 -172 661 -99 q 286 -246 488 -246 m 297 -176 q 501 -138 442 -176 q 561 -42 561 -100 q 537 14 561 0 q 464 28 513 28 l 192 28 q 146 -82 146 -28 q 177 -154 146 -132 q 297 -176 208 -176 m 338 293 q 442 338 414 293 q 469 458 469 383 q 439 581 469 532 q 333 629 408 629 q 227 581 254 629 q 200 458 200 532 q 230 338 200 382 q 338 293 260 293 m 503 767 l 354 892 l 204 767 l 175 792 l 311 985 l 394 985 l 533 792 l 503 767 z "},"ģ":{"ha":733,"x_min":57,"x_max":696,"o":"m 299 -246 q 98 -204 139 -246 q 57 -111 57 -162 q 74 -40 57 -81 q 138 39 92 0 q 104 70 114 50 q 94 115 94 90 q 120 184 94 147 q 181 258 146 221 q 113 347 131 293 q 94 458 94 400 q 157 621 94 547 q 347 694 219 694 q 431 685 396 694 q 499 658 467 676 l 696 710 l 696 613 l 539 613 q 584 542 569 585 q 599 458 599 500 q 541 300 599 372 q 332 228 483 228 q 263 233 292 228 q 235 239 235 238 q 197 161 197 186 q 208 132 197 147 q 240 117 219 117 l 469 117 q 616 92 558 117 q 674 -21 674 67 q 587 -172 674 -99 q 299 -246 500 -246 m 310 -176 q 513 -138 453 -176 q 574 -42 574 -100 q 549 14 574 0 q 476 28 525 28 l 204 28 q 169 -28 181 0 q 158 -82 158 -56 q 189 -154 158 -132 q 310 -176 219 -176 m 350 293 q 455 338 428 293 q 482 458 482 383 q 451 581 482 532 q 346 629 421 629 q 240 581 267 629 q 213 458 213 532 q 242 338 213 382 q 350 293 272 293 m 300 760 l 283 779 l 372 1028 l 418 1028 l 400 781 l 300 760 z "},"ġ":{"ha":708,"x_min":44,"x_max":683,"o":"m 286 -246 q 85 -204 126 -246 q 44 -111 44 -162 q 62 -40 44 -81 q 125 39 79 0 q 92 70 103 50 q 82 115 82 90 q 108 184 82 147 q 168 258 133 221 q 100 347 118 293 q 82 458 82 400 q 144 621 82 547 q 335 694 207 694 q 419 685 383 694 q 486 658 454 676 l 683 710 l 683 613 l 526 613 q 572 542 558 585 q 586 458 586 500 q 528 300 586 372 q 319 228 471 228 q 251 233 281 228 q 222 239 222 238 q 185 161 185 186 q 196 132 185 147 q 228 117 207 117 l 457 117 q 604 92 547 117 q 661 -21 661 67 q 574 -172 661 -99 q 286 -246 488 -246 m 297 -176 q 501 -138 442 -176 q 561 -42 561 -100 q 537 14 561 0 q 464 28 513 28 l 192 28 q 146 -82 146 -28 q 177 -154 146 -132 q 297 -176 208 -176 m 338 293 q 442 338 414 293 q 469 458 469 383 q 439 581 469 532 q 333 629 408 629 q 227 581 254 629 q 200 458 200 532 q 230 338 200 382 q 338 293 260 293 m 438 885 q 412 828 438 850 q 354 806 386 806 q 296 828 321 806 q 271 885 271 850 q 296 944 271 919 q 354 968 321 968 q 412 944 386 968 q 438 885 438 919 z "},"h":{"ha":857,"x_min":31,"x_max":828,"o":"m 828 0 l 472 0 l 472 44 l 588 74 l 588 519 q 559 593 588 575 q 449 611 531 611 q 356 606 404 611 q 272 589 308 600 l 272 74 l 388 44 l 388 0 l 31 0 l 31 44 l 156 74 l 156 911 l 32 925 l 32 957 l 238 1010 l 272 1010 l 272 639 q 382 676 314 657 q 518 694 450 694 q 648 661 592 694 q 704 543 704 628 l 704 74 l 828 44 l 828 0 z "},"ħ":{"ha":857,"x_min":31,"x_max":828,"o":"m 31 0 l 31 44 l 156 74 l 156 929 l 32 958 l 32 989 l 238 1010 l 272 1010 l 272 639 q 382 676 314 657 q 518 694 450 694 q 648 661 592 694 q 704 543 704 628 l 704 74 l 828 44 l 828 0 l 472 0 l 472 44 l 588 74 l 588 519 q 559 593 588 575 q 449 611 531 611 q 356 606 404 611 q 272 589 308 600 l 272 74 l 388 44 l 388 0 l 31 0 m 32 811 l 32 875 l 439 875 l 439 811 l 32 811 z "},"ĥ":{"ha":857,"x_min":31,"x_max":828,"o":"m 828 0 l 472 0 l 472 44 l 588 74 l 588 519 q 559 593 588 575 q 449 611 531 611 q 356 606 404 611 q 272 589 308 600 l 272 74 l 388 44 l 388 0 l 31 0 l 31 44 l 156 74 l 156 911 l 32 925 l 32 957 l 238 1010 l 272 1010 l 272 639 q 382 676 314 657 q 518 694 450 694 q 648 661 592 694 q 704 543 704 628 l 704 74 l 828 44 l 828 0 z "},"ḥ":{"ha":857,"x_min":31,"x_max":828,"o":"m 828 0 l 472 0 l 472 44 l 588 74 l 588 519 q 559 593 588 575 q 449 611 531 611 q 356 606 404 611 q 272 589 308 600 l 272 74 l 388 44 l 388 0 l 31 0 l 31 44 l 156 74 l 156 911 l 32 925 l 32 957 l 238 1010 l 272 1010 l 272 639 q 382 676 314 657 q 518 694 450 694 q 648 661 592 694 q 704 543 704 628 l 704 74 l 828 44 l 828 0 m 513 -140 q 487 -197 513 -175 q 429 -219 461 -219 q 371 -197 396 -219 q 346 -140 346 -175 q 371 -81 346 -106 q 429 -57 396 -57 q 487 -81 461 -57 q 513 -140 513 -106 z "},"i":{"ha":432,"x_min":42,"x_max":404,"o":"m 42 0 l 42 44 l 165 74 l 165 597 l 42 611 l 42 643 l 246 694 l 281 694 l 281 74 l 404 44 l 404 0 l 42 0 m 222 806 q 164 828 189 806 q 139 885 139 850 q 164 944 139 919 q 222 968 189 968 q 280 944 254 968 q 306 885 306 919 q 280 828 306 850 q 222 806 254 806 z "},"ı":{"ha":436,"x_min":42,"x_max":404,"o":"m 404 44 l 404 0 l 42 0 l 42 44 l 165 74 l 165 597 l 42 611 l 42 643 l 246 694 l 281 694 l 281 74 l 404 44 z "},"í":{"ha":436,"x_min":42,"x_max":404,"o":"m 404 44 l 404 0 l 42 0 l 42 44 l 165 74 l 165 597 l 42 611 l 42 643 l 246 694 l 281 694 l 281 74 l 404 44 m 75 775 l 53 801 l 267 982 l 372 943 l 372 918 l 75 775 z "},"ĭ":{"ha":436,"x_min":42,"x_max":404,"o":"m 404 44 l 404 0 l 42 0 l 42 44 l 165 74 l 165 597 l 42 611 l 42 643 l 246 694 l 281 694 l 281 74 l 404 44 m 219 803 q 89 851 122 803 q 56 961 56 900 l 103 964 q 124 904 103 931 q 217 878 146 878 q 312 904 289 878 q 335 964 335 931 l 381 961 q 348 851 381 900 q 219 803 315 803 z "},"ǐ":{"ha":436,"x_min":39,"x_max":404,"o":"m 404 44 l 404 0 l 42 0 l 42 44 l 165 74 l 165 597 l 42 611 l 42 643 l 246 694 l 281 694 l 281 74 l 404 44 m 69 993 l 219 868 l 368 993 l 397 968 l 261 775 l 178 775 l 39 968 l 69 993 z "},"î":{"ha":436,"x_min":11,"x_max":404,"o":"m 404 44 l 404 0 l 42 0 l 42 44 l 165 74 l 165 597 l 42 611 l 42 643 l 246 694 l 281 694 l 281 74 l 404 44 m 339 767 l 190 892 l 40 767 l 11 792 l 147 985 l 231 985 l 369 792 l 339 767 z "},"ȉ":{"ha":436,"x_min":-64,"x_max":404,"o":"m 404 44 l 404 0 l 42 0 l 42 44 l 165 74 l 165 597 l 42 611 l 42 643 l 246 694 l 281 694 l 281 74 l 404 44 m 363 756 l 160 968 l 160 992 l 264 992 l 389 771 l 363 756 m 139 756 l -64 968 l -64 992 l 40 992 l 165 771 l 139 756 z "},"ï":{"ha":436,"x_min":-15,"x_max":414,"o":"m 404 44 l 404 0 l 42 0 l 42 44 l 165 74 l 165 597 l 42 611 l 42 643 l 246 694 l 281 694 l 281 74 l 404 44 m 143 882 q 119 828 143 850 q 64 806 94 806 q 9 828 33 806 q -15 882 -15 850 q 9 939 -15 915 q 64 963 33 963 q 119 939 94 963 q 143 882 143 915 m 414 882 q 389 828 414 850 q 333 806 364 806 q 278 828 303 806 q 254 882 254 850 q 278 939 254 915 q 333 963 303 963 q 389 939 364 963 q 414 882 414 915 z "},"ị":{"ha":432,"x_min":42,"x_max":404,"o":"m 42 0 l 42 44 l 165 74 l 165 597 l 42 611 l 42 643 l 246 694 l 281 694 l 281 74 l 404 44 l 404 0 l 42 0 m 222 806 q 164 828 189 806 q 139 885 139 850 q 164 944 139 919 q 222 968 189 968 q 280 944 254 968 q 306 885 306 919 q 280 828 306 850 q 222 806 254 806 m 301 -140 q 276 -197 301 -175 q 218 -219 250 -219 q 160 -197 185 -219 q 135 -140 135 -175 q 160 -81 135 -106 q 218 -57 185 -57 q 276 -81 250 -57 q 301 -140 301 -106 z "},"ì":{"ha":436,"x_min":-7,"x_max":404,"o":"m 404 44 l 404 0 l 42 0 l 42 44 l 165 74 l 165 597 l 42 611 l 42 643 l 246 694 l 281 694 l 281 74 l 404 44 m 293 775 l -7 918 l -7 943 l 100 982 l 313 801 l 293 775 z "},"ỉ":{"ha":436,"x_min":42,"x_max":404,"o":"m 404 44 l 404 0 l 42 0 l 42 44 l 165 74 l 165 597 l 42 611 l 42 643 l 246 694 l 281 694 l 281 74 l 404 44 m 353 878 q 331 832 353 854 q 242 804 308 810 l 274 832 l 258 772 l 206 772 l 200 828 q 261 840 244 828 q 278 872 278 853 q 229 910 278 910 q 195 907 217 910 q 149 900 174 904 l 140 938 q 235 946 192 946 q 353 878 353 946 m 149 864 l 140 938 l 189 939 l 203 914 l 190 864 l 149 864 z "},"ȋ":{"ha":436,"x_min":42,"x_max":404,"o":"m 404 44 l 404 0 l 42 0 l 42 44 l 165 74 l 165 597 l 42 611 l 42 643 l 246 694 l 281 694 l 281 74 l 404 44 m 217 978 q 347 929 314 978 q 381 819 381 881 l 333 817 q 312 876 333 850 q 219 903 290 903 q 124 876 147 903 q 101 817 101 850 l 56 819 q 88 929 56 881 q 217 978 121 978 z "},"ĳ":{"ha":846,"x_min":42,"x_max":736,"o":"m 42 0 l 42 44 l 165 74 l 165 597 l 42 611 l 42 643 l 246 694 l 281 694 l 281 74 l 404 44 l 404 0 l 42 0 m 222 806 q 164 828 189 806 q 139 885 139 850 q 164 944 139 919 q 222 968 189 968 q 280 944 254 968 q 306 885 306 919 q 280 828 306 850 q 222 806 254 806 m 736 885 q 712 830 736 853 q 654 807 688 807 q 599 830 622 807 q 575 885 575 853 q 599 943 575 918 q 654 968 622 968 q 712 943 688 968 q 736 885 736 918 m 469 643 l 672 694 l 710 694 l 710 79 q 663 -165 710 -97 q 539 -232 617 -232 q 492 -225 522 -232 q 426 -200 461 -218 l 433 -157 l 497 -157 q 573 -112 553 -157 q 593 -28 593 -68 l 593 597 l 469 611 l 469 643 z "},"ī":{"ha":436,"x_min":28,"x_max":404,"o":"m 404 44 l 404 0 l 42 0 l 42 44 l 165 74 l 165 597 l 42 611 l 42 643 l 246 694 l 281 694 l 281 74 l 404 44 m 28 918 l 329 918 l 329 846 l 28 846 l 28 918 z "},"į":{"ha":436,"x_min":42,"x_max":404,"o":"m 274 -328 q 173 -291 204 -328 q 142 -210 142 -254 q 183 -94 142 -151 q 296 0 224 -37 l 42 0 l 42 44 l 165 74 l 165 597 l 42 611 l 42 643 l 246 694 l 281 694 l 281 74 l 404 44 l 404 0 q 272 -78 307 -25 q 236 -185 236 -132 q 311 -267 236 -267 q 347 -260 329 -267 q 381 -236 365 -253 l 404 -258 q 372 -293 404 -258 q 274 -328 340 -328 m 222 806 q 164 828 189 806 q 139 885 139 850 q 164 944 139 919 q 222 968 189 968 q 280 944 254 968 q 306 885 306 919 q 280 828 306 850 q 222 806 254 806 z "},"ĩ":{"ha":436,"x_min":-11,"x_max":404,"o":"m 404 44 l 404 0 l 42 0 l 42 44 l 165 74 l 165 597 l 42 611 l 42 643 l 246 694 l 281 694 l 281 74 l 404 44 m 392 938 q 347 847 369 885 q 290 808 324 808 q 192 836 256 808 q 93 864 128 864 q 50 839 69 864 q 31 814 31 814 l -11 831 q 34 923 11 885 q 92 961 57 961 q 190 933 128 961 q 289 906 253 906 q 331 930 313 906 q 349 954 349 954 l 392 938 z "},"j":{"ha":414,"x_min":-6,"x_max":304,"o":"m 304 885 q 280 830 304 853 q 222 807 256 807 q 167 830 190 807 q 143 885 143 853 q 167 943 143 918 q 222 968 190 968 q 280 943 256 968 q 304 885 304 918 m 38 643 l 240 694 l 278 694 l 278 79 q 231 -165 278 -97 q 107 -232 185 -232 q 60 -225 90 -232 q -6 -200 29 -218 l 1 -157 l 65 -157 q 141 -112 121 -157 q 161 -28 161 -68 l 161 597 l 38 611 l 38 643 z "},"ȷ":{"ha":414,"x_min":-6,"x_max":278,"o":"m 38 643 l 240 694 l 278 694 l 278 79 q 231 -165 278 -97 q 107 -232 185 -232 q 60 -225 90 -232 q -6 -200 29 -218 l 1 -157 l 65 -157 q 141 -112 121 -157 q 161 -28 161 -68 l 161 597 l 38 611 l 38 643 z "},"ĵ":{"ha":414,"x_min":-6,"x_max":386,"o":"m 38 643 l 240 694 l 278 694 l 278 79 q 231 -165 278 -97 q 107 -232 185 -232 q 60 -225 90 -232 q -6 -200 29 -218 l 1 -157 l 65 -157 q 141 -112 121 -157 q 161 -28 161 -68 l 161 597 l 38 611 l 38 643 m 356 767 l 207 892 l 57 767 l 28 792 l 164 985 l 247 985 l 386 792 l 356 767 z "},"k":{"ha":765,"x_min":31,"x_max":779,"o":"m 358 0 l 31 0 l 31 44 l 157 74 l 157 911 l 31 925 l 31 957 l 239 1010 l 274 1010 l 274 74 l 358 44 l 358 0 m 779 0 l 468 0 l 468 44 l 529 68 l 296 358 l 501 613 l 381 642 l 381 682 l 738 682 l 738 642 l 606 613 l 414 383 l 669 71 l 779 43 l 779 0 z "},"ķ":{"ha":793,"x_min":31,"x_max":779,"o":"m 31 0 l 31 44 l 157 74 l 157 911 l 31 925 l 31 957 l 239 1010 l 274 1010 l 274 74 l 358 44 l 358 0 l 31 0 m 343 -307 l 361 -60 l 458 -39 l 476 -58 l 389 -307 l 343 -307 m 468 0 l 468 44 l 529 68 l 296 358 l 501 613 l 381 642 l 381 682 l 738 682 l 738 642 l 606 613 l 414 383 l 669 71 l 779 43 l 779 0 l 468 0 z "},"ĸ":{"ha":775,"x_min":40,"x_max":789,"o":"m 368 0 l 40 0 l 40 44 l 167 74 l 167 597 l 43 611 l 43 642 l 249 694 l 283 694 l 283 74 l 368 44 l 368 0 m 789 0 l 478 0 l 478 44 l 539 68 l 306 358 l 511 613 l 390 642 l 390 682 l 747 682 l 747 642 l 615 613 l 424 383 l 679 71 l 789 43 l 789 0 z "},"l":{"ha":413,"x_min":24,"x_max":389,"o":"m 24 0 l 24 46 l 149 74 l 149 911 l 24 925 l 24 957 l 226 1010 l 264 1010 l 264 74 l 389 46 l 389 0 l 24 0 z "},"ĺ":{"ha":413,"x_min":15,"x_max":389,"o":"m 24 0 l 24 46 l 149 74 l 149 911 l 24 925 l 24 957 l 226 1010 l 264 1010 l 264 74 l 389 46 l 389 0 l 24 0 m 38 1011 l 15 1038 l 229 1218 l 335 1179 l 335 1154 l 38 1011 z "},"ľ":{"ha":435,"x_min":24,"x_max":457,"o":"m 24 0 l 24 46 l 149 74 l 149 911 l 24 925 l 24 957 l 226 1010 l 264 1010 l 264 74 l 389 46 l 389 0 l 24 0 m 381 713 l 342 1008 l 379 1008 l 457 983 l 413 713 l 381 713 z "},"ļ":{"ha":413,"x_min":24,"x_max":389,"o":"m 24 0 l 24 46 l 149 74 l 149 911 l 24 925 l 24 957 l 226 1010 l 264 1010 l 264 74 l 389 46 l 389 0 l 24 0 m 140 -307 l 158 -60 l 258 -39 l 275 -58 l 186 -307 l 140 -307 z "},"ŀ":{"ha":413,"x_min":24,"x_max":489,"o":"m 24 0 l 24 46 l 149 74 l 149 911 l 24 925 l 24 957 l 226 1010 l 264 1010 l 264 74 l 389 46 l 389 0 l 24 0 m 489 603 q 467 546 489 569 q 408 522 444 522 q 353 546 376 522 q 331 603 331 569 q 353 660 331 639 q 408 682 376 682 q 467 660 444 682 q 489 603 489 639 z "},"ǉ":{"ha":826,"x_min":24,"x_max":717,"o":"m 24 0 l 24 46 l 149 74 l 149 911 l 24 925 l 24 957 l 226 1010 l 264 1010 l 264 74 l 389 46 l 389 0 l 24 0 m 717 885 q 692 830 717 853 q 635 807 668 807 q 579 830 603 807 q 556 885 556 853 q 579 943 556 918 q 635 968 603 968 q 692 943 668 968 q 717 885 717 918 m 450 643 l 653 694 l 690 694 l 690 79 q 644 -165 690 -97 q 519 -232 597 -232 q 472 -225 503 -232 q 407 -200 442 -218 l 414 -157 l 478 -157 q 553 -112 533 -157 q 574 -28 574 -68 l 574 597 l 450 611 l 450 643 z "},"ł":{"ha":421,"x_min":4,"x_max":418,"o":"m 28 0 l 28 46 l 153 74 l 153 411 l 35 344 l 4 396 l 153 481 l 153 911 l 28 925 l 28 957 l 231 1010 l 268 1010 l 268 547 l 385 614 l 418 560 l 268 475 l 268 74 l 393 46 l 393 0 l 28 0 z "},"m":{"ha":1251,"x_min":39,"x_max":1222,"o":"m 39 0 l 39 39 l 163 74 l 163 597 l 39 611 l 39 643 l 242 694 l 279 694 l 279 639 q 383 676 318 657 q 513 694 447 694 q 594 681 554 694 q 657 639 633 668 q 774 676 701 657 q 921 694 846 694 q 1051 656 1006 694 q 1096 543 1096 618 l 1096 74 l 1222 39 l 1222 0 l 876 0 l 876 39 l 981 74 l 981 519 q 953 592 981 572 q 839 611 925 611 q 756 606 800 611 q 681 589 713 600 q 685 569 683 581 q 686 543 686 557 l 686 74 l 790 39 l 790 0 l 468 0 l 468 39 l 571 74 l 571 519 q 542 593 571 575 q 428 611 514 611 q 351 606 392 611 q 279 589 310 600 l 279 74 l 381 39 l 381 0 l 39 0 z "},"n":{"ha":867,"x_min":43,"x_max":840,"o":"m 282 639 q 392 676 322 657 q 531 694 461 694 q 660 661 604 694 q 715 543 715 628 l 715 74 l 840 39 l 840 0 l 486 0 l 486 39 l 600 74 l 600 519 q 572 593 600 575 q 461 611 543 611 q 368 606 417 611 q 282 589 319 600 l 282 74 l 396 39 l 396 0 l 43 0 l 43 39 l 167 74 l 167 597 l 43 611 l 43 643 l 244 694 l 282 694 l 282 639 z "},"ń":{"ha":867,"x_min":39,"x_max":836,"o":"m 278 639 q 388 676 318 657 q 526 694 458 694 q 656 661 600 694 q 711 543 711 628 l 711 74 l 836 39 l 836 0 l 482 0 l 482 39 l 596 74 l 596 519 q 567 593 596 575 q 457 611 539 611 q 365 606 414 611 q 278 589 315 600 l 278 74 l 392 39 l 392 0 l 39 0 l 39 39 l 163 74 l 163 597 l 39 611 l 39 643 l 240 694 l 278 694 l 278 639 m 306 775 l 283 801 l 497 982 l 603 943 l 603 918 l 306 775 z "},"ŉ":{"ha":833,"x_min":43,"x_max":840,"o":"m 158 713 l 119 1008 l 157 1008 l 235 983 l 190 713 l 158 713 m 282 639 q 392 676 322 657 q 531 694 461 694 q 660 661 604 694 q 715 543 715 628 l 715 74 l 840 39 l 840 0 l 486 0 l 486 39 l 600 74 l 600 519 q 572 593 600 575 q 461 611 543 611 q 368 606 417 611 q 282 589 319 600 l 282 74 l 396 39 l 396 0 l 43 0 l 43 39 l 167 74 l 167 597 l 43 611 l 43 643 l 244 694 l 282 694 l 282 639 z "},"ň":{"ha":867,"x_min":39,"x_max":836,"o":"m 278 639 q 388 676 318 657 q 526 694 458 694 q 656 661 600 694 q 711 543 711 628 l 711 74 l 836 39 l 836 0 l 482 0 l 482 39 l 596 74 l 596 519 q 567 593 596 575 q 457 611 539 611 q 365 606 414 611 q 278 589 315 600 l 278 74 l 392 39 l 392 0 l 39 0 l 39 39 l 163 74 l 163 597 l 39 611 l 39 643 l 240 694 l 278 694 l 278 639 m 283 993 l 433 868 l 582 993 l 611 968 l 475 775 l 392 775 l 253 968 l 283 993 z "},"ņ":{"ha":867,"x_min":39,"x_max":836,"o":"m 39 0 l 39 39 l 163 74 l 163 597 l 39 611 l 39 643 l 240 694 l 278 694 l 278 639 q 388 676 318 657 q 526 694 458 694 q 656 661 600 694 q 711 543 711 628 l 711 74 l 836 39 l 836 0 l 482 0 l 482 39 l 596 74 l 596 519 q 567 593 596 575 q 457 611 539 611 q 365 606 414 611 q 278 589 315 600 l 278 74 l 392 39 l 392 0 l 39 0 m 365 -307 l 385 -60 l 482 -39 l 500 -58 l 413 -307 l 365 -307 z "},"ṅ":{"ha":867,"x_min":43,"x_max":840,"o":"m 282 639 q 392 676 322 657 q 531 694 461 694 q 660 661 604 694 q 715 543 715 628 l 715 74 l 840 39 l 840 0 l 486 0 l 486 39 l 600 74 l 600 519 q 572 593 600 575 q 461 611 543 611 q 368 606 417 611 q 282 589 319 600 l 282 74 l 396 39 l 396 0 l 43 0 l 43 39 l 167 74 l 167 597 l 43 611 l 43 643 l 244 694 l 282 694 l 282 639 m 517 885 q 491 828 517 850 q 433 806 465 806 q 375 828 400 806 q 350 885 350 850 q 375 944 350 919 q 433 968 400 968 q 491 944 465 968 q 517 885 517 919 z "},"ŋ":{"ha":825,"x_min":43,"x_max":715,"o":"m 531 694 q 660 661 604 694 q 715 543 715 628 l 715 79 q 669 -165 715 -97 q 546 -232 622 -232 q 499 -225 529 -232 q 433 -200 468 -218 l 440 -157 l 504 -157 q 580 -112 560 -157 q 600 -28 600 -68 l 600 519 q 572 593 600 575 q 461 611 543 611 q 368 606 417 611 q 282 589 319 600 l 282 74 l 396 39 l 396 0 l 43 0 l 43 39 l 167 74 l 167 597 l 43 611 l 43 643 l 244 694 l 282 694 l 282 639 q 392 676 322 657 q 531 694 461 694 z "},"ɲ":{"ha":867,"x_min":0,"x_max":840,"o":"m 715 74 l 840 39 l 840 0 l 486 0 l 486 39 l 600 74 l 600 519 q 572 593 600 575 q 461 611 543 611 q 369 606 417 611 q 283 589 321 600 l 283 79 q 237 -165 283 -97 q 113 -232 190 -232 q 65 -225 96 -232 q 0 -200 35 -218 l 7 -157 l 71 -157 q 147 -112 126 -157 q 167 -28 167 -68 l 167 597 l 43 611 l 43 643 l 244 694 l 282 694 l 282 639 q 392 676 322 657 q 531 694 461 694 q 660 661 604 694 q 715 543 715 628 l 715 74 z "},"ǌ":{"ha":1281,"x_min":43,"x_max":1171,"o":"m 282 639 q 392 676 322 657 q 531 694 461 694 q 660 661 604 694 q 715 543 715 628 l 715 74 l 840 39 l 840 0 l 486 0 l 486 39 l 600 74 l 600 519 q 572 593 600 575 q 461 611 543 611 q 368 606 417 611 q 282 589 319 600 l 282 74 l 396 39 l 396 0 l 43 0 l 43 39 l 167 74 l 167 597 l 43 611 l 43 643 l 244 694 l 282 694 l 282 639 m 1171 885 q 1147 830 1171 853 q 1089 807 1122 807 q 1033 830 1057 807 q 1010 885 1010 853 q 1033 943 1010 918 q 1089 968 1057 968 q 1147 943 1122 968 q 1171 885 1171 918 m 904 643 l 1107 694 l 1144 694 l 1144 79 q 1098 -165 1144 -97 q 974 -232 1051 -232 q 926 -225 957 -232 q 861 -200 896 -218 l 868 -157 l 932 -157 q 1008 -112 988 -157 q 1028 -28 1028 -68 l 1028 597 l 904 611 l 904 643 z "},"ñ":{"ha":867,"x_min":39,"x_max":836,"o":"m 278 639 q 388 676 318 657 q 526 694 458 694 q 656 661 600 694 q 711 543 711 628 l 711 74 l 836 39 l 836 0 l 482 0 l 482 39 l 596 74 l 596 519 q 567 593 596 575 q 457 611 539 611 q 365 606 414 611 q 278 589 315 600 l 278 74 l 392 39 l 392 0 l 39 0 l 39 39 l 163 74 l 163 597 l 39 611 l 39 643 l 240 694 l 278 694 l 278 639 m 632 938 q 587 847 610 885 q 531 808 564 808 q 431 836 494 808 q 333 864 368 864 q 291 839 311 864 q 271 814 271 814 l 229 831 q 274 923 251 885 q 332 961 297 961 q 430 933 367 961 q 529 906 493 906 q 571 930 553 906 q 589 954 589 954 l 632 938 z "},"o":{"ha":760,"x_min":57,"x_max":703,"o":"m 381 694 q 630 590 557 694 q 703 338 703 486 q 628 90 703 193 q 381 -14 554 -14 q 133 90 208 -14 q 57 338 57 193 q 132 590 57 486 q 381 694 207 694 m 575 342 q 535 547 575 464 q 376 629 494 629 q 224 547 263 629 q 185 342 185 464 q 226 135 185 218 q 385 53 267 53 q 538 135 500 53 q 575 342 575 218 z "},"ó":{"ha":760,"x_min":57,"x_max":703,"o":"m 381 694 q 630 590 557 694 q 703 338 703 486 q 628 90 703 193 q 381 -14 554 -14 q 133 90 208 -14 q 57 338 57 193 q 132 590 57 486 q 381 694 207 694 m 575 342 q 535 547 575 464 q 376 629 494 629 q 224 547 263 629 q 185 342 185 464 q 226 135 185 218 q 385 53 267 53 q 538 135 500 53 q 575 342 575 218 m 278 775 l 256 801 l 469 982 l 575 943 l 575 918 l 278 775 z "},"ŏ":{"ha":760,"x_min":57,"x_max":703,"o":"m 381 694 q 630 590 557 694 q 703 338 703 486 q 628 90 703 193 q 381 -14 554 -14 q 133 90 208 -14 q 57 338 57 193 q 132 590 57 486 q 381 694 207 694 m 575 342 q 535 547 575 464 q 376 629 494 629 q 224 547 263 629 q 185 342 185 464 q 226 135 185 218 q 385 53 267 53 q 538 135 500 53 q 575 342 575 218 m 382 803 q 251 851 285 803 q 218 961 218 900 l 265 964 q 287 904 265 931 q 379 878 308 878 q 474 904 451 878 q 497 964 497 931 l 543 961 q 510 851 543 900 q 382 803 478 803 z "},"ǒ":{"ha":760,"x_min":57,"x_max":703,"o":"m 381 694 q 630 590 557 694 q 703 338 703 486 q 628 90 703 193 q 381 -14 554 -14 q 133 90 208 -14 q 57 338 57 193 q 132 590 57 486 q 381 694 207 694 m 575 342 q 535 547 575 464 q 376 629 494 629 q 224 547 263 629 q 185 342 185 464 q 226 135 185 218 q 385 53 267 53 q 538 135 500 53 q 575 342 575 218 m 232 993 l 382 868 l 531 993 l 560 968 l 424 775 l 340 775 l 201 968 l 232 993 z "},"ô":{"ha":760,"x_min":57,"x_max":703,"o":"m 381 694 q 630 590 557 694 q 703 338 703 486 q 628 90 703 193 q 381 -14 554 -14 q 133 90 208 -14 q 57 338 57 193 q 132 590 57 486 q 381 694 207 694 m 575 342 q 535 547 575 464 q 376 629 494 629 q 224 547 263 629 q 185 342 185 464 q 226 135 185 218 q 385 53 267 53 q 538 135 500 53 q 575 342 575 218 m 529 767 l 381 892 l 231 767 l 201 792 l 338 985 l 421 985 l 560 792 l 529 767 z "},"ố":{"ha":760,"x_min":57,"x_max":801,"o":"m 381 694 q 630 590 557 694 q 703 338 703 486 q 628 90 703 193 q 381 -14 554 -14 q 133 90 208 -14 q 57 338 57 193 q 132 590 57 486 q 381 694 207 694 m 575 342 q 535 547 575 464 q 376 629 494 629 q 224 547 263 629 q 185 342 185 464 q 226 135 185 218 q 385 53 267 53 q 538 135 500 53 q 575 342 575 218 m 569 842 l 542 860 l 679 1103 l 793 1103 l 801 1079 l 569 842 m 529 767 l 381 892 l 231 767 l 201 792 l 338 985 l 421 985 l 560 792 l 529 767 z "},"ộ":{"ha":760,"x_min":57,"x_max":703,"o":"m 381 694 q 630 590 557 694 q 703 338 703 486 q 628 90 703 193 q 381 -14 554 -14 q 133 90 208 -14 q 57 338 57 193 q 132 590 57 486 q 381 694 207 694 m 575 342 q 535 547 575 464 q 376 629 494 629 q 224 547 263 629 q 185 342 185 464 q 226 135 185 218 q 385 53 267 53 q 538 135 500 53 q 575 342 575 218 m 464 -140 q 438 -197 464 -175 q 381 -219 413 -219 q 322 -197 347 -219 q 297 -140 297 -175 q 322 -81 297 -106 q 381 -57 347 -57 q 438 -81 413 -57 q 464 -140 464 -106 m 529 767 l 381 892 l 231 767 l 201 792 l 338 985 l 421 985 l 560 792 l 529 767 z "},"ồ":{"ha":760,"x_min":57,"x_max":703,"o":"m 381 694 q 630 590 557 694 q 703 338 703 486 q 628 90 703 193 q 381 -14 554 -14 q 133 90 208 -14 q 57 338 57 193 q 132 590 57 486 q 381 694 207 694 m 575 342 q 535 547 575 464 q 376 629 494 629 q 224 547 263 629 q 185 342 185 464 q 226 135 185 218 q 385 53 267 53 q 538 135 500 53 q 575 342 575 218 m 611 842 l 379 1079 l 388 1103 l 501 1103 l 639 860 l 611 842 m 515 767 l 367 892 l 217 767 l 188 792 l 324 985 l 407 985 l 546 792 l 515 767 z "},"ổ":{"ha":760,"x_min":57,"x_max":703,"o":"m 381 694 q 630 590 557 694 q 703 338 703 486 q 628 90 703 193 q 381 -14 554 -14 q 133 90 208 -14 q 57 338 57 193 q 132 590 57 486 q 381 694 207 694 m 575 342 q 535 547 575 464 q 376 629 494 629 q 224 547 263 629 q 185 342 185 464 q 226 135 185 218 q 385 53 267 53 q 538 135 500 53 q 575 342 575 218 m 529 767 l 381 892 l 231 767 l 201 792 l 338 985 l 421 985 l 560 792 l 529 767 m 651 1035 q 629 989 651 1011 q 540 961 607 967 l 572 989 l 557 929 l 504 929 l 499 985 q 560 997 543 985 q 576 1029 576 1010 q 528 1067 576 1067 q 494 1064 515 1067 q 447 1057 472 1061 l 439 1094 q 533 1103 490 1103 q 651 1035 651 1103 m 447 1021 l 439 1094 l 488 1096 l 501 1071 l 489 1021 l 447 1021 z "},"ỗ":{"ha":760,"x_min":57,"x_max":703,"o":"m 381 694 q 630 590 557 694 q 703 338 703 486 q 628 90 703 193 q 381 -14 554 -14 q 133 90 208 -14 q 57 338 57 193 q 132 590 57 486 q 381 694 207 694 m 575 342 q 535 547 575 464 q 376 629 494 629 q 224 547 263 629 q 185 342 185 464 q 226 135 185 218 q 385 53 267 53 q 538 135 500 53 q 575 342 575 218 z "},"ȍ":{"ha":760,"x_min":57,"x_max":703,"o":"m 381 694 q 630 590 557 694 q 703 338 703 486 q 628 90 703 193 q 381 -14 554 -14 q 133 90 208 -14 q 57 338 57 193 q 132 590 57 486 q 381 694 207 694 m 575 342 q 535 547 575 464 q 376 629 494 629 q 224 547 263 629 q 185 342 185 464 q 226 135 185 218 q 385 53 267 53 q 538 135 500 53 q 575 342 575 218 m 525 756 l 322 968 l 322 992 l 426 992 l 551 771 l 525 756 m 301 756 l 99 968 l 99 992 l 203 992 l 328 771 l 301 756 z "},"ö":{"ha":760,"x_min":57,"x_max":703,"o":"m 381 694 q 630 590 557 694 q 703 338 703 486 q 628 90 703 193 q 381 -14 554 -14 q 133 90 208 -14 q 57 338 57 193 q 132 590 57 486 q 381 694 207 694 m 575 342 q 535 547 575 464 q 376 629 494 629 q 224 547 263 629 q 185 342 185 464 q 226 135 185 218 q 385 53 267 53 q 538 135 500 53 q 575 342 575 218 m 324 882 q 299 828 324 850 q 244 806 275 806 q 190 828 214 806 q 165 882 165 850 q 190 939 165 915 q 244 963 214 963 q 299 939 275 963 q 324 882 324 915 m 594 882 q 569 828 594 850 q 514 806 544 806 q 459 828 483 806 q 435 882 435 850 q 459 939 435 915 q 514 963 483 963 q 569 939 544 963 q 594 882 594 915 z "},"ọ":{"ha":760,"x_min":57,"x_max":703,"o":"m 381 694 q 630 590 557 694 q 703 338 703 486 q 628 90 703 193 q 381 -14 554 -14 q 133 90 208 -14 q 57 338 57 193 q 132 590 57 486 q 381 694 207 694 m 575 342 q 535 547 575 464 q 376 629 494 629 q 224 547 263 629 q 185 342 185 464 q 226 135 185 218 q 385 53 267 53 q 538 135 500 53 q 575 342 575 218 m 464 -140 q 438 -197 464 -175 q 381 -219 413 -219 q 322 -197 347 -219 q 297 -140 297 -175 q 322 -81 297 -106 q 381 -57 347 -57 q 438 -81 413 -57 q 464 -140 464 -106 z "},"ò":{"ha":760,"x_min":57,"x_max":703,"o":"m 381 694 q 630 590 557 694 q 703 338 703 486 q 628 90 703 193 q 381 -14 554 -14 q 133 90 208 -14 q 57 338 57 193 q 132 590 57 486 q 381 694 207 694 m 575 342 q 535 547 575 464 q 376 629 494 629 q 224 547 263 629 q 185 342 185 464 q 226 135 185 218 q 385 53 267 53 q 538 135 500 53 q 575 342 575 218 m 506 775 l 206 918 l 206 943 l 313 982 l 525 801 l 506 775 z "},"ỏ":{"ha":760,"x_min":57,"x_max":703,"o":"m 381 694 q 630 590 557 694 q 703 338 703 486 q 628 90 703 193 q 381 -14 554 -14 q 133 90 208 -14 q 57 338 57 193 q 132 590 57 486 q 381 694 207 694 m 575 342 q 535 547 575 464 q 376 629 494 629 q 224 547 263 629 q 185 342 185 464 q 226 135 185 218 q 385 53 267 53 q 538 135 500 53 q 575 342 575 218 m 515 878 q 493 832 515 854 q 404 804 471 810 l 436 832 l 421 772 l 368 772 l 363 828 q 424 840 407 828 q 440 872 440 853 q 392 910 440 910 q 358 907 379 910 q 311 900 336 904 l 303 938 q 397 946 354 946 q 515 878 515 946 m 311 864 l 303 938 l 351 939 l 365 914 l 353 864 l 311 864 z "},"ơ":{"ha":760,"x_min":57,"x_max":774,"o":"m 381 694 q 630 590 557 694 q 703 338 703 486 q 628 90 703 193 q 381 -14 554 -14 q 133 90 208 -14 q 57 338 57 193 q 132 590 57 486 q 381 694 207 694 m 575 342 q 535 547 575 464 q 376 629 494 629 q 224 547 263 629 q 185 342 185 464 q 226 135 185 218 q 385 53 267 53 q 538 135 500 53 q 575 342 575 218 m 661 804 l 756 824 q 769 783 765 806 q 774 744 774 760 q 697 635 774 674 q 526 596 621 596 l 517 596 l 517 656 l 568 656 q 634 669 608 656 q 660 729 660 683 q 653 786 660 756 l 661 804 z "},"ớ":{"ha":760,"x_min":57,"x_max":774,"o":"m 381 694 q 630 590 557 694 q 703 338 703 486 q 628 90 703 193 q 381 -14 554 -14 q 133 90 208 -14 q 57 338 57 193 q 132 590 57 486 q 381 694 207 694 m 575 342 q 535 547 575 464 q 376 629 494 629 q 224 547 263 629 q 185 342 185 464 q 226 135 185 218 q 385 53 267 53 q 538 135 500 53 q 575 342 575 218 m 661 804 l 756 824 q 769 783 765 806 q 774 744 774 760 q 697 635 774 674 q 526 596 621 596 l 517 596 l 517 656 l 568 656 q 634 669 608 656 q 660 729 660 683 q 653 786 660 756 l 661 804 m 278 775 l 256 801 l 469 982 l 575 943 l 575 918 l 278 775 z "},"ợ":{"ha":760,"x_min":57,"x_max":774,"o":"m 381 694 q 630 590 557 694 q 703 338 703 486 q 628 90 703 193 q 381 -14 554 -14 q 133 90 208 -14 q 57 338 57 193 q 132 590 57 486 q 381 694 207 694 m 575 342 q 535 547 575 464 q 376 629 494 629 q 224 547 263 629 q 185 342 185 464 q 226 135 185 218 q 385 53 267 53 q 538 135 500 53 q 575 342 575 218 m 661 804 l 756 824 q 769 783 765 806 q 774 744 774 760 q 697 635 774 674 q 526 596 621 596 l 517 596 l 517 656 l 568 656 q 634 669 608 656 q 660 729 660 683 q 653 786 660 756 l 661 804 m 464 -140 q 438 -197 464 -175 q 381 -219 413 -219 q 322 -197 347 -219 q 297 -140 297 -175 q 322 -81 297 -106 q 381 -57 347 -57 q 438 -81 413 -57 q 464 -140 464 -106 z "},"ờ":{"ha":760,"x_min":57,"x_max":774,"o":"m 381 694 q 630 590 557 694 q 703 338 703 486 q 628 90 703 193 q 381 -14 554 -14 q 133 90 208 -14 q 57 338 57 193 q 132 590 57 486 q 381 694 207 694 m 575 342 q 535 547 575 464 q 376 629 494 629 q 224 547 263 629 q 185 342 185 464 q 226 135 185 218 q 385 53 267 53 q 538 135 500 53 q 575 342 575 218 m 661 804 l 756 824 q 769 783 765 806 q 774 744 774 760 q 697 635 774 674 q 526 596 621 596 l 517 596 l 517 656 l 568 656 q 634 669 608 656 q 660 729 660 683 q 653 786 660 756 l 661 804 m 465 775 l 165 918 l 165 943 l 272 982 l 485 801 l 465 775 z "},"ở":{"ha":760,"x_min":57,"x_max":774,"o":"m 381 694 q 630 590 557 694 q 703 338 703 486 q 628 90 703 193 q 381 -14 554 -14 q 133 90 208 -14 q 57 338 57 193 q 132 590 57 486 q 381 694 207 694 m 575 342 q 535 547 575 464 q 376 629 494 629 q 224 547 263 629 q 185 342 185 464 q 226 135 185 218 q 385 53 267 53 q 538 135 500 53 q 575 342 575 218 m 661 804 l 756 824 q 769 783 765 806 q 774 744 774 760 q 697 635 774 674 q 526 596 621 596 l 517 596 l 517 656 l 568 656 q 634 669 608 656 q 660 729 660 683 q 653 786 660 756 l 661 804 m 515 878 q 493 832 515 854 q 404 804 471 810 l 436 832 l 421 772 l 368 772 l 363 828 q 424 840 407 828 q 440 872 440 853 q 392 910 440 910 q 358 907 379 910 q 311 900 336 904 l 303 938 q 397 946 354 946 q 515 878 515 946 m 311 864 l 303 938 l 351 939 l 365 914 l 353 864 l 311 864 z "},"ỡ":{"ha":760,"x_min":57,"x_max":774,"o":"m 381 694 q 630 590 557 694 q 703 338 703 486 q 628 90 703 193 q 381 -14 554 -14 q 133 90 208 -14 q 57 338 57 193 q 132 590 57 486 q 381 694 207 694 m 575 342 q 535 547 575 464 q 376 629 494 629 q 224 547 263 629 q 185 342 185 464 q 226 135 185 218 q 385 53 267 53 q 538 135 500 53 q 575 342 575 218 m 661 804 l 756 824 q 769 783 765 806 q 774 744 774 760 q 697 635 774 674 q 526 596 621 596 l 517 596 l 517 656 l 568 656 q 634 669 608 656 q 660 729 660 683 q 653 786 660 756 l 661 804 m 582 938 q 537 847 560 885 q 481 808 514 808 q 382 836 446 808 q 283 864 318 864 q 240 839 260 864 q 221 814 221 814 l 179 831 q 224 923 201 885 q 282 961 247 961 q 381 933 318 961 q 479 906 443 906 q 521 930 503 906 q 539 954 539 954 l 582 938 z "},"ő":{"ha":760,"x_min":57,"x_max":703,"o":"m 381 694 q 630 590 557 694 q 703 338 703 486 q 628 90 703 193 q 381 -14 554 -14 q 133 90 208 -14 q 57 338 57 193 q 132 590 57 486 q 381 694 207 694 m 575 342 q 535 547 575 464 q 376 629 494 629 q 224 547 263 629 q 185 342 185 464 q 226 135 185 218 q 385 53 267 53 q 538 135 500 53 q 575 342 575 218 m 207 756 l 181 771 l 306 992 l 410 992 l 410 968 l 207 756 m 431 756 l 404 771 l 529 992 l 633 992 l 633 968 l 431 756 z "},"ȏ":{"ha":760,"x_min":57,"x_max":703,"o":"m 381 694 q 630 590 557 694 q 703 338 703 486 q 628 90 703 193 q 381 -14 554 -14 q 133 90 208 -14 q 57 338 57 193 q 132 590 57 486 q 381 694 207 694 m 575 342 q 535 547 575 464 q 376 629 494 629 q 224 547 263 629 q 185 342 185 464 q 226 135 185 218 q 385 53 267 53 q 538 135 500 53 q 575 342 575 218 m 379 978 q 510 929 476 978 q 543 819 543 881 l 496 817 q 474 876 496 850 q 382 903 453 903 q 287 876 310 903 q 264 817 264 850 l 218 819 q 251 929 218 881 q 379 978 283 978 z "},"ō":{"ha":760,"x_min":57,"x_max":703,"o":"m 381 694 q 630 590 557 694 q 703 338 703 486 q 628 90 703 193 q 381 -14 554 -14 q 133 90 208 -14 q 57 338 57 193 q 132 590 57 486 q 381 694 207 694 m 575 342 q 535 547 575 464 q 376 629 494 629 q 224 547 263 629 q 185 342 185 464 q 226 135 185 218 q 385 53 267 53 q 538 135 500 53 q 575 342 575 218 m 228 918 l 529 918 l 529 846 l 228 846 l 228 918 z "},"ǫ":{"ha":760,"x_min":57,"x_max":703,"o":"m 597 57 q 535 -27 564 26 q 506 -133 506 -81 q 582 -215 506 -215 q 651 -185 621 -215 l 674 -207 q 642 -242 674 -207 q 543 -276 610 -276 q 443 -240 474 -276 q 413 -158 413 -203 q 443 -59 413 -114 q 543 51 474 -4 l 597 57 m 381 694 q 630 590 557 694 q 703 338 703 486 q 628 90 703 193 q 381 -14 554 -14 q 133 90 208 -14 q 57 338 57 193 q 132 590 57 486 q 381 694 207 694 m 575 342 q 535 547 575 464 q 376 629 494 629 q 224 547 263 629 q 185 342 185 464 q 226 135 185 218 q 385 53 267 53 q 538 135 500 53 q 575 342 575 218 z "},"ø":{"ha":760,"x_min":57,"x_max":703,"o":"m 181 -128 l 228 17 q 98 144 139 57 q 57 338 57 231 q 132 590 57 486 q 381 694 207 694 q 446 690 414 694 l 485 811 l 568 811 l 522 669 q 661 542 619 631 q 703 338 703 453 q 628 90 703 193 q 381 -14 554 -14 q 339 -12 358 -14 q 300 -7 319 -10 l 261 -128 l 181 -128 m 254 99 l 425 625 q 376 629 403 629 q 224 547 263 629 q 185 342 185 464 q 199 200 185 264 q 254 99 214 136 m 385 53 q 538 135 500 53 q 575 342 575 218 q 558 490 575 424 q 496 592 542 556 l 322 61 q 385 53 351 53 z "},"ǿ":{"ha":760,"x_min":57,"x_max":703,"o":"m 181 -128 l 228 17 q 98 144 139 57 q 57 338 57 231 q 132 590 57 486 q 381 694 207 694 q 446 690 414 694 l 485 811 l 568 811 l 522 669 q 661 542 619 631 q 703 338 703 453 q 628 90 703 193 q 381 -14 554 -14 q 339 -12 358 -14 q 300 -7 319 -10 l 261 -128 l 181 -128 m 254 99 l 425 625 q 376 629 403 629 q 224 547 263 629 q 185 342 185 464 q 199 200 185 264 q 254 99 214 136 m 385 53 q 538 135 500 53 q 575 342 575 218 q 558 490 575 424 q 496 592 542 556 l 322 61 q 385 53 351 53 m 278 775 l 256 801 l 469 982 l 575 943 l 575 918 l 278 775 z "},"õ":{"ha":760,"x_min":57,"x_max":703,"o":"m 381 694 q 630 590 557 694 q 703 338 703 486 q 628 90 703 193 q 381 -14 554 -14 q 133 90 208 -14 q 57 338 57 193 q 132 590 57 486 q 381 694 207 694 m 575 342 q 535 547 575 464 q 376 629 494 629 q 224 547 263 629 q 185 342 185 464 q 226 135 185 218 q 385 53 267 53 q 538 135 500 53 q 575 342 575 218 m 583 938 q 538 847 561 885 q 482 808 515 808 q 383 836 447 808 q 285 864 319 864 q 242 839 261 864 q 222 814 222 814 l 181 831 q 226 923 203 885 q 283 961 249 961 q 382 933 319 961 q 481 906 444 906 q 522 930 504 906 q 540 954 540 954 l 583 938 z "},"œ":{"ha":1183,"x_min":57,"x_max":1140,"o":"m 381 -14 q 133 89 208 -14 q 57 338 57 192 q 131 590 57 486 q 381 694 206 694 q 542 660 478 694 q 643 569 606 625 q 753 669 689 643 q 883 694 818 694 q 1067 630 994 694 q 1140 428 1140 565 q 1140 405 1140 421 q 1138 364 1139 389 l 707 364 l 707 343 q 719 231 707 297 q 777 112 732 164 q 921 60 822 60 q 1022 67 964 60 q 1122 89 1081 75 l 1129 47 q 1024 2 1078 18 q 899 -14 971 -14 q 744 17 808 -14 q 642 108 679 47 q 540 19 604 53 q 381 -14 476 -14 m 383 53 q 540 137 506 53 q 574 343 574 221 q 535 548 574 467 q 375 629 497 629 q 222 548 260 629 q 183 343 183 467 q 222 137 183 221 q 383 53 261 53 m 710 413 l 1014 426 l 1014 458 q 982 580 1014 533 q 890 626 950 626 q 752 566 792 626 q 710 413 713 506 z "},"p":{"ha":801,"x_min":24,"x_max":743,"o":"m 24 -232 l 24 -193 l 147 -157 l 147 597 l 24 611 l 24 643 q 203 678 100 663 q 383 694 306 694 q 669 590 594 694 q 743 338 743 486 q 667 94 743 189 q 444 0 592 0 q 331 15 382 0 l 347 67 q 370 65 357 65 q 394 64 383 64 q 538 105 490 64 q 600 210 585 146 q 615 343 615 274 q 602 474 615 408 q 542 583 589 539 q 394 626 494 626 q 263 603 336 626 l 263 -156 l 403 -192 l 403 -232 l 24 -232 z "},"þ":{"ha":804,"x_min":26,"x_max":746,"o":"m 28 -232 l 28 -193 l 151 -157 l 151 911 l 26 925 l 26 957 l 231 1010 l 265 1010 l 265 686 q 403 694 333 694 q 672 590 597 694 q 746 338 746 486 q 670 94 746 189 q 447 0 594 0 q 333 15 393 0 l 350 67 q 373 65 360 65 q 397 64 386 64 q 540 105 493 64 q 601 210 586 146 q 617 343 617 274 q 604 474 617 408 q 544 583 592 539 q 390 626 497 626 q 265 603 313 626 l 265 -156 l 406 -192 l 406 -232 l 28 -232 z "},"q":{"ha":778,"x_min":60,"x_max":778,"o":"m 653 -157 l 778 -193 l 778 -232 l 418 -232 l 418 -193 l 542 -157 l 542 64 q 440 7 489 28 q 307 -14 392 -14 q 122 88 185 -14 q 60 338 60 189 q 135 590 60 486 q 371 694 211 694 q 474 683 419 694 q 581 643 528 671 l 617 686 l 653 686 l 653 -157 m 538 582 q 374 629 456 629 q 233 552 279 629 q 188 358 188 475 q 234 133 188 197 q 361 68 281 68 q 538 122 469 68 l 538 582 z "},"r":{"ha":554,"x_min":39,"x_max":525,"o":"m 429 606 q 349 598 388 606 q 278 579 311 590 l 278 74 l 435 42 l 435 0 l 39 0 l 39 39 l 163 75 l 163 594 l 39 611 l 39 643 l 225 694 l 274 694 l 274 631 q 489 697 379 697 q 508 697 500 697 q 525 696 515 697 l 504 496 l 458 496 l 429 606 z "},"ŕ":{"ha":554,"x_min":39,"x_max":525,"o":"m 429 606 q 349 598 388 606 q 278 579 311 590 l 278 74 l 435 42 l 435 0 l 39 0 l 39 39 l 163 75 l 163 594 l 39 611 l 39 643 l 225 694 l 274 694 l 274 631 q 489 697 379 697 q 508 697 500 697 q 525 696 515 697 l 504 496 l 458 496 l 429 606 m 204 775 l 182 801 l 396 982 l 501 943 l 501 918 l 204 775 z "},"ř":{"ha":554,"x_min":39,"x_max":525,"o":"m 429 606 q 349 598 388 606 q 278 579 311 590 l 278 74 l 435 42 l 435 0 l 39 0 l 39 39 l 163 75 l 163 594 l 39 611 l 39 643 l 225 694 l 274 694 l 274 631 q 489 697 379 697 q 508 697 500 697 q 525 696 515 697 l 504 496 l 458 496 l 429 606 m 149 993 l 299 868 l 447 993 l 476 968 l 340 775 l 257 775 l 118 968 l 149 993 z "},"ŗ":{"ha":554,"x_min":39,"x_max":525,"o":"m 39 0 l 39 39 l 163 75 l 163 594 l 39 611 l 39 643 l 225 694 l 274 694 l 274 631 q 489 697 379 697 q 508 697 500 697 q 525 696 515 697 l 504 496 l 458 496 l 429 606 q 349 598 388 606 q 278 579 311 590 l 278 74 l 435 42 l 435 0 l 39 0 m 171 -307 l 190 -60 l 289 -39 l 306 -58 l 218 -307 l 171 -307 z "},"ȑ":{"ha":554,"x_min":-4,"x_max":525,"o":"m 429 606 q 349 598 388 606 q 278 579 311 590 l 278 74 l 435 42 l 435 0 l 39 0 l 39 39 l 163 75 l 163 594 l 39 611 l 39 643 l 225 694 l 274 694 l 274 631 q 489 697 379 697 q 508 697 500 697 q 525 696 515 697 l 504 496 l 458 496 l 429 606 m 422 756 l 219 968 l 219 992 l 324 992 l 449 771 l 422 756 m 199 756 l -4 968 l -4 992 l 100 992 l 225 771 l 199 756 z "},"ṛ":{"ha":554,"x_min":39,"x_max":525,"o":"m 429 606 q 349 598 388 606 q 278 579 311 590 l 278 74 l 435 42 l 435 0 l 39 0 l 39 39 l 163 75 l 163 594 l 39 611 l 39 643 l 225 694 l 274 694 l 274 631 q 489 697 379 697 q 508 697 500 697 q 525 696 515 697 l 504 496 l 458 496 l 429 606 m 304 -140 q 278 -197 304 -175 q 221 -219 253 -219 q 163 -197 188 -219 q 138 -140 138 -175 q 163 -81 138 -106 q 221 -57 188 -57 q 278 -81 253 -57 q 304 -140 304 -106 z "},"ȓ":{"ha":554,"x_min":39,"x_max":525,"o":"m 429 606 q 349 598 388 606 q 278 579 311 590 l 278 74 l 435 42 l 435 0 l 39 0 l 39 39 l 163 75 l 163 594 l 39 611 l 39 643 l 225 694 l 274 694 l 274 631 q 489 697 379 697 q 508 697 500 697 q 525 696 515 697 l 504 496 l 458 496 l 429 606 m 276 978 q 407 929 374 978 q 440 819 440 881 l 393 817 q 372 876 393 850 q 279 903 350 903 q 184 876 207 903 q 161 817 161 850 l 115 819 q 148 929 115 881 q 276 978 181 978 z "},"s":{"ha":583,"x_min":60,"x_max":522,"o":"m 307 624 q 168 525 168 624 q 191 457 168 479 q 268 415 214 435 l 368 379 q 492 305 461 347 q 522 197 522 263 q 457 43 522 100 q 265 -14 392 -14 q 163 -5 219 -14 q 60 22 106 4 l 79 183 l 122 183 l 151 69 q 203 58 174 64 q 272 53 233 53 q 418 176 418 53 q 394 236 418 211 q 301 285 369 261 l 214 315 q 105 386 139 343 q 71 499 71 429 q 131 642 71 590 q 311 694 190 694 q 404 683 357 694 q 497 650 451 671 l 475 501 l 433 501 l 404 603 q 358 617 386 611 q 307 624 329 624 z "},"ś":{"ha":590,"x_min":60,"x_max":522,"o":"m 307 624 q 168 525 168 624 q 191 457 168 479 q 268 415 214 435 l 368 379 q 492 305 461 347 q 522 197 522 263 q 457 43 522 100 q 265 -14 392 -14 q 163 -5 219 -14 q 60 22 106 4 l 79 183 l 122 183 l 151 69 q 203 58 174 64 q 272 53 233 53 q 418 176 418 53 q 394 236 418 211 q 301 285 369 261 l 214 315 q 105 386 139 343 q 71 499 71 429 q 131 642 71 590 q 311 694 190 694 q 404 683 357 694 q 497 650 451 671 l 475 501 l 433 501 l 404 603 q 358 617 386 611 q 307 624 329 624 m 174 775 l 151 801 l 365 982 l 471 943 l 471 918 l 174 775 z "},"ꞌ":{"ha":211,"x_min":68,"x_max":214,"o":"m 113 492 l 68 500 l 89 950 l 194 975 l 214 953 l 113 492 z "},"š":{"ha":594,"x_min":75,"x_max":538,"o":"m 281 -14 q 178 -5 235 -14 q 75 22 121 4 l 94 183 l 138 183 l 167 69 q 218 58 189 64 q 288 53 247 53 q 394 82 356 53 q 433 157 433 111 q 405 232 433 204 q 308 283 376 260 l 222 315 q 113 386 147 343 q 79 499 79 429 q 139 642 79 590 q 319 694 199 694 q 413 683 365 694 q 506 650 460 671 l 483 501 l 442 501 l 413 603 q 366 617 394 611 q 315 624 338 624 q 176 525 176 624 q 199 457 176 479 q 276 415 222 435 l 379 379 q 501 306 465 349 q 538 183 538 264 q 473 42 538 97 q 281 -14 408 -14 m 269 751 l 131 944 l 163 969 l 311 844 l 460 969 l 489 944 l 353 751 l 269 751 z "},"ş":{"ha":590,"x_min":60,"x_max":522,"o":"m 238 -304 q 165 -293 197 -304 l 176 -258 q 225 -267 203 -267 q 304 -239 274 -267 q 335 -172 335 -211 q 310 -125 335 -144 q 228 -106 286 -106 l 224 -93 l 250 -14 q 154 -3 206 -12 q 60 22 103 6 l 79 183 l 122 183 l 151 69 q 203 58 174 64 q 272 53 233 53 q 418 176 418 53 q 394 236 418 211 q 301 285 369 261 l 214 315 q 105 386 139 343 q 71 499 71 429 q 131 642 71 590 q 311 694 190 694 q 404 683 357 694 q 497 650 451 671 l 475 501 l 433 501 l 404 603 q 358 617 386 611 q 307 624 329 624 q 168 525 168 624 q 191 457 168 479 q 268 415 214 435 l 368 379 q 492 305 461 347 q 522 197 522 263 q 465 50 522 106 q 293 -12 407 -6 l 276 -64 q 389 -93 353 -64 q 425 -161 425 -122 q 369 -262 425 -221 q 238 -304 313 -304 z "},"ŝ":{"ha":583,"x_min":60,"x_max":522,"o":"m 307 624 q 168 525 168 624 q 191 457 168 479 q 268 415 214 435 l 368 379 q 492 305 461 347 q 522 197 522 263 q 457 43 522 100 q 265 -14 392 -14 q 163 -5 219 -14 q 60 22 106 4 l 79 183 l 122 183 l 151 69 q 203 58 174 64 q 272 53 233 53 q 418 176 418 53 q 394 236 418 211 q 301 285 369 261 l 214 315 q 105 386 139 343 q 71 499 71 429 q 131 642 71 590 q 311 694 190 694 q 404 683 357 694 q 497 650 451 671 l 475 501 l 433 501 l 404 603 q 358 617 386 611 q 307 624 329 624 m 440 767 l 292 892 l 142 767 l 113 792 l 249 985 l 332 985 l 471 792 l 440 767 z "},"ș":{"ha":590,"x_min":60,"x_max":522,"o":"m 307 624 q 168 525 168 624 q 191 457 168 479 q 268 415 214 435 l 368 379 q 492 305 461 347 q 522 197 522 263 q 457 43 522 100 q 265 -14 392 -14 q 163 -5 219 -14 q 60 22 106 4 l 79 183 l 122 183 l 151 69 q 203 58 174 64 q 272 53 233 53 q 418 176 418 53 q 394 236 418 211 q 301 285 369 261 l 214 315 q 105 386 139 343 q 71 499 71 429 q 131 642 71 590 q 311 694 190 694 q 404 683 357 694 q 497 650 451 671 l 475 501 l 433 501 l 404 603 q 358 617 386 611 q 307 624 329 624 m 274 -307 l 228 -307 l 246 -60 l 343 -39 l 361 -58 l 274 -307 z "},"ṣ":{"ha":583,"x_min":60,"x_max":522,"o":"m 307 624 q 168 525 168 624 q 191 457 168 479 q 268 415 214 435 l 368 379 q 492 305 461 347 q 522 197 522 263 q 457 43 522 100 q 265 -14 392 -14 q 163 -5 219 -14 q 60 22 106 4 l 79 183 l 122 183 l 151 69 q 203 58 174 64 q 272 53 233 53 q 418 176 418 53 q 394 236 418 211 q 301 285 369 261 l 214 315 q 105 386 139 343 q 71 499 71 429 q 131 642 71 590 q 311 694 190 694 q 404 683 357 694 q 497 650 451 671 l 475 501 l 433 501 l 404 603 q 358 617 386 611 q 307 624 329 624 m 375 -140 q 349 -197 375 -175 q 292 -219 324 -219 q 233 -197 258 -219 q 208 -140 208 -175 q 233 -81 208 -106 q 292 -57 258 -57 q 349 -81 324 -57 q 375 -140 375 -106 z "},"ß":{"ha":832,"x_min":39,"x_max":807,"o":"m 583 -14 q 489 -3 531 -14 q 411 22 447 8 l 428 181 l 472 181 l 501 67 q 541 56 515 61 q 594 50 567 50 q 673 78 649 50 q 697 144 697 106 q 654 247 697 204 q 554 326 611 289 q 454 407 497 364 q 411 508 411 450 q 433 572 411 544 q 483 626 454 599 q 533 686 511 653 q 554 767 554 719 q 541 834 554 803 q 497 885 528 865 q 415 904 467 904 q 302 853 325 904 q 279 721 279 803 l 279 74 l 386 50 l 386 0 l 39 0 l 39 39 l 163 74 l 163 613 l 53 613 l 53 653 l 163 681 q 243 915 163 858 q 422 972 324 972 q 603 912 531 972 q 675 779 675 851 q 636 683 675 718 q 559 615 597 647 q 521 533 521 583 q 564 466 521 500 q 664 390 607 432 q 764 294 721 349 q 807 165 807 239 q 748 34 807 82 q 583 -14 689 -14 z "},"ſ":{"ha":496,"x_min":43,"x_max":572,"o":"m 43 0 l 43 39 l 167 74 l 167 613 l 57 613 l 57 653 l 167 681 q 244 923 167 836 q 438 1010 321 1010 q 511 1002 471 1010 q 572 983 551 994 l 554 825 l 504 825 l 486 914 q 448 926 468 922 q 413 929 428 929 q 311 880 338 929 q 285 736 285 831 l 283 74 l 443 39 l 443 0 l 43 0 z "},"t":{"ha":492,"x_min":32,"x_max":476,"o":"m 457 15 q 342 -4 414 4 q 242 -12 269 -12 q 156 23 178 -12 q 133 101 133 58 l 133 611 l 32 611 l 32 661 l 144 696 l 196 835 l 247 835 l 247 682 l 476 682 l 476 600 l 247 611 l 247 81 l 457 53 l 457 15 z "},"ŧ":{"ha":492,"x_min":32,"x_max":476,"o":"m 44 433 l 449 433 l 449 369 l 44 369 l 44 433 m 457 15 q 342 -4 414 4 q 242 -12 269 -12 q 156 23 178 -12 q 133 101 133 58 l 133 611 l 32 611 l 32 661 l 144 696 l 196 835 l 247 835 l 247 682 l 476 682 l 476 600 l 247 611 l 247 81 l 457 53 l 457 15 z "},"ť":{"ha":492,"x_min":32,"x_max":476,"o":"m 357 1008 l 396 1008 l 472 983 l 429 713 l 397 713 l 357 1008 m 457 15 q 342 -4 414 4 q 242 -12 269 -12 q 156 23 178 -12 q 133 101 133 58 l 133 611 l 32 611 l 32 661 l 144 696 l 196 835 l 247 835 l 247 682 l 476 682 l 476 600 l 247 611 l 247 81 l 457 53 l 457 15 z "},"ţ":{"ha":492,"x_min":32,"x_max":476,"o":"m 213 -304 q 140 -293 172 -304 l 151 -258 q 200 -267 178 -267 q 279 -239 249 -267 q 310 -172 310 -211 q 285 -125 310 -144 q 203 -106 261 -106 l 199 -93 l 226 -12 q 153 27 172 -7 q 133 101 133 61 l 133 611 l 32 611 l 32 661 l 144 696 l 196 835 l 247 835 l 247 682 l 476 682 l 476 600 l 247 611 l 247 81 l 457 53 l 457 15 q 365 -1 422 6 q 268 -11 307 -8 l 251 -64 q 364 -93 328 -64 q 400 -161 400 -122 q 344 -262 400 -221 q 213 -304 288 -304 z "},"ț":{"ha":492,"x_min":32,"x_max":476,"o":"m 242 -12 q 156 23 178 -12 q 133 101 133 58 l 133 611 l 32 611 l 32 661 l 144 696 l 196 835 l 247 835 l 247 682 l 476 682 l 476 600 l 247 611 l 247 81 l 457 53 l 457 15 q 342 -4 414 4 q 242 -12 269 -12 m 204 -307 l 224 -60 l 321 -39 l 339 -58 l 250 -307 l 204 -307 z "},"ṭ":{"ha":492,"x_min":32,"x_max":476,"o":"m 457 15 q 342 -4 414 4 q 242 -12 269 -12 q 156 23 178 -12 q 133 101 133 58 l 133 611 l 32 611 l 32 661 l 144 696 l 196 835 l 247 835 l 247 682 l 476 682 l 476 600 l 247 611 l 247 81 l 457 53 l 457 15 m 329 -140 q 303 -197 329 -175 q 246 -219 278 -219 q 188 -197 213 -219 q 163 -140 163 -175 q 188 -81 163 -106 q 246 -57 213 -57 q 303 -81 278 -57 q 329 -140 329 -106 z "},"u":{"ha":829,"x_min":19,"x_max":804,"o":"m 804 17 q 722 -1 761 4 q 657 -6 683 -6 q 602 13 631 -6 q 568 64 574 31 q 442 13 510 40 q 301 -14 375 -14 q 177 38 211 -14 q 143 151 143 89 l 143 597 l 19 611 l 19 643 l 224 694 l 260 694 l 260 167 q 280 97 260 121 q 372 72 300 72 q 465 86 410 72 q 561 115 519 100 l 561 597 l 436 611 l 436 643 l 640 694 l 678 694 l 678 81 l 804 56 l 804 17 z "},"ú":{"ha":836,"x_min":18,"x_max":803,"o":"m 803 17 q 722 -1 760 4 q 656 -6 683 -6 q 600 13 628 -6 q 567 64 572 31 q 440 13 508 40 q 300 -14 372 -14 q 176 38 210 -14 q 142 151 142 89 l 142 597 l 18 611 l 18 643 l 222 694 l 258 694 l 258 167 q 278 97 258 121 q 371 72 299 72 q 463 86 408 72 q 560 115 518 100 l 560 597 l 435 611 l 435 643 l 639 694 l 676 694 l 676 81 l 803 56 l 803 17 m 281 775 l 258 801 l 472 982 l 578 943 l 578 918 l 281 775 z "},"ŭ":{"ha":829,"x_min":19,"x_max":804,"o":"m 804 17 q 722 -1 761 4 q 657 -6 683 -6 q 602 13 631 -6 q 568 64 574 31 q 442 13 510 40 q 301 -14 375 -14 q 177 38 211 -14 q 143 151 143 89 l 143 597 l 19 611 l 19 643 l 224 694 l 260 694 l 260 167 q 280 97 260 121 q 372 72 300 72 q 465 86 410 72 q 561 115 519 100 l 561 597 l 436 611 l 436 643 l 640 694 l 678 694 l 678 81 l 804 56 l 804 17 m 417 803 q 286 851 319 803 q 253 961 253 900 l 300 964 q 322 904 300 931 q 414 878 343 878 q 509 904 486 878 q 532 964 532 931 l 578 961 q 545 851 578 900 q 417 803 513 803 z "},"ǔ":{"ha":829,"x_min":19,"x_max":804,"o":"m 804 17 q 722 -1 761 4 q 657 -6 683 -6 q 602 13 631 -6 q 568 64 574 31 q 442 13 510 40 q 301 -14 375 -14 q 177 38 211 -14 q 143 151 143 89 l 143 597 l 19 611 l 19 643 l 224 694 l 260 694 l 260 167 q 280 97 260 121 q 372 72 300 72 q 465 86 410 72 q 561 115 519 100 l 561 597 l 436 611 l 436 643 l 640 694 l 678 694 l 678 81 l 804 56 l 804 17 m 267 993 l 417 868 l 565 993 l 594 968 l 458 775 l 375 775 l 236 968 l 267 993 z "},"û":{"ha":836,"x_min":18,"x_max":803,"o":"m 803 17 q 722 -1 760 4 q 656 -6 683 -6 q 600 13 628 -6 q 567 64 572 31 q 440 13 508 40 q 300 -14 372 -14 q 176 38 210 -14 q 142 151 142 89 l 142 597 l 18 611 l 18 643 l 222 694 l 258 694 l 258 167 q 278 97 258 121 q 371 72 299 72 q 463 86 408 72 q 560 115 518 100 l 560 597 l 435 611 l 435 643 l 639 694 l 676 694 l 676 81 l 803 56 l 803 17 m 544 767 l 396 892 l 246 767 l 217 792 l 353 985 l 436 985 l 575 792 l 544 767 z "},"ȕ":{"ha":829,"x_min":19,"x_max":804,"o":"m 804 17 q 722 -1 761 4 q 657 -6 683 -6 q 602 13 631 -6 q 568 64 574 31 q 442 13 510 40 q 301 -14 375 -14 q 177 38 211 -14 q 143 151 143 89 l 143 597 l 19 611 l 19 643 l 224 694 l 260 694 l 260 167 q 280 97 260 121 q 372 72 300 72 q 465 86 410 72 q 561 115 519 100 l 561 597 l 436 611 l 436 643 l 640 694 l 678 694 l 678 81 l 804 56 l 804 17 m 560 756 l 357 968 l 357 992 l 461 992 l 586 771 l 560 756 m 336 756 l 133 968 l 133 992 l 238 992 l 363 771 l 336 756 z "},"ü":{"ha":836,"x_min":18,"x_max":803,"o":"m 803 17 q 722 -1 760 4 q 656 -6 683 -6 q 600 13 628 -6 q 567 64 572 31 q 440 13 508 40 q 300 -14 372 -14 q 176 38 210 -14 q 142 151 142 89 l 142 597 l 18 611 l 18 643 l 222 694 l 258 694 l 258 167 q 278 97 258 121 q 371 72 299 72 q 463 86 408 72 q 560 115 518 100 l 560 597 l 435 611 l 435 643 l 639 694 l 676 694 l 676 81 l 803 56 l 803 17 m 346 882 q 322 828 346 850 q 267 806 297 806 q 212 828 236 806 q 188 882 188 850 q 212 939 188 915 q 267 963 236 963 q 322 939 297 963 q 346 882 346 915 m 617 882 q 592 828 617 850 q 536 806 567 806 q 481 828 506 806 q 457 882 457 850 q 481 939 457 915 q 536 963 506 963 q 592 939 567 963 q 617 882 617 915 z "},"ǘ":{"ha":829,"x_min":19,"x_max":804,"o":"m 804 17 q 722 -1 761 4 q 657 -6 683 -6 q 602 13 631 -6 q 568 64 574 31 q 442 13 510 40 q 301 -14 375 -14 q 177 38 211 -14 q 143 151 143 89 l 143 597 l 19 611 l 19 643 l 224 694 l 260 694 l 260 167 q 280 97 260 121 q 372 72 300 72 q 465 86 410 72 q 561 115 519 100 l 561 597 l 436 611 l 436 643 l 640 694 l 678 694 l 678 81 l 804 56 l 804 17 m 354 971 l 332 997 l 546 1178 l 651 1139 l 651 1114 l 354 971 z "},"ǚ":{"ha":829,"x_min":19,"x_max":804,"o":"m 804 17 q 722 -1 761 4 q 657 -6 683 -6 q 602 13 631 -6 q 568 64 574 31 q 442 13 510 40 q 301 -14 375 -14 q 177 38 211 -14 q 143 151 143 89 l 143 597 l 19 611 l 19 643 l 224 694 l 260 694 l 260 167 q 280 97 260 121 q 372 72 300 72 q 465 86 410 72 q 561 115 519 100 l 561 597 l 436 611 l 436 643 l 640 694 l 678 694 l 678 81 l 804 56 l 804 17 z "},"ǜ":{"ha":829,"x_min":19,"x_max":804,"o":"m 804 17 q 722 -1 761 4 q 657 -6 683 -6 q 602 13 631 -6 q 568 64 574 31 q 442 13 510 40 q 301 -14 375 -14 q 177 38 211 -14 q 143 151 143 89 l 143 597 l 19 611 l 19 643 l 224 694 l 260 694 l 260 167 q 280 97 260 121 q 372 72 300 72 q 465 86 410 72 q 561 115 519 100 l 561 597 l 436 611 l 436 643 l 640 694 l 678 694 l 678 81 l 804 56 l 804 17 z "},"ǖ":{"ha":829,"x_min":19,"x_max":804,"o":"m 804 17 q 722 -1 761 4 q 657 -6 683 -6 q 602 13 631 -6 q 568 64 574 31 q 442 13 510 40 q 301 -14 375 -14 q 177 38 211 -14 q 143 151 143 89 l 143 597 l 19 611 l 19 643 l 224 694 l 260 694 l 260 167 q 280 97 260 121 q 372 72 300 72 q 465 86 410 72 q 561 115 519 100 l 561 597 l 436 611 l 436 643 l 640 694 l 678 694 l 678 81 l 804 56 l 804 17 z "},"ụ":{"ha":829,"x_min":19,"x_max":804,"o":"m 804 17 q 722 -1 761 4 q 657 -6 683 -6 q 602 13 631 -6 q 568 64 574 31 q 442 13 510 40 q 301 -14 375 -14 q 177 38 211 -14 q 143 151 143 89 l 143 597 l 19 611 l 19 643 l 224 694 l 260 694 l 260 167 q 280 97 260 121 q 372 72 300 72 q 465 86 410 72 q 561 115 519 100 l 561 597 l 436 611 l 436 643 l 640 694 l 678 694 l 678 81 l 804 56 l 804 17 m 499 -140 q 473 -197 499 -175 q 415 -219 447 -219 q 357 -197 382 -219 q 332 -140 332 -175 q 357 -81 332 -106 q 415 -57 382 -57 q 473 -81 447 -57 q 499 -140 499 -106 z "},"ù":{"ha":836,"x_min":18,"x_max":803,"o":"m 803 17 q 722 -1 760 4 q 656 -6 683 -6 q 600 13 628 -6 q 567 64 572 31 q 440 13 508 40 q 300 -14 372 -14 q 176 38 210 -14 q 142 151 142 89 l 142 597 l 18 611 l 18 643 l 222 694 l 258 694 l 258 167 q 278 97 258 121 q 371 72 299 72 q 463 86 408 72 q 560 115 518 100 l 560 597 l 435 611 l 435 643 l 639 694 l 676 694 l 676 81 l 803 56 l 803 17 m 521 775 l 221 918 l 221 943 l 328 982 l 540 801 l 521 775 z "},"ủ":{"ha":829,"x_min":19,"x_max":804,"o":"m 804 17 q 722 -1 761 4 q 657 -6 683 -6 q 602 13 631 -6 q 568 64 574 31 q 442 13 510 40 q 301 -14 375 -14 q 177 38 211 -14 q 143 151 143 89 l 143 597 l 19 611 l 19 643 l 224 694 l 260 694 l 260 167 q 280 97 260 121 q 372 72 300 72 q 465 86 410 72 q 561 115 519 100 l 561 597 l 436 611 l 436 643 l 640 694 l 678 694 l 678 81 l 804 56 l 804 17 m 550 878 q 528 832 550 854 q 439 804 506 810 l 471 832 l 456 772 l 403 772 l 397 828 q 458 840 442 828 q 475 872 475 853 q 426 910 475 910 q 392 907 414 910 q 346 900 371 904 l 338 938 q 432 946 389 946 q 550 878 550 946 m 346 864 l 338 938 l 386 939 l 400 914 l 388 864 l 346 864 z "},"ư":{"ha":829,"x_min":19,"x_max":897,"o":"m 804 17 q 722 -1 761 4 q 657 -6 683 -6 q 602 13 631 -6 q 568 64 574 31 q 442 13 510 40 q 301 -14 375 -14 q 177 38 211 -14 q 143 151 143 89 l 143 597 l 19 611 l 19 643 l 224 694 l 260 694 l 260 167 q 280 97 260 121 q 372 72 300 72 q 465 86 410 72 q 561 115 519 100 l 561 597 l 436 611 l 436 643 l 640 694 l 678 694 l 678 81 l 804 56 l 804 17 m 785 843 l 879 863 q 893 822 889 844 q 897 783 897 799 q 821 674 897 713 q 650 635 744 635 l 640 635 l 640 694 l 692 694 q 758 708 732 694 q 783 768 783 722 q 776 825 783 794 l 785 843 z "},"ứ":{"ha":829,"x_min":19,"x_max":897,"o":"m 804 17 q 722 -1 761 4 q 657 -6 683 -6 q 602 13 631 -6 q 568 64 574 31 q 442 13 510 40 q 301 -14 375 -14 q 177 38 211 -14 q 143 151 143 89 l 143 597 l 19 611 l 19 643 l 224 694 l 260 694 l 260 167 q 280 97 260 121 q 372 72 300 72 q 465 86 410 72 q 561 115 519 100 l 561 597 l 436 611 l 436 643 l 640 694 l 678 694 l 678 81 l 804 56 l 804 17 m 785 843 l 879 863 q 893 822 889 844 q 897 783 897 799 q 821 674 897 713 q 650 635 744 635 l 640 635 l 640 694 l 692 694 q 758 708 732 694 q 783 768 783 722 q 776 825 783 794 l 785 843 m 313 775 l 290 801 l 504 982 l 610 943 l 610 918 l 313 775 z "},"ự":{"ha":829,"x_min":19,"x_max":897,"o":"m 804 17 q 722 -1 761 4 q 657 -6 683 -6 q 602 13 631 -6 q 568 64 574 31 q 442 13 510 40 q 301 -14 375 -14 q 177 38 211 -14 q 143 151 143 89 l 143 597 l 19 611 l 19 643 l 224 694 l 260 694 l 260 167 q 280 97 260 121 q 372 72 300 72 q 465 86 410 72 q 561 115 519 100 l 561 597 l 436 611 l 436 643 l 640 694 l 678 694 l 678 81 l 804 56 l 804 17 m 785 843 l 879 863 q 893 822 889 844 q 897 783 897 799 q 821 674 897 713 q 650 635 744 635 l 640 635 l 640 694 l 692 694 q 758 708 732 694 q 783 768 783 722 q 776 825 783 794 l 785 843 m 499 -140 q 473 -197 499 -175 q 415 -219 447 -219 q 357 -197 382 -219 q 332 -140 332 -175 q 357 -81 332 -106 q 415 -57 382 -57 q 473 -81 447 -57 q 499 -140 499 -106 z "},"ừ":{"ha":829,"x_min":19,"x_max":897,"o":"m 804 17 q 722 -1 761 4 q 657 -6 683 -6 q 602 13 631 -6 q 568 64 574 31 q 442 13 510 40 q 301 -14 375 -14 q 177 38 211 -14 q 143 151 143 89 l 143 597 l 19 611 l 19 643 l 224 694 l 260 694 l 260 167 q 280 97 260 121 q 372 72 300 72 q 465 86 410 72 q 561 115 519 100 l 561 597 l 436 611 l 436 643 l 640 694 l 678 694 l 678 81 l 804 56 l 804 17 m 785 843 l 879 863 q 893 822 889 844 q 897 783 897 799 q 821 674 897 713 q 650 635 744 635 l 640 635 l 640 694 l 692 694 q 758 708 732 694 q 783 768 783 722 q 776 825 783 794 l 785 843 m 500 775 l 200 918 l 200 943 l 307 982 l 519 801 l 500 775 z "},"ử":{"ha":829,"x_min":19,"x_max":897,"o":"m 804 17 q 722 -1 761 4 q 657 -6 683 -6 q 602 13 631 -6 q 568 64 574 31 q 442 13 510 40 q 301 -14 375 -14 q 177 38 211 -14 q 143 151 143 89 l 143 597 l 19 611 l 19 643 l 224 694 l 260 694 l 260 167 q 280 97 260 121 q 372 72 300 72 q 465 86 410 72 q 561 115 519 100 l 561 597 l 436 611 l 436 643 l 640 694 l 678 694 l 678 81 l 804 56 l 804 17 m 785 843 l 879 863 q 893 822 889 844 q 897 783 897 799 q 821 674 897 713 q 650 635 744 635 l 640 635 l 640 694 l 692 694 q 758 708 732 694 q 783 768 783 722 q 776 825 783 794 l 785 843 m 550 878 q 528 832 550 854 q 439 804 506 810 l 471 832 l 456 772 l 403 772 l 397 828 q 458 840 442 828 q 475 872 475 853 q 426 910 475 910 q 392 907 414 910 q 346 900 371 904 l 338 938 q 432 946 389 946 q 550 878 550 946 m 346 864 l 338 938 l 386 939 l 400 914 l 388 864 l 346 864 z "}}}
